SplineFontDB: 3.0
FontName: OxygenMono-Regular
FullName: Oxygen Mono
FamilyName: Oxygen Mono
Weight: Book
Copyright: Copyright (c) 2011 by vernon adams.
Version: 1.001
ItalicAngle: 0
UnderlinePosition: -119
UnderlineWidth: 119
Ascent: 1638
Descent: 410
sfntRevision: 0x00010000
LayerCount: 2
Layer: 0 1 "Back"  1
Layer: 1 1 "Fore"  0
XUID: [1021 301 1372559506 3449242]
FSType: 8
OS2Version: 4
OS2_WeightWidthSlopeOnly: 0
OS2_UseTypoMetrics: 1
CreationTime: 1325511247
ModificationTime: 1327300031
PfmFamily: 17
TTFWeight: 400
TTFWidth: 5
LineGap: 0
VLineGap: 0
Panose: 2 0 5 3 0 0 0 9 0 4
OS2TypoAscent: 0
OS2TypoAOffset: 1
OS2TypoDescent: 0
OS2TypoDOffset: 1
OS2TypoLinegap: 0
OS2WinAscent: 0
OS2WinAOffset: 1
OS2WinDescent: 0
OS2WinDOffset: 1
HheadAscent: 0
HheadAOffset: 1
HheadDescent: 0
HheadDOffset: 1
OS2SubXSize: 1331
OS2SubYSize: 1228
OS2SubXOff: 0
OS2SubYOff: 153
OS2SupXSize: 1331
OS2SupYSize: 1228
OS2SupXOff: 0
OS2SupYOff: 716
OS2StrikeYSize: 119
OS2StrikeYPos: 658
OS2Vendor: 'newt'
OS2CodePages: 20000003.00000000
OS2UnicodeRanges: 00000007.00000000.00000000.00000000
MarkAttachClasses: 1
DEI: 91125
ShortTable: maxp 16
  1
  0
  397
  90
  7
  0
  0
  2
  0
  1
  1
  0
  64
  0
  0
  0
EndShort
LangName: 1033 "" "" "" "" "" "Version 1.000" "" "Oxygen Mono is a trademark of vernon adams." "vernon adams" "vernon adams" "Copyright (c) 2011 by vernon adams. All rights reserved." "" "" "" "http://scripts.sil.org/OFL" "" "Oxygen Mono" "Regular" "Oxygen Mono" 
GaspTable: 1 65535 3 0
Encoding: UnicodeBmp
UnicodeInterp: none
NameList: Adobe Glyph List
DisplaySize: -24
AntiAlias: 1
FitToEm: 1
WinInfo: 33 33 12
BeginPrivate: 0
EndPrivate
TeXData: 1 0 0 629248 314624 209749 561664 -1048576 209749 783286 444596 497025 792723 393216 433062 380633 303038 157286 324010 404750 52429 2506097 1059062 262144
BeginChars: 65541 398

StartChar: exclam
Encoding: 33 33 34
Width: 1229
GlyphClass: 2
Flags: W
LayerCount: 2
Fore
SplineSet
576 489 m 1,0,-1
 487 1614 l 1,1,-1
 777 1614 l 1,2,-1
 688 489 l 1,3,-1
 576 489 l 1,0,-1
777 0 m 1,4,-1
 487 0 l 1,5,-1
 487 276 l 1,6,-1
 777 276 l 1,7,-1
 777 0 l 1,4,-1
EndSplineSet
EndChar

StartChar: quotedbl
Encoding: 34 34 35
Width: 1229
GlyphClass: 2
Flags: W
LayerCount: 2
Fore
SplineSet
518 1568 m 1,0,-1
 467 1036 l 1,1,-1
 324 1036 l 1,2,-1
 285 1568 l 1,3,-1
 518 1568 l 1,0,-1
885 1568 m 1,4,-1
 834 1036 l 1,5,-1
 693 1036 l 1,6,-1
 654 1568 l 1,7,-1
 885 1568 l 1,4,-1
EndSplineSet
EndChar

StartChar: numbersign
Encoding: 35 35 36
Width: 1229
GlyphClass: 2
Flags: W
LayerCount: 2
Fore
SplineSet
1124 997 m 1,0,-1
 940 997 l 1,1,-1
 855 573 l 1,2,-1
 1042 573 l 1,3,-1
 1027 437 l 1,4,-1
 832 437 l 1,5,-1
 741 -25 l 1,6,-1
 579 -25 l 1,7,-1
 667 437 l 1,8,-1
 420 437 l 1,9,-1
 330 -25 l 1,10,-1
 167 -25 l 1,11,-1
 261 437 l 1,12,-1
 45 437 l 1,13,-1
 58 573 l 1,14,-1
 287 573 l 1,15,-1
 367 996 l 1,16,-1
 142 996 l 1,17,-1
 156 1130 l 1,18,-1
 392 1130 l 1,19,-1
 478 1568 l 1,20,-1
 641 1568 l 1,21,-1
 556 1130 l 1,22,-1
 806 1130 l 1,23,-1
 890 1568 l 1,24,-1
 1052 1568 l 1,25,-1
 966 1130 l 1,26,-1
 1141 1130 l 1,27,-1
 1124 997 l 1,0,-1
529 997 m 1,28,-1
 446 573 l 1,29,-1
 696 573 l 1,30,-1
 780 997 l 1,31,-1
 529 997 l 1,28,-1
EndSplineSet
EndChar

StartChar: dollar
Encoding: 36 36 37
Width: 1229
GlyphClass: 2
Flags: W
LayerCount: 2
Fore
SplineSet
258 287 m 1,0,1
 373 193 373 193 540 166 c 1,2,-1
 605 738 l 1,3,4
 561 756 561 756 557 758 c 0,5,6
 512 777 512 777 479.5 792 c 128,-1,7
 447 807 447 807 406 830.5 c 128,-1,8
 365 854 365 854 337 877 c 128,-1,9
 309 900 309 900 279.5 932.5 c 128,-1,10
 250 965 250 965 232.5 1000.5 c 128,-1,11
 215 1036 215 1036 203.5 1083 c 128,-1,12
 192 1130 192 1130 192 1184 c 0,13,14
 192 1381 192 1381 326 1490 c 128,-1,15
 460 1599 460 1599 671 1599 c 0,16,17
 691 1599 691 1599 702 1598 c 1,18,-1
 723 1784 l 1,19,-1
 850 1784 l 1,20,-1
 827 1586 l 1,21,22
 977 1558 977 1558 1081 1477 c 1,23,-1
 1008 1317 l 1,24,25
 923 1380 923 1380 807 1404 c 1,26,-1
 748 891 l 1,27,-1
 778 879 l 1,28,29
 842 850 842 850 888.5 824.5 c 128,-1,30
 935 799 935 799 987 758.5 c 128,-1,31
 1039 718 1039 718 1071 672.5 c 128,-1,32
 1103 627 1103 627 1124 561.5 c 128,-1,33
 1145 496 1145 496 1145 417 c 0,34,35
 1145 203 1145 203 1012 89 c 128,-1,36
 879 -25 879 -25 654 -25 c 2,37,-1
 644 -25 l 1,38,-1
 626 -186 l 1,39,-1
 500 -186 l 1,40,-1
 519 -16 l 1,41,42
 332 11 332 11 182 111 c 1,43,-1
 258 287 l 1,0,1
922 427 m 0,44,45
 922 522 922 522 869.5 583 c 128,-1,46
 817 644 817 644 725 688 c 1,47,-1
 665 157 l 1,48,49
 790 158 790 158 856 227.5 c 128,-1,50
 922 297 922 297 922 427 c 0,44,45
410 1180 m 1,51,52
 410 1092 410 1092 468 1037 c 128,-1,53
 526 982 526 982 627 939 c 1,54,-1
 681 1417 l 1,55,56
 678 1417 678 1417 671 1417.5 c 128,-1,57
 664 1418 664 1418 660 1418 c 0,58,59
 544 1418 544 1418 478 1356 c 128,-1,60
 412 1294 412 1294 410 1180 c 1,51,52
EndSplineSet
EndChar

StartChar: percent
Encoding: 37 37 38
Width: 1229
GlyphClass: 2
Flags: W
LayerCount: 2
Fore
SplineSet
285 1571 m 0,0,1
 357 1571 357 1571 411.5 1536.5 c 128,-1,2
 466 1502 466 1502 497 1442 c 128,-1,3
 528 1382 528 1382 542.5 1311.5 c 128,-1,4
 557 1241 557 1241 557 1160 c 0,5,6
 557 1047 557 1047 525 953.5 c 128,-1,7
 493 860 493 860 428 802.5 c 128,-1,8
 363 745 363 745 276 745 c 0,9,10
 204 745 204 745 149 780 c 128,-1,11
 94 815 94 815 62.5 875 c 128,-1,12
 31 935 31 935 15.5 1005.5 c 128,-1,13
 0 1076 0 1076 0 1155 c 0,14,15
 0 1236 0 1236 16.5 1308 c 128,-1,16
 33 1380 33 1380 65.5 1440 c 128,-1,17
 98 1500 98 1500 154.5 1535.5 c 128,-1,18
 211 1571 211 1571 285 1571 c 0,0,1
971 -30 m 0,19,20
 899 -30 899 -30 844.5 5 c 128,-1,21
 790 40 790 40 758.5 100 c 128,-1,22
 727 160 727 160 711.5 230.5 c 128,-1,23
 696 301 696 301 696 381 c 0,24,25
 696 558 696 558 772.5 678 c 128,-1,26
 849 798 849 798 980 798 c 0,27,28
 1052 798 1052 798 1107 763 c 128,-1,29
 1162 728 1162 728 1192.5 668.5 c 128,-1,30
 1223 609 1223 609 1238 538.5 c 128,-1,31
 1253 468 1253 468 1253 387 c 0,32,33
 1253 273 1253 273 1220.5 179.5 c 128,-1,34
 1188 86 1188 86 1123 28 c 128,-1,35
 1058 -30 1058 -30 971 -30 c 0,19,20
1148 1559 m 1,36,-1
 248 -6 l 1,37,-1
 105 -6 l 1,38,-1
 1003 1559 l 1,39,-1
 1148 1559 l 1,36,-1
976 93 m 128,-1,41
 1019 93 1019 93 1049 120.5 c 128,-1,42
 1079 148 1079 148 1093.5 194.5 c 128,-1,43
 1108 241 1108 241 1114 287.5 c 128,-1,44
 1120 334 1120 334 1120 387 c 0,45,46
 1120 675 1120 675 976 675 c 0,47,48
 933 675 933 675 902.5 647.5 c 128,-1,49
 872 620 872 620 857.5 573 c 128,-1,50
 843 526 843 526 837 479.5 c 128,-1,51
 831 433 831 433 831 380 c 128,-1,52
 831 327 831 327 837 281.5 c 128,-1,53
 843 236 843 236 857.5 190.5 c 128,-1,54
 872 145 872 145 902.5 119 c 128,-1,40
 933 93 933 93 976 93 c 128,-1,41
281 1449 m 128,-1,56
 238 1449 238 1449 207.5 1421.5 c 128,-1,57
 177 1394 177 1394 162 1348 c 128,-1,58
 147 1302 147 1302 141 1255.5 c 128,-1,59
 135 1209 135 1209 135 1156 c 0,60,61
 135 1102 135 1102 141 1056.5 c 128,-1,62
 147 1011 147 1011 161.5 965.5 c 128,-1,63
 176 920 176 920 206.5 893.5 c 128,-1,64
 237 867 237 867 280 867 c 0,65,66
 322 867 322 867 352 894.5 c 128,-1,67
 382 922 382 922 397 968.5 c 128,-1,68
 412 1015 412 1015 418.5 1062 c 128,-1,69
 425 1109 425 1109 425 1160 c 0,70,71
 425 1213 425 1213 419 1258.5 c 128,-1,72
 413 1304 413 1304 398.5 1350 c 128,-1,73
 384 1396 384 1396 354 1422.5 c 128,-1,55
 324 1449 324 1449 281 1449 c 128,-1,56
EndSplineSet
EndChar

StartChar: ampersand
Encoding: 38 38 39
Width: 1229
GlyphClass: 2
Flags: W
LayerCount: 2
Fore
SplineSet
61 413 m 0,0,1
 61 692 61 692 346 881 c 1,2,-1
 324 910 l 2,3,4
 311 926 311 926 275.5 968 c 128,-1,5
 240 1010 240 1010 223 1034 c 128,-1,6
 206 1058 206 1058 182.5 1098.5 c 128,-1,7
 159 1139 159 1139 148.5 1183 c 128,-1,8
 138 1227 138 1227 138 1277 c 0,9,10
 138 1354 138 1354 171 1416 c 128,-1,11
 204 1478 204 1478 260 1516 c 128,-1,12
 316 1554 316 1554 384.5 1574 c 128,-1,13
 453 1594 453 1594 529 1594 c 0,14,15
 607 1594 607 1594 678.5 1573.5 c 128,-1,16
 750 1553 750 1553 808 1513.5 c 128,-1,17
 866 1474 866 1474 900.5 1411 c 128,-1,18
 935 1348 935 1348 935 1270 c 0,19,20
 935 1206 935 1206 914.5 1147.5 c 128,-1,21
 894 1089 894 1089 863 1046 c 128,-1,22
 832 1003 832 1003 785 962 c 128,-1,23
 738 921 738 921 697 894 c 128,-1,24
 656 867 656 867 604 838 c 1,25,-1
 965 366 l 1,26,27
 1042 457 1042 457 1069 537 c 1,28,-1
 1222 439 l 1,29,30
 1171 320 1171 320 1076 220 c 1,31,-1
 1193 68 l 1,32,-1
 1038 -24 l 1,33,-1
 938 106 l 1,34,35
 740 -25 740 -25 518 -25 c 0,36,37
 305 -25 305 -25 183 89 c 128,-1,38
 61 203 61 203 61 413 c 0,0,1
283 424 m 0,39,40
 283 290 283 290 348 216.5 c 128,-1,41
 413 143 413 143 541 143 c 0,42,43
 693 143 693 143 833 243 c 1,44,-1
 449 746 l 1,45,46
 283 620 283 620 283 424 c 0,39,40
341 1278 m 0,47,48
 341 1233 341 1233 358.5 1186.5 c 128,-1,49
 376 1140 376 1140 391 1117 c 128,-1,50
 406 1094 406 1094 444 1045.5 c 128,-1,51
 482 997 482 997 488 989 c 2,52,-1
 509 961 l 1,53,54
 557 988 557 988 591 1012.5 c 128,-1,55
 625 1037 625 1037 660.5 1073 c 128,-1,56
 696 1109 696 1109 714.5 1156.5 c 128,-1,57
 733 1204 733 1204 733 1260 c 0,58,59
 733 1344 733 1344 669 1393.5 c 128,-1,60
 605 1443 605 1443 522 1443 c 0,61,62
 447 1443 447 1443 394 1400 c 128,-1,63
 341 1357 341 1357 341 1278 c 0,47,48
EndSplineSet
EndChar

StartChar: quotesingle
Encoding: 39 39 40
Width: 1229
GlyphClass: 2
Flags: W
LayerCount: 2
Fore
SplineSet
558 969 m 1,0,-1
 496 1580 l 1,1,-1
 755 1580 l 1,2,-1
 700 969 l 1,3,-1
 558 969 l 1,0,-1
EndSplineSet
EndChar

StartChar: parenleft
Encoding: 40 40 41
Width: 1229
GlyphClass: 2
Flags: W
LayerCount: 2
Fore
SplineSet
295 772 m 0,0,1
 295 1288 295 1288 597 1705 c 1,2,-1
 811 1705 l 1,3,4
 527 1257 527 1257 527 781 c 0,5,6
 527 514 527 514 601.5 290 c 128,-1,7
 676 66 676 66 813 -152 c 1,8,-1
 600 -152 l 1,9,10
 295 255 295 255 295 772 c 0,0,1
EndSplineSet
EndChar

StartChar: parenright
Encoding: 41 41 42
Width: 1229
GlyphClass: 2
Flags: W
LayerCount: 2
Fore
SplineSet
815 772 m 0,0,1
 815 255 815 255 510 -152 c 1,2,-1
 297 -152 l 1,3,4
 434 66 434 66 508.5 290 c 128,-1,5
 583 514 583 514 583 781 c 0,6,7
 583 1257 583 1257 299 1705 c 1,8,-1
 513 1705 l 1,9,10
 815 1288 815 1288 815 772 c 0,0,1
EndSplineSet
EndChar

StartChar: asterisk
Encoding: 42 42 43
Width: 1229
GlyphClass: 2
Flags: W
LayerCount: 2
Fore
SplineSet
1150 374 m 1,0,1
 1115 353 1115 353 1051 318 c 128,-1,2
 987 283 987 283 965 270 c 1,3,-1
 704 673 l 1,4,-1
 448 270 l 1,5,-1
 261 374 l 1,6,-1
 588 752 l 1,7,-1
 133 899 l 1,8,-1
 227 1079 l 1,9,-1
 640 866 l 1,10,-1
 604 1330 l 5,11,-1
 806 1330 l 5,12,-1
 775 866 l 1,13,-1
 1184 1079 l 1,14,15
 1202 1048 1202 1048 1232 989 c 128,-1,16
 1262 930 1262 930 1280 899 c 1,17,-1
 823 752 l 1,18,19
 852 719 852 719 969 582 c 128,-1,20
 1086 445 1086 445 1150 374 c 1,0,1
EndSplineSet
EndChar

StartChar: plus
Encoding: 43 43 44
Width: 1229
GlyphClass: 2
Flags: W
LayerCount: 2
Fore
SplineSet
652 1286 m 1,0,-1
 814 1286 l 1,1,-1
 814 827 l 1,2,-1
 1311 827 l 1,3,-1
 1311 676 l 1,4,-1
 813 676 l 1,5,-1
 813 217 l 1,6,-1
 648 217 l 1,7,-1
 648 676 l 1,8,-1
 152 676 l 1,9,-1
 152 827 l 1,10,-1
 652 827 l 1,11,-1
 652 1286 l 1,0,-1
EndSplineSet
EndChar

StartChar: comma
Encoding: 44 44 45
Width: 1229
GlyphClass: 2
Flags: W
LayerCount: 2
Fore
SplineSet
440 -313 m 1,0,-1
 491 286 l 1,1,-1
 788 286 l 1,2,-1
 582 -313 l 1,3,-1
 440 -313 l 1,0,-1
EndSplineSet
EndChar

StartChar: hyphen
Encoding: 45 45 46
Width: 1229
GlyphClass: 2
Flags: W
LayerCount: 2
Fore
SplineSet
1060 827 m 1,0,-1
 1060 672 l 1,1,-1
 185 672 l 1,2,-1
 185 827 l 5,3,-1
 1060 827 l 1,0,-1
EndSplineSet
EndChar

StartChar: period
Encoding: 46 46 47
Width: 1229
GlyphClass: 2
Flags: W
LayerCount: 2
Fore
SplineSet
764 0 m 1,0,-1
 463 0 l 1,1,-1
 463 301 l 1,2,-1
 764 301 l 1,3,-1
 764 0 l 1,0,-1
EndSplineSet
EndChar

StartChar: slash
Encoding: 47 47 48
Width: 1229
GlyphClass: 2
Flags: W
LayerCount: 2
Fore
SplineSet
914 1585 m 1,0,-1
 1111 1585 l 1,1,-1
 402 -224 l 1,2,-1
 211 -224 l 1,3,-1
 914 1585 l 1,0,-1
EndSplineSet
EndChar

StartChar: zero
Encoding: 48 48 49
Width: 1229
GlyphClass: 2
Flags: W
LayerCount: 2
Fore
SplineSet
614 1363 m 0,0,1
 519 1363 519 1363 451 1279.5 c 128,-1,2
 383 1196 383 1196 351 1059 c 128,-1,3
 319 922 319 922 319 746 c 0,4,5
 319 479 319 479 391 313 c 1,6,-1
 749 1310 l 1,7,8
 690 1363 690 1363 614 1363 c 0,0,1
614 -25 m 128,-1,10
 491 -25 491 -25 395 37.5 c 128,-1,11
 299 100 299 100 240.5 208 c 128,-1,12
 182 316 182 316 152.5 453 c 128,-1,13
 123 590 123 590 123 747 c 0,14,15
 123 865 123 865 138 972 c 128,-1,16
 153 1079 153 1079 189 1180 c 128,-1,17
 225 1281 225 1281 280 1354.5 c 128,-1,18
 335 1428 335 1428 420.5 1472 c 128,-1,19
 506 1516 506 1516 614 1516 c 128,-1,20
 722 1516 722 1516 807.5 1472 c 128,-1,21
 893 1428 893 1428 948 1354.5 c 128,-1,22
 1003 1281 1003 1281 1039 1180 c 128,-1,23
 1075 1079 1075 1079 1090 972 c 128,-1,24
 1105 865 1105 865 1105 747 c 0,25,26
 1105 590 1105 590 1075.5 453 c 128,-1,27
 1046 316 1046 316 987.5 208 c 128,-1,28
 929 100 929 100 833 37.5 c 128,-1,9
 737 -25 737 -25 614 -25 c 128,-1,10
841 1170 m 1,29,-1
 487 176 l 1,30,31
 544 130 544 130 614 130 c 0,32,33
 709 130 709 130 777 213 c 128,-1,34
 845 296 845 296 877 433 c 128,-1,35
 909 570 909 570 909 746 c 0,36,37
 909 1005 909 1005 841 1170 c 1,29,-1
EndSplineSet
EndChar

StartChar: one
Encoding: 49 49 50
Width: 1229
GlyphClass: 2
Flags: W
LayerCount: 2
Fore
SplineSet
225 1287 m 1,0,1
 309 1322 309 1322 360 1344 c 128,-1,2
 411 1366 411 1366 480.5 1402.5 c 128,-1,3
 550 1439 550 1439 601 1475 c 1,4,-1
 789 1475 l 1,5,-1
 789 0 l 1,6,-1
 602 0 l 1,7,-1
 602 1273 l 1,8,9
 476 1202 476 1202 225 1106 c 1,10,-1
 225 1287 l 1,0,1
EndSplineSet
EndChar

StartChar: two
Encoding: 50 50 51
Width: 1229
GlyphClass: 2
Flags: W
LayerCount: 2
Fore
SplineSet
186 1385 m 1,0,1
 352 1516 352 1516 596 1516 c 0,2,3
 814 1516 814 1516 946 1393 c 128,-1,4
 1078 1270 1078 1270 1078 1078 c 0,5,6
 1078 1036 1078 1036 1070 995 c 128,-1,7
 1062 954 1062 954 1051 921.5 c 128,-1,8
 1040 889 1040 889 1019.5 852 c 128,-1,9
 999 815 999 815 982.5 790.5 c 128,-1,10
 966 766 966 766 937 732 c 128,-1,11
 908 698 908 698 891.5 680.5 c 128,-1,12
 875 663 875 663 843 629 c 128,-1,13
 811 595 811 595 798 582 c 2,14,-1
 402 146 l 1,15,-1
 1063 146 l 1,16,-1
 1063 0 l 1,17,-1
 196 0 l 1,18,-1
 196 191 l 1,19,-1
 656 733 l 2,20,21
 661 738 661 738 697.5 780 c 128,-1,22
 734 822 734 822 745 836 c 128,-1,23
 756 850 756 850 784 888.5 c 128,-1,24
 812 927 812 927 823 951.5 c 128,-1,25
 834 976 834 976 844.5 1012.5 c 128,-1,26
 855 1049 855 1049 855 1083 c 0,27,28
 855 1206 855 1206 787 1273.5 c 128,-1,29
 719 1341 719 1341 598 1341 c 0,30,31
 404 1341 404 1341 257 1219 c 1,32,-1
 186 1385 l 1,0,1
EndSplineSet
EndChar

StartChar: three
Encoding: 51 51 52
Width: 1229
GlyphClass: 2
Flags: W
LayerCount: 2
Fore
SplineSet
453 858 m 1,0,1
 844 858 844 858 844 1097 c 0,2,3
 844 1349 844 1349 573 1349 c 0,4,5
 376 1349 376 1349 232 1221 c 1,6,-1
 163 1382 l 1,7,8
 321 1516 321 1516 597 1516 c 0,9,10
 803 1516 803 1516 934 1415 c 128,-1,11
 1065 1314 1065 1314 1065 1143 c 0,12,13
 1065 997 1065 997 980 905.5 c 128,-1,14
 895 814 895 814 759 782 c 1,15,16
 832 769 832 769 895 740.5 c 128,-1,17
 958 712 958 712 1009.5 668 c 128,-1,18
 1061 624 1061 624 1090.5 559 c 128,-1,19
 1120 494 1120 494 1120 415 c 0,20,21
 1120 304 1120 304 1076 220.5 c 128,-1,22
 1032 137 1032 137 954 87 c 128,-1,23
 876 37 876 37 777 12.5 c 128,-1,24
 678 -12 678 -12 560 -12 c 0,25,26
 432 -12 432 -12 327.5 23.5 c 128,-1,27
 223 59 223 59 161 125 c 1,28,-1
 231 285 l 1,29,30
 373 157 373 157 570 157 c 0,31,32
 719 157 719 157 806.5 217.5 c 128,-1,33
 894 278 894 278 894 410 c 0,34,35
 894 475 894 475 868.5 524 c 128,-1,36
 843 573 843 573 803 602 c 128,-1,37
 763 631 763 631 702.5 649 c 128,-1,38
 642 667 642 667 584.5 673.5 c 128,-1,39
 527 680 527 680 454 682 c 1,40,-1
 453 858 l 1,0,1
EndSplineSet
EndChar

StartChar: four
Encoding: 52 52 53
Width: 1229
GlyphClass: 2
Flags: W
LayerCount: 2
Fore
SplineSet
897 0 m 1,0,-1
 710 0 l 1,1,-1
 710 398 l 1,2,-1
 61 398 l 1,3,-1
 61 541 l 1,4,-1
 667 1475 l 1,5,-1
 897 1475 l 1,6,-1
 897 538 l 1,7,-1
 1139 538 l 1,8,-1
 1139 398 l 1,9,-1
 897 398 l 1,10,-1
 897 0 l 1,0,-1
710 1265 m 1,11,-1
 250 538 l 1,12,-1
 710 538 l 1,13,-1
 710 1265 l 1,11,-1
EndSplineSet
EndChar

StartChar: five
Encoding: 53 53 54
Width: 1229
GlyphClass: 2
Flags: W
LayerCount: 2
Fore
SplineSet
162 275 m 1,0,1
 342 130 342 130 535 130 c 0,2,3
 674 130 674 130 758.5 220 c 128,-1,4
 843 310 843 310 843 479 c 0,5,6
 843 629 843 629 775.5 719 c 128,-1,7
 708 809 708 809 571 809 c 0,8,9
 487 809 487 809 435 772 c 128,-1,10
 383 735 383 735 361 679 c 1,11,-1
 151 679 l 1,12,-1
 151 1492 l 1,13,-1
 923 1492 l 1,14,-1
 923 1346 l 1,15,-1
 339 1346 l 1,16,-1
 339 860 l 1,17,18
 408 929 408 929 456 952.5 c 128,-1,19
 504 976 504 976 591 976 c 0,20,21
 709 976 709 976 799 933.5 c 128,-1,22
 889 891 889 891 941 818.5 c 128,-1,23
 993 746 993 746 1019 659 c 128,-1,24
 1045 572 1045 572 1045 474 c 0,25,26
 1045 379 1045 379 1015 292.5 c 128,-1,27
 985 206 985 206 927 134 c 128,-1,28
 869 62 869 62 772.5 19.5 c 128,-1,29
 676 -23 676 -23 553 -23 c 0,30,31
 402 -23 402 -23 293.5 13 c 128,-1,32
 185 49 185 49 88 121 c 1,33,-1
 162 275 l 1,0,1
EndSplineSet
EndChar

StartChar: six
Encoding: 54 54 55
Width: 1229
GlyphClass: 2
Flags: W
LayerCount: 2
Fore
SplineSet
642 -26 m 0,0,1
 414 -26 414 -26 285 107.5 c 128,-1,2
 156 241 156 241 156 472 c 0,3,4
 156 727 156 727 320 938 c 1,5,-1
 774 1492 l 1,6,-1
 1016 1492 l 1,7,-1
 476 852 l 1,8,9
 517 877 517 877 576 894 c 128,-1,10
 635 911 635 911 692 911 c 0,11,12
 821 911 821 911 918 850 c 128,-1,13
 1015 789 1015 789 1065.5 684.5 c 128,-1,14
 1116 580 1116 580 1116 449 c 0,15,16
 1116 340 1116 340 1076.5 248.5 c 128,-1,17
 1037 157 1037 157 971 98 c 128,-1,18
 905 39 905 39 820 6.5 c 128,-1,19
 735 -26 735 -26 642 -26 c 0,0,1
354 437 m 0,20,21
 354 303 354 303 433 215.5 c 128,-1,22
 512 128 512 128 642 129 c 0,23,24
 767 129 767 129 845.5 219.5 c 128,-1,25
 924 310 924 310 924 445 c 0,26,27
 924 532 924 532 893 604 c 128,-1,28
 862 676 862 676 799 720.5 c 128,-1,29
 736 765 736 765 652 765 c 0,30,31
 557 765 557 765 488 719.5 c 128,-1,32
 419 674 419 674 386.5 601 c 128,-1,33
 354 528 354 528 354 437 c 0,20,21
EndSplineSet
EndChar

StartChar: seven
Encoding: 55 55 56
Width: 1229
GlyphClass: 2
Flags: W
LayerCount: 2
Fore
SplineSet
143 1323 m 1,0,-1
 143 1492 l 1,1,-1
 1028 1492 l 1,2,-1
 1028 1347 l 1,3,-1
 604 0 l 1,4,-1
 372 0 l 1,5,-1
 790 1323 l 1,6,-1
 143 1323 l 1,0,-1
EndSplineSet
EndChar

StartChar: eight
Encoding: 56 56 57
Width: 1229
GlyphClass: 2
Flags: W
LayerCount: 2
Fore
SplineSet
396 378 m 0,0,1
 396 261 396 261 455.5 195.5 c 128,-1,2
 515 130 515 130 626 130 c 128,-1,3
 737 130 737 130 797 195.5 c 128,-1,4
 857 261 857 261 857 378 c 0,5,6
 857 609 857 609 626 678 c 1,7,8
 396 608 396 608 396 378 c 0,0,1
1070 406 m 0,9,10
 1070 202 1070 202 951.5 89 c 128,-1,11
 833 -24 833 -24 626 -24 c 128,-1,12
 419 -24 419 -24 300 89 c 128,-1,13
 181 202 181 202 181 406 c 0,14,15
 181 504 181 504 226.5 582.5 c 128,-1,16
 272 661 272 661 339 706.5 c 128,-1,17
 406 752 406 752 491 778 c 1,18,19
 211 876 211 876 211 1142 c 0,20,21
 211 1316 211 1316 328 1416 c 128,-1,22
 445 1516 445 1516 626 1516 c 128,-1,23
 807 1516 807 1516 924.5 1416 c 128,-1,24
 1042 1316 1042 1316 1042 1142 c 0,25,26
 1042 876 1042 876 762 778 c 1,27,28
 825 759 825 759 878.5 728 c 128,-1,29
 932 697 932 697 976 651.5 c 128,-1,30
 1020 606 1020 606 1045 543 c 128,-1,31
 1070 480 1070 480 1070 406 c 0,9,10
849 1150 m 0,32,33
 849 1247 849 1247 786.5 1305 c 128,-1,34
 724 1363 724 1363 626 1363 c 0,35,36
 529 1363 529 1363 466.5 1304.5 c 128,-1,37
 404 1246 404 1246 404 1150 c 0,38,39
 404 1032 404 1032 462 967.5 c 128,-1,40
 520 903 520 903 626 874 c 1,41,42
 732 903 732 903 790.5 967.5 c 128,-1,43
 849 1032 849 1032 849 1150 c 0,32,33
EndSplineSet
EndChar

StartChar: nine
Encoding: 57 57 58
Width: 1229
GlyphClass: 2
Flags: W
LayerCount: 2
Fore
SplineSet
692 1517 m 0,0,1
 922 1517 922 1517 1051 1387.5 c 128,-1,2
 1180 1258 1180 1258 1180 1029 c 0,3,4
 1180 795 1180 795 1016 583 c 2,5,-1
 566 0 l 1,6,-1
 324 0 l 1,7,-1
 858 669 l 1,8,9
 818 644 818 644 758.5 627 c 128,-1,10
 699 610 699 610 642 610 c 0,11,12
 448 610 448 610 334 731.5 c 128,-1,13
 220 853 220 853 220 1052 c 0,14,15
 220 1196 220 1196 287.5 1304 c 128,-1,16
 355 1412 355 1412 461 1464.5 c 128,-1,17
 567 1517 567 1517 692 1517 c 0,0,1
980 1064 m 0,18,19
 980 1196 980 1196 902 1279.5 c 128,-1,20
 824 1363 824 1363 694 1363 c 0,21,22
 568 1363 568 1363 489 1276.5 c 128,-1,23
 410 1190 410 1190 410 1056 c 128,-1,24
 410 922 410 922 483 836 c 128,-1,25
 556 750 556 750 682 750 c 0,26,27
 825 750 825 750 902.5 837.5 c 128,-1,28
 980 925 980 925 980 1064 c 0,18,19
EndSplineSet
EndChar

StartChar: colon
Encoding: 58 58 59
Width: 1229
GlyphClass: 2
Flags: W
LayerCount: 2
Fore
SplineSet
788 830 m 1,0,-1
 487 830 l 1,1,-1
 487 1130 l 1,2,-1
 788 1130 l 1,3,-1
 788 830 l 1,0,-1
788 144 m 1,4,-1
 487 144 l 1,5,-1
 487 445 l 1,6,-1
 788 445 l 1,7,-1
 788 144 l 1,4,-1
EndSplineSet
EndChar

StartChar: semicolon
Encoding: 59 59 60
Width: 1229
GlyphClass: 2
Flags: W
LayerCount: 2
Fore
SplineSet
410 -313 m 1,0,-1
 486 286 l 1,1,-1
 758 286 l 1,2,-1
 590 -313 l 1,3,-1
 410 -313 l 1,0,-1
778 838 m 1,4,-1
 479 838 l 1,5,-1
 479 1139 l 1,6,-1
 778 1139 l 1,7,-1
 778 838 l 1,4,-1
EndSplineSet
EndChar

StartChar: less
Encoding: 60 60 61
Width: 1229
GlyphClass: 2
Flags: W
LayerCount: 2
Fore
SplineSet
1214 367 m 1,0,-1
 1214 190 l 1,1,-1
 152 689 l 1,2,-1
 152 807 l 1,3,-1
 1218 1321 l 5,4,-1
 1218 1142 l 1,5,-1
 395 749 l 1,6,-1
 1214 367 l 1,0,-1
EndSplineSet
EndChar

StartChar: equal
Encoding: 61 61 62
Width: 1229
GlyphClass: 2
Flags: W
LayerCount: 2
Fore
SplineSet
1312 898 m 1,0,-1
 152 898 l 1,1,-1
 152 1048 l 5,2,-1
 1312 1048 l 1,3,-1
 1312 898 l 1,0,-1
1313 457 m 1,4,-1
 153 457 l 1,5,-1
 153 605 l 1,6,-1
 1313 605 l 1,7,-1
 1313 457 l 1,4,-1
EndSplineSet
EndChar

StartChar: greater
Encoding: 62 62 63
Width: 1229
GlyphClass: 2
Flags: W
LayerCount: 2
Fore
SplineSet
208 1155 m 1,0,-1
 208 1321 l 1,1,-1
 1272 794 l 1,2,-1
 1272 699 l 1,3,-1
 202 213 l 1,4,-1
 202 380 l 1,5,-1
 1027 753 l 1,6,-1
 208 1155 l 1,0,-1
EndSplineSet
EndChar

StartChar: question
Encoding: 63 63 64
Width: 1229
GlyphClass: 2
Flags: W
LayerCount: 2
Fore
SplineSet
523 556 m 0,0,1
 523 499 523 499 542 400 c 1,2,-1
 360 400 l 1,3,4
 349 486 349 486 349 569 c 1,5,-1
 348 570 l 1,6,7
 348 632 348 632 369 686 c 128,-1,8
 390 740 390 740 428 782.5 c 128,-1,9
 466 825 466 825 503 857 c 128,-1,10
 540 889 540 889 588.5 928 c 128,-1,11
 637 967 637 967 663 993 c 0,12,13
 715 1046 715 1046 744 1098.5 c 128,-1,14
 773 1151 773 1151 773 1222 c 0,15,16
 773 1283 773 1283 746.5 1329 c 128,-1,17
 720 1375 720 1375 673 1400.5 c 128,-1,18
 626 1426 626 1426 569.5 1438.5 c 128,-1,19
 513 1451 513 1451 447 1451 c 0,20,21
 305 1451 305 1451 168 1377 c 1,22,-1
 168 1535 l 1,23,24
 318 1606 318 1606 447 1606 c 0,25,26
 533 1606 533 1606 607 1594 c 128,-1,27
 681 1582 681 1582 747 1554 c 128,-1,28
 813 1526 813 1526 859 1483.5 c 128,-1,29
 905 1441 905 1441 932 1376.5 c 128,-1,30
 959 1312 959 1312 959 1231 c 0,31,32
 959 1158 959 1158 928.5 1099 c 128,-1,33
 898 1040 898 1040 846 979 c 0,34,35
 816 944 816 944 752 881.5 c 128,-1,36
 688 819 688 819 642.5 774 c 128,-1,37
 597 729 597 729 560 668 c 128,-1,38
 523 607 523 607 523 556 c 0,0,1
328 -12 m 1,39,-1
 328 216 l 1,40,-1
 570 216 l 1,41,-1
 570 -12 l 1,42,-1
 328 -12 l 1,39,-1
EndSplineSet
EndChar

StartChar: at
Encoding: 64 64 65
Width: 1229
GlyphClass: 2
Flags: W
LayerCount: 2
Fore
SplineSet
920 523 m 0,0,1
 920 476 920 476 942 431 c 128,-1,2
 964 386 964 386 999 386 c 0,3,4
 1046 386 1046 386 1083 449 c 128,-1,5
 1120 512 1120 512 1139.5 604 c 128,-1,6
 1159 696 1159 696 1169 780 c 128,-1,7
 1179 864 1179 864 1179 924 c 0,8,9
 1179 1072 1179 1072 1136 1190 c 128,-1,10
 1093 1308 1093 1308 1005.5 1379.5 c 128,-1,11
 918 1451 918 1451 799 1451 c 0,12,13
 548 1451 548 1451 376 1224 c 0,14,15
 294 1115 294 1115 246.5 965.5 c 128,-1,16
 199 816 199 816 199 641 c 0,17,18
 199 459 199 459 251 316 c 128,-1,19
 303 173 303 173 409.5 87 c 128,-1,20
 516 1 516 1 663 1 c 0,21,22
 900 1 900 1 1106 173 c 1,23,-1
 1194 97 l 1,24,25
 955 -131 955 -131 652 -131 c 0,26,27
 545 -131 545 -131 453 -98.5 c 128,-1,28
 361 -66 361 -66 294.5 -9 c 128,-1,29
 228 48 228 48 176.5 123 c 128,-1,30
 125 198 125 198 93.5 285.5 c 128,-1,31
 62 373 62 373 46.5 462.5 c 128,-1,32
 31 552 31 552 31 643 c 0,33,34
 31 845 31 845 91.5 1020.5 c 128,-1,35
 152 1196 152 1196 256 1318.5 c 128,-1,36
 360 1441 360 1441 503 1511 c 128,-1,37
 646 1581 646 1581 807 1581 c 0,38,39
 912 1581 912 1581 997.5 1545.5 c 128,-1,40
 1083 1510 1083 1510 1141.5 1448.5 c 128,-1,41
 1200 1387 1200 1387 1240 1301.5 c 128,-1,42
 1280 1216 1280 1216 1298.5 1118 c 128,-1,43
 1317 1020 1317 1020 1317 910 c 0,44,45
 1317 727 1317 727 1261 570.5 c 128,-1,46
 1205 414 1205 414 1108 329 c 0,47,48
 1049 277 1049 277 988 277 c 0,49,50
 909 277 909 277 865 328.5 c 128,-1,51
 821 380 821 380 811 464 c 1,52,53
 698 269 698 269 587 269 c 0,54,55
 526 269 526 269 481 301 c 128,-1,56
 436 333 436 333 411 388.5 c 128,-1,57
 386 444 386 444 374.5 509 c 128,-1,58
 363 574 363 574 363 650 c 0,59,60
 363 793 363 793 403 923.5 c 128,-1,61
 443 1054 443 1054 519 1139 c 128,-1,62
 595 1224 595 1224 688 1224 c 0,63,64
 750 1224 750 1224 792.5 1176.5 c 128,-1,65
 835 1129 835 1129 861 1062 c 1,66,-1
 882 1189 l 1,67,-1
 1017 1189 l 1,68,69
 1007 1109 1007 1109 981 983 c 128,-1,70
 955 857 955 857 937.5 743 c 128,-1,71
 920 629 920 629 920 523 c 0,0,1
802 890 m 0,72,73
 802 1081 802 1081 698 1081 c 0,74,75
 648 1081 648 1081 610 1031 c 128,-1,76
 572 981 572 981 553 904.5 c 128,-1,77
 534 828 534 828 525 756 c 128,-1,78
 516 684 516 684 516 620 c 0,79,80
 516 394 516 394 614 394 c 0,81,82
 675 394 675 394 737 542 c 0,83,84
 802 698 802 698 802 890 c 0,72,73
EndSplineSet
EndChar

StartChar: A
Encoding: 65 65 66
Width: 1229
GlyphClass: 2
Flags: W
LayerCount: 2
Fore
SplineSet
728 1491 m 1,0,-1
 1189 0 l 1,1,-1
 984 0 l 1,2,-1
 833 473 l 1,3,-1
 394 473 l 1,4,-1
 244 0 l 1,5,-1
 40 0 l 1,6,-1
 500 1491 l 1,7,-1
 728 1491 l 1,0,-1
433 636 m 1,8,-1
 795 636 l 1,9,-1
 617 1226 l 1,10,-1
 433 636 l 1,8,-1
EndSplineSet
EndChar

StartChar: B
Encoding: 66 66 67
Width: 1229
GlyphClass: 2
Flags: W
LayerCount: 2
Fore
SplineSet
756 808 m 1,0,1
 900 779 900 779 994.5 686.5 c 128,-1,2
 1089 594 1089 594 1089 458 c 0,3,4
 1089 355 1089 355 1059 276 c 128,-1,5
 1029 197 1029 197 976.5 145 c 128,-1,6
 924 93 924 93 846.5 60 c 128,-1,7
 769 27 769 27 680 13.5 c 128,-1,8
 591 0 591 0 482 0 c 2,9,-1
 135 0 l 1,10,-1
 135 1491 l 1,11,-1
 383 1491 l 2,12,13
 455 1491 455 1491 516.5 1487 c 128,-1,14
 578 1483 578 1483 643.5 1472.5 c 128,-1,15
 709 1462 709 1462 762 1445 c 128,-1,16
 815 1428 815 1428 863 1399.5 c 128,-1,17
 911 1371 911 1371 943 1333.5 c 128,-1,18
 975 1296 975 1296 994 1243 c 128,-1,19
 1013 1190 1013 1190 1013 1125 c 0,20,21
 1013 1003 1013 1003 943.5 921.5 c 128,-1,22
 874 840 874 840 756 808 c 1,0,1
893 440 m 0,23,24
 893 504 893 504 874 551.5 c 128,-1,25
 855 599 855 599 822 629 c 128,-1,26
 789 659 789 659 738.5 677 c 128,-1,27
 688 695 688 695 631.5 701.5 c 128,-1,28
 575 708 575 708 502 708 c 2,29,-1
 322 708 l 1,30,-1
 322 146 l 1,31,-1
 451 146 l 2,32,33
 528 146 528 146 590.5 154 c 128,-1,34
 653 162 653 162 710.5 182.5 c 128,-1,35
 768 203 768 203 807.5 235.5 c 128,-1,36
 847 268 847 268 870 320 c 128,-1,37
 893 372 893 372 893 440 c 0,23,24
466 874 m 2,38,39
 817 874 817 874 817 1090 c 0,40,41
 817 1140 817 1140 802.5 1179.5 c 128,-1,42
 788 1219 788 1219 765.5 1245.5 c 128,-1,43
 743 1272 743 1272 704.5 1291 c 128,-1,44
 666 1310 666 1310 628.5 1320.5 c 128,-1,45
 591 1331 591 1331 535 1336.5 c 128,-1,46
 479 1342 479 1342 433.5 1343.5 c 128,-1,47
 388 1345 388 1345 322 1345 c 1,48,-1
 322 874 l 1,49,-1
 466 874 l 2,38,39
EndSplineSet
EndChar

StartChar: C
Encoding: 67 67 68
Width: 1229
GlyphClass: 2
Flags: W
LayerCount: 2
Fore
SplineSet
1159 1389 m 1,0,-1
 1089 1258 l 1,1,2
 945 1363 945 1363 759 1363 c 0,3,4
 668 1363 668 1363 594.5 1330 c 128,-1,5
 521 1297 521 1297 471.5 1240.5 c 128,-1,6
 422 1184 422 1184 388.5 1105 c 128,-1,7
 355 1026 355 1026 340 937 c 128,-1,8
 325 848 325 848 325 748 c 0,9,10
 325 618 325 618 352 507 c 128,-1,11
 379 396 379 396 431 311 c 128,-1,12
 483 226 483 226 567 178 c 128,-1,13
 651 130 651 130 758 130 c 0,14,15
 942 130 942 130 1091 244 c 1,16,-1
 1160 103 l 1,17,18
 1004 -25 1004 -25 739 -25 c 0,19,20
 546 -25 546 -25 406 79.5 c 128,-1,21
 266 184 266 184 197.5 357 c 128,-1,22
 129 530 129 530 129 750 c 0,23,24
 129 975 129 975 204 1149 c 128,-1,25
 279 1323 279 1323 418 1419.5 c 128,-1,26
 557 1516 557 1516 739 1516 c 0,27,28
 1003 1516 1003 1516 1159 1389 c 1,0,-1
EndSplineSet
EndChar

StartChar: D
Encoding: 68 68 69
Width: 1229
GlyphClass: 2
Flags: W
LayerCount: 2
Fore
SplineSet
135 1491 m 1,0,-1
 342 1491 l 2,1,2
 701 1491 701 1491 892 1296.5 c 128,-1,3
 1083 1102 1083 1102 1083 746 c 0,4,5
 1083 385 1083 385 889.5 192.5 c 128,-1,6
 696 0 696 0 323 0 c 2,7,-1
 135 0 l 1,8,-1
 135 1491 l 1,0,-1
322 146 m 1,9,10
 887 146 887 146 887 747 c 0,11,12
 887 1345 887 1345 322 1345 c 1,13,-1
 322 146 l 1,9,10
EndSplineSet
EndChar

StartChar: E
Encoding: 69 69 70
Width: 1229
GlyphClass: 2
Flags: W
LayerCount: 2
Fore
SplineSet
404 684 m 1,0,-1
 404 146 l 1,1,-1
 1141 146 l 1,2,-1
 1126 0 l 1,3,-1
 217 0 l 1,4,-1
 217 1491 l 1,5,-1
 1108 1491 l 1,6,-1
 1092 1345 l 1,7,-1
 404 1345 l 1,8,-1
 404 843 l 1,9,-1
 1059 843 l 1,10,-1
 1059 684 l 1,11,-1
 404 684 l 1,0,-1
EndSplineSet
EndChar

StartChar: F
Encoding: 70 70 71
Width: 1229
GlyphClass: 2
Flags: W
LayerCount: 2
Fore
SplineSet
431 683 m 1,0,-1
 431 0 l 1,1,-1
 244 0 l 1,2,-1
 244 1491 l 1,3,-1
 1109 1491 l 1,4,-1
 1091 1345 l 1,5,-1
 431 1345 l 1,6,-1
 431 846 l 1,7,-1
 1065 846 l 1,8,-1
 1065 683 l 1,9,-1
 431 683 l 1,0,-1
EndSplineSet
EndChar

StartChar: G
Encoding: 71 71 72
Width: 1229
GlyphClass: 2
Flags: W
LayerCount: 2
Fore
SplineSet
1056 1227 m 1,0,1
 907 1363 907 1363 714 1363 c 0,2,3
 607 1363 607 1363 527 1311 c 128,-1,4
 447 1259 447 1259 401.5 1170 c 128,-1,5
 356 1081 356 1081 334.5 975 c 128,-1,6
 313 869 313 869 313 748 c 0,7,8
 313 623 313 623 337.5 513.5 c 128,-1,9
 362 404 362 404 409.5 317 c 128,-1,10
 457 230 457 230 535 180 c 128,-1,11
 613 130 613 130 714 130 c 0,12,13
 856 130 856 130 1001 217 c 1,14,-1
 1001 625 l 1,15,-1
 654 625 l 1,16,-1
 654 778 l 1,17,-1
 1174 778 l 1,18,-1
 1174 132 l 1,19,20
 1061 60 1061 60 946.5 17.5 c 128,-1,21
 832 -25 832 -25 696 -25 c 0,22,23
 554 -25 554 -25 441.5 36.5 c 128,-1,24
 329 98 329 98 259 205 c 128,-1,25
 189 312 189 312 153 450.5 c 128,-1,26
 117 589 117 589 117 750 c 0,27,28
 117 972 117 972 184.5 1144.5 c 128,-1,29
 252 1317 252 1317 384.5 1417 c 128,-1,30
 517 1517 517 1517 696 1517 c 0,31,32
 975 1517 975 1517 1126 1388 c 1,33,-1
 1056 1227 l 1,0,1
EndSplineSet
EndChar

StartChar: H
Encoding: 72 72 73
Width: 1229
GlyphClass: 2
Flags: W
LayerCount: 2
Fore
SplineSet
327 0 m 1,0,-1
 140 0 l 1,1,-1
 140 1491 l 1,2,-1
 327 1491 l 1,3,-1
 327 855 l 1,4,-1
 902 855 l 1,5,-1
 902 1491 l 1,6,-1
 1089 1491 l 1,7,-1
 1089 0 l 1,8,-1
 902 0 l 1,9,-1
 902 702 l 1,10,-1
 327 702 l 1,11,-1
 327 0 l 1,0,-1
EndSplineSet
EndChar

StartChar: I
Encoding: 73 73 74
Width: 1229
GlyphClass: 2
Flags: W
LayerCount: 2
Fore
SplineSet
194 1345 m 1,0,-1
 194 1491 l 1,1,-1
 1035 1491 l 1,2,-1
 1035 1345 l 1,3,-1
 704 1345 l 1,4,-1
 704 146 l 1,5,-1
 1035 146 l 1,6,-1
 1035 0 l 1,7,-1
 194 0 l 1,8,-1
 194 146 l 1,9,-1
 517 146 l 1,10,-1
 517 1345 l 1,11,-1
 194 1345 l 1,0,-1
EndSplineSet
EndChar

StartChar: J
Encoding: 74 74 75
Width: 1229
GlyphClass: 2
Flags: W
LayerCount: 2
Fore
SplineSet
137 134 m 1,0,-1
 350 134 l 2,1,2
 478 134 478 134 526 193 c 128,-1,3
 574 252 574 252 574 391 c 2,4,-1
 574 1345 l 1,5,-1
 229 1345 l 1,6,-1
 229 1491 l 1,7,-1
 1060 1491 l 1,8,-1
 1060 1345 l 1,9,-1
 761 1345 l 1,10,-1
 761 443 l 2,11,12
 761 318 761 318 742.5 233 c 128,-1,13
 724 148 724 148 679.5 88.5 c 128,-1,14
 635 29 635 29 559.5 1.5 c 128,-1,15
 484 -26 484 -26 371 -26 c 2,16,-1
 137 -26 l 1,17,-1
 137 134 l 1,0,-1
EndSplineSet
EndChar

StartChar: K
Encoding: 75 75 76
Width: 1229
GlyphClass: 2
Flags: W
LayerCount: 2
Fore
SplineSet
928 1491 m 1,0,-1
 1161 1491 l 1,1,-1
 661 823 l 1,2,-1
 1244 0 l 1,3,-1
 1006 0 l 1,4,-1
 517 700 l 1,5,-1
 398 561 l 1,6,-1
 398 0 l 1,7,-1
 211 0 l 1,8,-1
 211 1491 l 1,9,-1
 398 1491 l 1,10,-1
 398 773 l 1,11,-1
 928 1491 l 1,0,-1
EndSplineSet
EndChar

StartChar: L
Encoding: 76 76 77
Width: 1229
GlyphClass: 2
Flags: W
LayerCount: 2
Fore
SplineSet
420 146 m 1,0,-1
 1129 146 l 1,1,-1
 1129 0 l 1,2,-1
 233 0 l 1,3,-1
 233 1491 l 1,4,-1
 420 1491 l 1,5,-1
 420 146 l 1,0,-1
EndSplineSet
EndChar

StartChar: M
Encoding: 77 77 78
Width: 1229
GlyphClass: 2
Flags: W
LayerCount: 2
Fore
SplineSet
335 1230 m 1,0,-1
 335 0 l 1,1,-1
 149 0 l 1,2,-1
 149 1491 l 1,3,-1
 404 1491 l 1,4,-1
 617 802 l 1,5,-1
 830 1491 l 1,6,-1
 1079 1491 l 1,7,-1
 1079 0 l 1,8,-1
 898 0 l 1,9,-1
 898 1230 l 1,10,-1
 721 646 l 1,11,-1
 512 646 l 1,12,-1
 335 1230 l 1,0,-1
EndSplineSet
EndChar

StartChar: N
Encoding: 78 78 79
Width: 1229
GlyphClass: 2
Flags: W
LayerCount: 2
Fore
SplineSet
1078 0 m 1,0,-1
 858 0 l 1,1,-1
 320 1206 l 1,2,-1
 320 0 l 1,3,-1
 150 0 l 1,4,-1
 150 1491 l 1,5,-1
 365 1491 l 1,6,-1
 911 289 l 1,7,-1
 911 1491 l 1,8,-1
 1078 1491 l 1,9,-1
 1078 0 l 1,0,-1
EndSplineSet
EndChar

StartChar: O
Encoding: 79 79 80
Width: 1229
GlyphClass: 2
Flags: W
LayerCount: 2
Fore
SplineSet
614 -25 m 128,-1,1
 491 -25 491 -25 395 37.5 c 128,-1,2
 299 100 299 100 240.5 208 c 128,-1,3
 182 316 182 316 152.5 453 c 128,-1,4
 123 590 123 590 123 747 c 0,5,6
 123 865 123 865 138 972 c 128,-1,7
 153 1079 153 1079 189 1180 c 128,-1,8
 225 1281 225 1281 280 1354.5 c 128,-1,9
 335 1428 335 1428 420.5 1472 c 128,-1,10
 506 1516 506 1516 614 1516 c 128,-1,11
 722 1516 722 1516 807.5 1472 c 128,-1,12
 893 1428 893 1428 948 1354.5 c 128,-1,13
 1003 1281 1003 1281 1039 1180 c 128,-1,14
 1075 1079 1075 1079 1090 972 c 128,-1,15
 1105 865 1105 865 1105 747 c 0,16,17
 1105 590 1105 590 1075.5 453 c 128,-1,18
 1046 316 1046 316 987.5 208 c 128,-1,19
 929 100 929 100 833 37.5 c 128,-1,0
 737 -25 737 -25 614 -25 c 128,-1,1
614 1363 m 128,-1,21
 519 1363 519 1363 451 1279.5 c 128,-1,22
 383 1196 383 1196 351 1059 c 128,-1,23
 319 922 319 922 319 746 c 128,-1,24
 319 570 319 570 351 433 c 128,-1,25
 383 296 383 296 451 213 c 128,-1,26
 519 130 519 130 614 130 c 128,-1,27
 709 130 709 130 777 213 c 128,-1,28
 845 296 845 296 877 433 c 128,-1,29
 909 570 909 570 909 746 c 128,-1,30
 909 922 909 922 877 1059 c 128,-1,31
 845 1196 845 1196 777 1279.5 c 128,-1,20
 709 1363 709 1363 614 1363 c 128,-1,21
EndSplineSet
EndChar

StartChar: P
Encoding: 80 80 81
Width: 1229
GlyphClass: 2
Flags: W
LayerCount: 2
Fore
SplineSet
1191 1062 m 0,0,1
 1191 992 1191 992 1177 934 c 128,-1,2
 1163 876 1163 876 1140.5 832.5 c 128,-1,3
 1118 789 1118 789 1079 754.5 c 128,-1,4
 1040 720 1040 720 999 696.5 c 128,-1,5
 958 673 958 673 898 656 c 128,-1,6
 838 639 838 639 784 630 c 128,-1,7
 730 621 730 621 653.5 615.5 c 128,-1,8
 577 610 577 610 514 608.5 c 128,-1,9
 451 607 451 607 363 607 c 1,10,-1
 363 0 l 1,11,-1
 176 0 l 1,12,-1
 176 1491 l 1,13,-1
 588 1491 l 2,14,15
 689 1491 689 1491 775.5 1478 c 128,-1,16
 862 1465 862 1465 940 1433.5 c 128,-1,17
 1018 1402 1018 1402 1072.5 1353.5 c 128,-1,18
 1127 1305 1127 1305 1159 1231 c 128,-1,19
 1191 1157 1191 1157 1191 1062 c 0,0,1
363 769 m 1,20,-1
 652 769 l 2,21,22
 798 769 798 769 896.5 842.5 c 128,-1,23
 995 916 995 916 995 1053 c 0,24,25
 995 1128 995 1128 968.5 1185 c 128,-1,26
 942 1242 942 1242 895 1276.5 c 128,-1,27
 848 1311 848 1311 788.5 1328 c 128,-1,28
 729 1345 729 1345 659 1345 c 2,29,-1
 363 1345 l 1,30,-1
 363 769 l 1,20,-1
EndSplineSet
EndChar

StartChar: Q
Encoding: 81 81 82
Width: 1229
GlyphClass: 2
Flags: W
LayerCount: 2
Fore
SplineSet
764 20 m 1,0,1
 857 -167 857 -167 1040 -330 c 1,2,-1
 916 -458 l 1,3,4
 700 -249 700 -249 586 -19 c 1,5,-1
 764 20 l 1,0,1
575 -25 m 128,-1,7
 452 -25 452 -25 356 37.5 c 128,-1,8
 260 100 260 100 201.5 208 c 128,-1,9
 143 316 143 316 113.5 453 c 128,-1,10
 84 590 84 590 84 747 c 0,11,12
 84 865 84 865 99 972 c 128,-1,13
 114 1079 114 1079 150 1180 c 128,-1,14
 186 1281 186 1281 241 1354.5 c 128,-1,15
 296 1428 296 1428 381.5 1472 c 128,-1,16
 467 1516 467 1516 575 1516 c 128,-1,17
 683 1516 683 1516 768.5 1472 c 128,-1,18
 854 1428 854 1428 909 1354.5 c 128,-1,19
 964 1281 964 1281 1000 1180 c 128,-1,20
 1036 1079 1036 1079 1051 972 c 128,-1,21
 1066 865 1066 865 1066 747 c 0,22,23
 1066 590 1066 590 1036.5 453 c 128,-1,24
 1007 316 1007 316 948.5 208 c 128,-1,25
 890 100 890 100 794 37.5 c 128,-1,6
 698 -25 698 -25 575 -25 c 128,-1,7
575 1363 m 128,-1,27
 480 1363 480 1363 412 1279.5 c 128,-1,28
 344 1196 344 1196 312 1059 c 128,-1,29
 280 922 280 922 280 746 c 128,-1,30
 280 570 280 570 312 433 c 128,-1,31
 344 296 344 296 412 213 c 128,-1,32
 480 130 480 130 575 130 c 128,-1,33
 670 130 670 130 738 213 c 128,-1,34
 806 296 806 296 838 433 c 128,-1,35
 870 570 870 570 870 746 c 128,-1,36
 870 922 870 922 838 1059 c 128,-1,37
 806 1196 806 1196 738 1279.5 c 128,-1,26
 670 1363 670 1363 575 1363 c 128,-1,27
EndSplineSet
EndChar

StartChar: R
Encoding: 82 82 83
Width: 1229
GlyphClass: 2
Flags: W
LayerCount: 2
Fore
SplineSet
1115 1093 m 0,0,1
 1115 935 1115 935 1024.5 837.5 c 128,-1,2
 934 740 934 740 784 707 c 1,3,4
 837 658 837 658 883.5 594.5 c 128,-1,5
 930 531 930 531 972.5 450 c 128,-1,6
 1015 369 1015 369 1043 308 c 128,-1,7
 1071 247 1071 247 1114 147 c 128,-1,8
 1157 47 1157 47 1178 0 c 1,9,-1
 961 -1 l 1,10,11
 938 49 938 49 886.5 168.5 c 128,-1,12
 835 288 835 288 805 353 c 128,-1,13
 775 418 775 418 721.5 505 c 128,-1,14
 668 592 668 592 611 653 c 1,15,16
 558 662 558 662 460 662 c 2,17,-1
 373 662 l 1,18,-1
 373 0 l 1,19,-1
 186 0 l 1,20,-1
 186 1491 l 1,21,-1
 476 1491 l 2,22,23
 570 1491 570 1491 644 1485.5 c 128,-1,24
 718 1480 718 1480 794.5 1465 c 128,-1,25
 871 1450 871 1450 926 1421.5 c 128,-1,26
 981 1393 981 1393 1025.5 1350 c 128,-1,27
 1070 1307 1070 1307 1092.5 1242 c 128,-1,28
 1115 1177 1115 1177 1115 1093 c 0,0,1
517 824 m 2,29,30
 907 824 907 824 907 1091 c 0,31,32
 907 1159 907 1159 880 1209.5 c 128,-1,33
 853 1260 853 1260 804.5 1289 c 128,-1,34
 756 1318 756 1318 696 1331.5 c 128,-1,35
 636 1345 636 1345 563 1345 c 2,36,-1
 373 1345 l 1,37,-1
 373 824 l 1,38,-1
 517 824 l 2,29,30
EndSplineSet
EndChar

StartChar: S
Encoding: 83 83 84
Width: 1229
GlyphClass: 2
Flags: W
LayerCount: 2
Fore
SplineSet
212 261 m 1,0,1
 372 130 372 130 593 130 c 0,2,3
 713 130 713 130 778 203.5 c 128,-1,4
 843 277 843 277 843 404 c 0,5,6
 843 441 843 441 833.5 473 c 128,-1,7
 824 505 824 505 810 529 c 128,-1,8
 796 553 796 553 770.5 576 c 128,-1,9
 745 599 745 599 724 613.5 c 128,-1,10
 703 628 703 628 668.5 645 c 128,-1,11
 634 662 634 662 611.5 671 c 128,-1,12
 589 680 589 680 551.5 695 c 128,-1,13
 514 710 514 710 496 718 c 0,14,15
 434 744 434 744 392.5 764.5 c 128,-1,16
 351 785 351 785 301 821 c 128,-1,17
 251 857 251 857 221 896 c 128,-1,18
 191 935 191 935 170.5 993.5 c 128,-1,19
 150 1052 150 1052 150 1123 c 0,20,21
 150 1310 150 1310 277 1413.5 c 128,-1,22
 404 1517 404 1517 604 1517 c 0,23,24
 856 1517 856 1517 997 1406 c 1,25,-1
 927 1262 l 1,26,27
 867 1309 867 1309 786.5 1336 c 128,-1,28
 706 1363 706 1363 614 1363 c 0,29,30
 496 1363 496 1363 426.5 1298.5 c 128,-1,31
 357 1234 357 1234 357 1121 c 0,32,33
 357 1077 357 1077 375 1039.5 c 128,-1,34
 393 1002 393 1002 418 977.5 c 128,-1,35
 443 953 443 953 484.5 929 c 128,-1,36
 526 905 526 905 557 892.5 c 128,-1,37
 588 880 588 880 636 861.5 c 128,-1,38
 684 843 684 843 706 833 c 0,39,40
 766 806 766 806 809 783.5 c 128,-1,41
 852 761 852 761 901.5 723.5 c 128,-1,42
 951 686 951 686 982 645 c 128,-1,43
 1013 604 1013 604 1033.5 544.5 c 128,-1,44
 1054 485 1054 485 1054 415 c 0,45,46
 1054 200 1054 200 929.5 87.5 c 128,-1,47
 805 -25 805 -25 589 -25 c 0,48,49
 320 -25 320 -25 141 94 c 1,50,-1
 212 261 l 1,0,1
EndSplineSet
EndChar

StartChar: T
Encoding: 84 84 85
Width: 1229
GlyphClass: 2
Flags: W
LayerCount: 2
Fore
SplineSet
1199 1491 m 1,0,-1
 1199 1345 l 1,1,-1
 705 1345 l 1,2,-1
 705 0 l 1,3,-1
 518 0 l 1,4,-1
 518 1345 l 1,5,-1
 30 1345 l 1,6,-1
 30 1491 l 1,7,-1
 1199 1491 l 1,0,-1
EndSplineSet
EndChar

StartChar: U
Encoding: 85 85 86
Width: 1229
GlyphClass: 2
Flags: W
LayerCount: 2
Fore
SplineSet
614 -25 m 128,-1,1
 129 -25 129 -25 129 542 c 2,2,-1
 129 1491 l 1,3,-1
 316 1491 l 1,4,-1
 316 548 l 2,5,6
 316 473 316 473 324 413 c 128,-1,7
 332 353 332 353 352 298.5 c 128,-1,8
 372 244 372 244 405 208 c 128,-1,9
 438 172 438 172 491 151 c 128,-1,10
 544 130 544 130 614 130 c 128,-1,11
 684 130 684 130 737 151 c 128,-1,12
 790 172 790 172 823 208 c 128,-1,13
 856 244 856 244 876 298.5 c 128,-1,14
 896 353 896 353 904 413 c 128,-1,15
 912 473 912 473 912 548 c 2,16,-1
 912 1491 l 1,17,-1
 1099 1491 l 1,18,-1
 1099 542 l 2,19,0
 1099 -25 1099 -25 614 -25 c 128,-1,1
EndSplineSet
EndChar

StartChar: V
Encoding: 86 86 87
Width: 1229
GlyphClass: 2
Flags: W
LayerCount: 2
Fore
SplineSet
967 1491 m 1,0,-1
 1172 1491 l 1,1,-1
 722 0 l 1,2,-1
 505 0 l 1,3,-1
 57 1491 l 1,4,-1
 262 1491 l 1,5,-1
 617 223 l 1,6,-1
 967 1491 l 1,0,-1
EndSplineSet
EndChar

StartChar: W
Encoding: 87 87 88
Width: 1229
GlyphClass: 2
Flags: W
LayerCount: 2
Fore
SplineSet
924 210 m 1,0,-1
 1021 1491 l 1,1,-1
 1216 1491 l 1,2,-1
 1058 1 l 1,3,-1
 809 1 l 1,4,-1
 628 703 l 1,5,-1
 425 1 l 1,6,-1
 179 1 l 1,7,-1
 13 1491 l 1,8,-1
 211 1491 l 1,9,-1
 330 213 l 1,10,-1
 522 880 l 1,11,-1
 735 880 l 1,12,-1
 924 210 l 1,0,-1
EndSplineSet
EndChar

StartChar: X
Encoding: 88 88 89
Width: 1229
GlyphClass: 2
Flags: W
LayerCount: 2
Fore
SplineSet
92 1491 m 1,0,-1
 340 1491 l 1,1,-1
 629 892 l 1,2,-1
 941 1491 l 1,3,-1
 1169 1491 l 1,4,-1
 749 763 l 1,5,-1
 1177 0 l 1,6,-1
 933 0 l 1,7,-1
 611 632 l 1,8,-1
 286 0 l 1,9,-1
 52 0 l 1,10,-1
 499 762 l 1,11,-1
 92 1491 l 1,0,-1
EndSplineSet
EndChar

StartChar: Y
Encoding: 89 89 90
Width: 1229
GlyphClass: 2
Flags: W
LayerCount: 2
Fore
SplineSet
715 0 m 1,0,-1
 503 0 l 1,1,-1
 503 593 l 1,2,-1
 49 1491 l 1,3,-1
 275 1491 l 1,4,-1
 610 788 l 1,5,-1
 949 1491 l 1,6,-1
 1180 1491 l 1,7,-1
 715 593 l 1,8,-1
 715 0 l 1,0,-1
EndSplineSet
EndChar

StartChar: Z
Encoding: 90 90 91
Width: 1229
GlyphClass: 2
Flags: W
LayerCount: 2
Fore
SplineSet
343 146 m 1,0,-1
 995 146 l 1,1,-1
 995 0 l 1,2,-1
 102 0 l 1,3,-1
 102 143 l 1,4,-1
 749 1345 l 1,5,-1
 137 1345 l 1,6,-1
 137 1491 l 1,7,-1
 1004 1491 l 1,8,-1
 1004 1364 l 1,9,-1
 343 146 l 1,0,-1
EndSplineSet
EndChar

StartChar: bracketleft
Encoding: 91 91 92
Width: 1229
GlyphClass: 2
Flags: W
LayerCount: 2
Fore
SplineSet
387 -131 m 1,0,-1
 387 1725 l 1,1,2
 388 1729 388 1729 392 1730 c 1,3,-1
 906 1730 l 5,4,5
 910 1729 910 1729 911 1725 c 5,6,-1
 911 1593 l 5,7,8
 910 1589 910 1589 906 1588 c 5,9,-1
 576 1588 l 1,10,-1
 576 6 l 1,11,-1
 907 6 l 5,12,13
 911 5 911 5 912 1 c 5,14,-1
 912 -131 l 5,15,16
 911 -135 911 -135 907 -136 c 5,17,-1
 392 -136 l 1,18,19
 388 -135 388 -135 387 -131 c 1,0,-1
EndSplineSet
EndChar

StartChar: backslash
Encoding: 92 92 93
Width: 1229
GlyphClass: 2
Flags: W
LayerCount: 2
Fore
SplineSet
1100 -48 m 1,0,-1
 920 -48 l 1,1,-1
 211 1761 l 1,2,-1
 395 1761 l 1,3,-1
 1100 -48 l 1,0,-1
EndSplineSet
EndChar

StartChar: bracketright
Encoding: 93 93 94
Width: 1229
GlyphClass: 2
Flags: W
LayerCount: 2
Fore
SplineSet
697 1725 m 1,0,-1
 697 -131 l 1,1,2
 696 -135 696 -135 692 -136 c 1,3,-1
 177 -136 l 5,4,5
 173 -135 173 -135 172 -131 c 5,6,-1
 172 1 l 5,7,8
 173 5 173 5 177 6 c 5,9,-1
 506 6 l 1,10,-1
 506 1588 l 1,11,-1
 180 1588 l 5,12,13
 176 1590 176 1590 175 1593 c 5,14,-1
 172 1725 l 5,15,16
 173 1729 173 1729 177 1730 c 5,17,-1
 692 1730 l 1,18,19
 696 1729 696 1729 697 1725 c 1,0,-1
EndSplineSet
EndChar

StartChar: asciicircum
Encoding: 94 94 95
Width: 1229
GlyphClass: 2
Flags: W
LayerCount: 2
Fore
SplineSet
644 1554 m 1,0,-1
 757 1554 l 1,1,-1
 1296 597 l 1,2,-1
 1125 597 l 1,3,-1
 698 1368 l 1,4,-1
 284 597 l 1,5,-1
 111 597 l 1,6,-1
 644 1554 l 1,0,-1
EndSplineSet
EndChar

StartChar: underscore
Encoding: 95 95 96
Width: 1229
GlyphClass: 2
Flags: W
LayerCount: 2
Fore
SplineSet
4 -296 m 5,0,-1
 4 -157 l 5,1,-1
 1076 -157 l 1,2,-1
 1076 -296 l 1,3,-1
 4 -296 l 5,0,-1
EndSplineSet
EndChar

StartChar: grave
Encoding: 96 96 97
Width: 1229
GlyphClass: 2
Flags: W
LayerCount: 2
Fore
SplineSet
654 1705 m 1,0,-1
 937 1268 l 1,1,-1
 798 1268 l 1,2,-1
 418 1705 l 1,3,-1
 654 1705 l 1,0,-1
EndSplineSet
EndChar

StartChar: a
Encoding: 97 97 98
Width: 1229
GlyphClass: 2
Flags: W
LayerCount: 2
Fore
SplineSet
536 -25 m 0,0,1
 380 -25 380 -25 278.5 55.5 c 128,-1,2
 177 136 177 136 177 280 c 0,3,4
 177 337 177 337 193 382.5 c 128,-1,5
 209 428 209 428 235 459 c 128,-1,6
 261 490 261 490 303 513 c 128,-1,7
 345 536 345 536 389 549.5 c 128,-1,8
 433 563 433 563 493 570.5 c 128,-1,9
 553 578 553 578 607 580.5 c 128,-1,10
 661 583 661 583 730 583 c 2,11,-1
 876 583 l 1,12,-1
 876 756 l 2,13,14
 876 998 876 998 636 998 c 0,15,16
 438 998 438 998 272 914 c 1,17,-1
 228 1055 l 1,18,19
 406 1130 406 1130 655 1130 c 0,20,21
 838 1130 838 1130 948 1047 c 128,-1,22
 1058 964 1058 964 1058 791 c 2,23,-1
 1058 0 l 1,24,-1
 899 0 l 1,25,-1
 875 84 l 1,26,27
 691 -25 691 -25 536 -25 c 0,0,1
542 108 m 0,28,29
 675 108 675 108 876 187 c 1,30,-1
 876 468 l 1,31,-1
 727 468 l 2,32,33
 678 468 678 468 643.5 466.5 c 128,-1,34
 609 465 609 465 561 460 c 128,-1,35
 513 455 513 455 480.5 443 c 128,-1,36
 448 431 448 431 417 412 c 128,-1,37
 386 393 386 393 370.5 361.5 c 128,-1,38
 355 330 355 330 355 289 c 0,39,40
 355 205 355 205 405 156.5 c 128,-1,41
 455 108 455 108 542 108 c 0,28,29
EndSplineSet
EndChar

StartChar: b
Encoding: 98 98 99
Width: 1229
GlyphClass: 2
Flags: W
LayerCount: 2
Fore
SplineSet
310 946 m 1,0,1
 368 1036 368 1036 448 1083 c 128,-1,2
 528 1130 528 1130 652 1130 c 0,3,4
 765 1130 765 1130 853.5 1086 c 128,-1,5
 942 1042 942 1042 997.5 965 c 128,-1,6
 1053 888 1053 888 1082 787 c 128,-1,7
 1111 686 1111 686 1111 568 c 0,8,9
 1111 445 1111 445 1083.5 340 c 128,-1,10
 1056 235 1056 235 1002 152 c 128,-1,11
 948 69 948 69 858.5 22 c 128,-1,12
 769 -25 769 -25 653 -25 c 0,13,14
 535 -25 535 -25 454.5 20.5 c 128,-1,15
 374 66 374 66 310 150 c 1,16,-1
 308 0 l 1,17,-1
 128 0 l 1,18,-1
 128 1565 l 1,19,-1
 310 1565 l 1,20,-1
 310 946 l 1,0,1
310 555 m 0,21,22
 310 462 310 462 327 386 c 128,-1,23
 344 310 344 310 380 247.5 c 128,-1,24
 416 185 416 185 480 150.5 c 128,-1,25
 544 116 544 116 631 116 c 0,26,27
 698 116 698 116 750 141.5 c 128,-1,28
 802 167 802 167 835 208.5 c 128,-1,29
 868 250 868 250 889.5 308.5 c 128,-1,30
 911 367 911 367 919.5 427 c 128,-1,31
 928 487 928 487 928 555 c 0,32,33
 928 990 928 990 631 990 c 0,34,35
 310 990 310 990 310 555 c 0,21,22
EndSplineSet
EndChar

StartChar: c
Encoding: 99 99 100
Width: 1229
GlyphClass: 2
Flags: W
LayerCount: 2
Fore
SplineSet
330 557 m 0,0,1
 330 350 330 350 420 232.5 c 128,-1,2
 510 115 510 115 694 115 c 0,3,4
 868 115 868 115 998 210 c 1,5,-1
 1067 85 l 1,6,7
 920 -25 920 -25 680 -25 c 0,8,9
 415 -25 415 -25 266.5 131 c 128,-1,10
 118 287 118 287 118 556 c 0,11,12
 118 818 118 818 269 974 c 128,-1,13
 420 1130 420 1130 680 1130 c 0,14,15
 915 1130 915 1130 1067 1020 c 1,16,-1
 998 873 l 1,17,18
 866 990 866 990 691 990 c 0,19,20
 509 990 509 990 419.5 875 c 128,-1,21
 330 760 330 760 330 557 c 0,0,1
EndSplineSet
EndChar

StartChar: d
Encoding: 100 100 101
Width: 1229
GlyphClass: 2
Flags: W
LayerCount: 2
Fore
SplineSet
919 946 m 1,0,-1
 919 1565 l 1,1,-1
 1101 1565 l 1,2,-1
 1101 0 l 1,3,-1
 921 0 l 1,4,-1
 919 150 l 1,5,6
 855 66 855 66 774.5 20.5 c 128,-1,7
 694 -25 694 -25 576 -25 c 0,8,9
 460 -25 460 -25 370.5 22 c 128,-1,10
 281 69 281 69 227 152 c 128,-1,11
 173 235 173 235 145.5 340 c 128,-1,12
 118 445 118 445 118 568 c 0,13,14
 118 686 118 686 147 787 c 128,-1,15
 176 888 176 888 231.5 965 c 128,-1,16
 287 1042 287 1042 375.5 1086 c 128,-1,17
 464 1130 464 1130 577 1130 c 0,18,19
 701 1130 701 1130 781 1083 c 128,-1,20
 861 1036 861 1036 919 946 c 1,0,-1
919 555 m 0,21,22
 919 990 919 990 598 990 c 0,23,24
 301 990 301 990 301 555 c 0,25,26
 301 487 301 487 309.5 426.5 c 128,-1,27
 318 366 318 366 339.5 308 c 128,-1,28
 361 250 361 250 394 208 c 128,-1,29
 427 166 427 166 479 140.5 c 128,-1,30
 531 115 531 115 598 115 c 0,31,32
 685 115 685 115 749 150 c 128,-1,33
 813 185 813 185 849 247.5 c 128,-1,34
 885 310 885 310 902 386 c 128,-1,35
 919 462 919 462 919 555 c 0,21,22
EndSplineSet
EndChar

StartChar: e
Encoding: 101 101 102
Width: 1229
GlyphClass: 2
Flags: W
LayerCount: 2
Fore
SplineSet
870 653 m 5,0,1
 866 722 866 722 852 780 c 132,-1,2
 838 838 838 838 811 886.5 c 132,-1,3
 784 935 784 935 739 962.5 c 132,-1,4
 694 990 694 990 634 990 c 4,5,6
 564 990 564 990 509 963 c 132,-1,7
 454 936 454 936 419 888 c 132,-1,8
 384 840 384 840 362.5 781.5 c 132,-1,9
 341 723 341 723 333 653 c 5,10,-1
 870 653 l 5,0,1
1022 125 m 5,11,12
 940 51 940 51 845.5 13 c 132,-1,13
 751 -25 751 -25 619 -25 c 4,14,15
 505 -25 505 -25 413 20.5 c 132,-1,16
 321 66 321 66 263 145.5 c 132,-1,17
 205 225 205 225 174 329.5 c 132,-1,18
 143 434 143 434 143 555 c 4,19,20
 143 815 143 815 279.5 972.5 c 132,-1,21
 416 1130 416 1130 634 1130 c 4,22,23
 734 1130 734 1130 813 1086.5 c 132,-1,24
 892 1043 892 1043 942 967.5 c 132,-1,25
 992 892 992 892 1018 793.5 c 132,-1,26
 1044 695 1044 695 1044 581 c 5,27,-1
 1043 520 l 5,28,-1
 327 520 l 5,29,30
 332 403 332 403 365 314 c 132,-1,31
 398 225 398 225 466.5 170 c 132,-1,32
 535 115 535 115 632 115 c 4,33,34
 814 115 814 115 942 249 c 5,35,-1
 1022 125 l 5,11,12
EndSplineSet
EndChar

StartChar: f
Encoding: 102 102 103
Width: 1229
GlyphClass: 2
Flags: W
LayerCount: 2
Fore
SplineSet
942 1424 m 2,0,1
 867 1424 867 1424 821 1415.5 c 128,-1,2
 775 1407 775 1407 741.5 1382.5 c 128,-1,3
 708 1358 708 1358 694.5 1314.5 c 128,-1,4
 681 1271 681 1271 681 1200 c 2,5,-1
 681 1097 l 1,6,-1
 1140 1097 l 1,7,-1
 1140 957 l 1,8,-1
 681 957 l 1,9,-1
 681 140 l 1,10,-1
 1036 140 l 1,11,-1
 1036 0 l 1,12,-1
 180 0 l 1,13,-1
 180 140 l 1,14,-1
 499 140 l 1,15,-1
 499 957 l 1,16,-1
 156 957 l 1,17,-1
 156 1097 l 1,18,-1
 499 1097 l 1,19,20
 499 1176 499 1176 502.5 1230.5 c 128,-1,21
 506 1285 506 1285 517 1340.5 c 128,-1,22
 528 1396 528 1396 549 1431 c 128,-1,23
 570 1466 570 1466 604 1498 c 128,-1,24
 638 1530 638 1530 688 1547.5 c 128,-1,25
 738 1565 738 1565 806.5 1575 c 128,-1,26
 875 1585 875 1585 966 1585 c 2,27,-1
 1140 1585 l 1,28,-1
 1140 1424 l 1,29,-1
 942 1424 l 2,0,1
EndSplineSet
EndChar

StartChar: g
Encoding: 103 103 104
Width: 1229
GlyphClass: 2
Flags: W
LayerCount: 2
Fore
SplineSet
599 990 m 0,0,1
 301 990 301 990 301 550 c 0,2,3
 301 475 301 475 317 408.5 c 128,-1,4
 333 342 333 342 366 285.5 c 128,-1,5
 399 229 399 229 457 195.5 c 128,-1,6
 515 162 515 162 591 162 c 0,7,8
 675 162 675 162 737 195.5 c 128,-1,9
 799 229 799 229 833 287 c 128,-1,10
 867 345 867 345 882.5 411.5 c 128,-1,11
 898 478 898 478 898 556 c 0,12,13
 898 990 898 990 599 990 c 0,0,1
898 210 m 1,14,15
 865 125 865 125 775 62.5 c 128,-1,16
 685 0 685 0 575 0 c 0,17,18
 463 0 463 0 374.5 44 c 128,-1,19
 286 88 286 88 231 164.5 c 128,-1,20
 176 241 176 241 147 341 c 128,-1,21
 118 441 118 441 118 556 c 0,22,23
 118 722 118 722 167 849 c 128,-1,24
 216 976 216 976 321.5 1053 c 128,-1,25
 427 1130 427 1130 579 1130 c 0,26,27
 787 1130 787 1130 898 948 c 1,28,-1
 904 1097 l 1,29,-1
 1089 1097 l 1,30,31
 1080 852 1080 852 1080 446 c 2,32,-1
 1080 152 l 2,33,34
 1080 -28 1080 -28 1044 -142.5 c 128,-1,35
 1008 -257 1008 -257 917.5 -330 c 128,-1,36
 827 -403 827 -403 684.5 -432 c 128,-1,37
 542 -461 542 -461 317 -461 c 1,38,-1
 317 -321 l 1,39,40
 429 -321 429 -321 507.5 -314 c 128,-1,41
 586 -307 586 -307 655 -288 c 128,-1,42
 724 -269 724 -269 767 -237 c 128,-1,43
 810 -205 810 -205 841 -153.5 c 128,-1,44
 872 -102 872 -102 885 -31 c 128,-1,45
 898 40 898 40 898 137 c 2,46,-1
 898 210 l 1,14,15
EndSplineSet
EndChar

StartChar: h
Encoding: 104 104 105
Width: 1229
GlyphClass: 2
Flags: W
LayerCount: 2
Fore
SplineSet
680 1130 m 0,0,1
 772 1130 772 1130 839 1096 c 128,-1,2
 906 1062 906 1062 945.5 998.5 c 128,-1,3
 985 935 985 935 1003.5 851.5 c 128,-1,4
 1022 768 1022 768 1022 662 c 2,5,-1
 1022 0 l 1,6,-1
 840 0 l 1,7,-1
 840 639 l 2,8,9
 840 701 840 701 836 747 c 128,-1,10
 832 793 832 793 819.5 841.5 c 128,-1,11
 807 890 807 890 785.5 920.5 c 128,-1,12
 764 951 764 951 726 970.5 c 128,-1,13
 688 990 688 990 636 990 c 0,14,15
 573 990 573 990 515.5 960.5 c 128,-1,16
 458 931 458 931 421.5 889 c 128,-1,17
 385 847 385 847 363.5 804.5 c 128,-1,18
 342 762 342 762 342 733 c 2,19,-1
 342 0 l 1,20,-1
 160 0 l 1,21,-1
 160 1565 l 1,22,-1
 342 1565 l 1,23,-1
 342 951 l 1,24,25
 375 994 375 994 402 1021.5 c 128,-1,26
 429 1049 429 1049 469 1076.5 c 128,-1,27
 509 1104 509 1104 561.5 1117 c 128,-1,28
 614 1130 614 1130 680 1130 c 0,0,1
EndSplineSet
EndChar

StartChar: i
Encoding: 105 105 106
Width: 1229
GlyphClass: 2
Flags: W
LayerCount: 2
Fore
SplineSet
266 957 m 1,0,-1
 266 1097 l 1,1,-1
 788 1097 l 1,2,-1
 788 140 l 1,3,-1
 1185 140 l 1,4,-1
 1185 0 l 1,5,-1
 197 0 l 1,6,-1
 197 140 l 1,7,-1
 606 140 l 1,8,-1
 606 957 l 1,9,-1
 266 957 l 1,0,-1
524 1351 m 1,10,-1
 524 1620 l 1,11,-1
 770 1620 l 1,12,-1
 770 1351 l 1,13,-1
 524 1351 l 1,10,-1
EndSplineSet
EndChar

StartChar: j
Encoding: 106 106 107
Width: 1229
GlyphClass: 2
Flags: W
LayerCount: 2
Fore
SplineSet
410 -220 m 2,0,1
 459 -220 459 -220 490.5 -216 c 128,-1,2
 522 -212 522 -212 547 -199 c 128,-1,3
 572 -186 572 -186 585.5 -167.5 c 128,-1,4
 599 -149 599 -149 607.5 -113.5 c 128,-1,5
 616 -78 616 -78 618.5 -36.5 c 128,-1,6
 621 5 621 5 621 71 c 2,7,-1
 621 957 l 1,8,-1
 136 957 l 1,9,-1
 136 1097 l 1,10,-1
 803 1097 l 1,11,-1
 803 127 l 2,12,13
 803 45 803 45 801 -4 c 128,-1,14
 799 -53 799 -53 791 -111.5 c 128,-1,15
 783 -170 783 -170 767 -202.5 c 128,-1,16
 751 -235 751 -235 723 -270 c 128,-1,17
 695 -305 695 -305 653 -321.5 c 128,-1,18
 611 -338 611 -338 551 -349 c 128,-1,19
 491 -360 491 -360 411 -360 c 2,20,-1
 135 -360 l 1,21,-1
 135 -220 l 1,22,-1
 410 -220 l 2,0,1
542 1351 m 5,23,-1
 542 1620 l 5,24,-1
 784 1620 l 5,25,-1
 784 1351 l 5,26,-1
 542 1351 l 5,23,-1
EndSplineSet
EndChar

StartChar: k
Encoding: 107 107 108
Width: 1229
GlyphClass: 2
Flags: W
LayerCount: 2
Fore
SplineSet
397 648 m 1,0,-1
 886 1097 l 1,1,-1
 1126 1097 l 1,2,-1
 639 641 l 1,3,-1
 1135 0 l 1,4,-1
 907 0 l 1,5,-1
 509 546 l 1,6,-1
 397 451 l 1,7,-1
 397 0 l 1,8,-1
 215 0 l 1,9,-1
 215 1565 l 1,10,-1
 397 1565 l 1,11,-1
 397 648 l 1,0,-1
EndSplineSet
EndChar

StartChar: l
Encoding: 108 108 109
Width: 1229
GlyphClass: 2
Flags: W
LayerCount: 2
Fore
SplineSet
195 1425 m 1,0,-1
 195 1565 l 1,1,-1
 788 1565 l 1,2,-1
 788 140 l 1,3,-1
 1259 140 l 1,4,-1
 1259 0 l 1,5,-1
 125 0 l 1,6,-1
 125 140 l 1,7,-1
 606 140 l 1,8,-1
 606 1425 l 1,9,-1
 195 1425 l 1,0,-1
EndSplineSet
EndChar

StartChar: m
Encoding: 109 109 110
Width: 1229
GlyphClass: 2
Flags: W
LayerCount: 2
Fore
SplineSet
848 990 m 0,0,1
 806 990 806 990 776 960 c 128,-1,2
 746 930 746 930 732 879.5 c 128,-1,3
 718 829 718 829 712 781 c 128,-1,4
 706 733 706 733 706 680 c 2,5,-1
 706 0 l 1,6,-1
 536 0 l 1,7,-1
 536 638 l 2,8,9
 536 990 536 990 425 990 c 0,10,11
 375 990 375 990 337 946 c 128,-1,12
 299 902 299 902 282 842 c 128,-1,13
 265 782 265 782 265 721 c 2,14,-1
 265 0 l 1,15,-1
 89 0 l 1,16,-1
 89 1097 l 1,17,-1
 241 1097 l 1,18,-1
 254 932 l 1,19,20
 282 1009 282 1009 337.5 1069.5 c 128,-1,21
 393 1130 393 1130 464 1130 c 0,22,23
 510 1130 510 1130 544.5 1113 c 128,-1,24
 579 1096 579 1096 601.5 1063.5 c 128,-1,25
 624 1031 624 1031 637 998 c 128,-1,26
 650 965 650 965 661 920 c 1,27,28
 681 961 681 961 691.5 980.5 c 128,-1,29
 702 1000 702 1000 726 1034 c 128,-1,30
 750 1068 750 1068 772.5 1085 c 128,-1,31
 795 1102 795 1102 830 1116 c 128,-1,32
 865 1130 865 1130 906 1130 c 0,33,34
 966 1130 966 1130 1011.5 1105 c 128,-1,35
 1057 1080 1057 1080 1083.5 1041 c 128,-1,36
 1110 1002 1110 1002 1126.5 944 c 128,-1,37
 1143 886 1143 886 1148.5 829 c 128,-1,38
 1154 772 1154 772 1154 703 c 2,39,-1
 1154 0 l 1,40,-1
 978 0 l 1,41,-1
 978 602 l 2,42,43
 978 648 978 648 977 681 c 128,-1,44
 976 714 976 714 972.5 764.5 c 128,-1,45
 969 815 969 815 960 850 c 128,-1,46
 951 885 951 885 937.5 919.5 c 128,-1,47
 924 954 924 954 901 972 c 128,-1,48
 878 990 878 990 848 990 c 0,0,1
EndSplineSet
EndChar

StartChar: n
Encoding: 110 110 111
Width: 1229
GlyphClass: 2
Flags: W
LayerCount: 2
Fore
SplineSet
715 1130 m 4,0,1
 1056 1130 1056 1130 1056 698 c 6,2,-1
 1056 0 l 5,3,-1
 874 0 l 5,4,-1
 874 640 l 6,5,6
 874 644 874 644 874 653 c 4,7,8
 874 692 874 692 874 711 c 132,-1,9
 874 730 874 730 872 764.5 c 132,-1,10
 870 799 870 799 866 817.5 c 132,-1,11
 862 836 862 836 854.5 864 c 132,-1,12
 847 892 847 892 836 907 c 132,-1,13
 825 922 825 922 808 940.5 c 132,-1,14
 791 959 791 959 769 968 c 132,-1,15
 747 977 747 977 717.5 983.5 c 132,-1,16
 688 990 688 990 651 990 c 4,17,18
 545 990 545 990 472 918.5 c 132,-1,19
 399 847 399 847 399 732 c 6,20,-1
 399 0 l 5,21,-1
 217 0 l 5,22,-1
 217 1097 l 5,23,-1
 384 1097 l 5,24,-1
 394 958 l 5,25,26
 451 1037 451 1037 526 1083.5 c 132,-1,27
 601 1130 601 1130 715 1130 c 4,0,1
EndSplineSet
EndChar

StartChar: o
Encoding: 111 111 112
Width: 1229
GlyphClass: 2
Flags: W
LayerCount: 2
Fore
SplineSet
612 1130 m 0,0,1
 772 1130 772 1130 886 1054 c 128,-1,2
 1000 978 1000 978 1055 850.5 c 128,-1,3
 1110 723 1110 723 1110 558 c 0,4,5
 1110 297 1110 297 972.5 136 c 128,-1,6
 835 -25 835 -25 612 -25 c 0,7,8
 494 -25 494 -25 399 20 c 128,-1,9
 304 65 304 65 243.5 143.5 c 128,-1,10
 183 222 183 222 150.5 326 c 128,-1,11
 118 430 118 430 118 551 c 0,12,13
 118 811 118 811 254 970.5 c 128,-1,14
 390 1130 390 1130 612 1130 c 0,0,1
302 550 m 128,-1,16
 302 466 302 466 319 391.5 c 128,-1,17
 336 317 336 317 371 253.5 c 128,-1,18
 406 190 406 190 468 152.5 c 128,-1,19
 530 115 530 115 612 115 c 0,20,21
 697 115 697 115 760 152 c 128,-1,22
 823 189 823 189 858.5 253 c 128,-1,23
 894 317 894 317 911 392 c 128,-1,24
 928 467 928 467 928 553 c 0,25,26
 928 621 928 621 918 682 c 128,-1,27
 908 743 908 743 884.5 800 c 128,-1,28
 861 857 861 857 825.5 898.5 c 128,-1,29
 790 940 790 940 735 965 c 128,-1,30
 680 990 680 990 612 990 c 0,31,32
 530 990 530 990 468 952 c 128,-1,33
 406 914 406 914 371 849.5 c 128,-1,34
 336 785 336 785 319 709.5 c 128,-1,15
 302 634 302 634 302 550 c 128,-1,16
EndSplineSet
EndChar

StartChar: p
Encoding: 112 112 113
Width: 1229
GlyphClass: 2
Flags: W
LayerCount: 2
Fore
SplineSet
310 946 m 1,0,1
 368 1036 368 1036 448 1083 c 128,-1,2
 528 1130 528 1130 652 1130 c 0,3,4
 765 1130 765 1130 853.5 1086 c 128,-1,5
 942 1042 942 1042 997.5 965 c 128,-1,6
 1053 888 1053 888 1082 787 c 128,-1,7
 1111 686 1111 686 1111 568 c 0,8,9
 1111 445 1111 445 1083.5 340 c 128,-1,10
 1056 235 1056 235 1002 152 c 128,-1,11
 948 69 948 69 858.5 22 c 128,-1,12
 769 -25 769 -25 653 -25 c 0,13,14
 535 -25 535 -25 454.5 20.5 c 128,-1,15
 374 66 374 66 310 150 c 1,16,-1
 308 -441 l 1,17,-1
 128 -441 l 1,18,-1
 128 1097 l 1,19,-1
 310 1097 l 1,20,-1
 310 946 l 1,0,1
310 555 m 0,21,22
 310 462 310 462 327 386 c 128,-1,23
 344 310 344 310 380 247.5 c 128,-1,24
 416 185 416 185 480 150 c 128,-1,25
 544 115 544 115 631 115 c 0,26,27
 698 115 698 115 750 140.5 c 128,-1,28
 802 166 802 166 835 208 c 128,-1,29
 868 250 868 250 889.5 308 c 128,-1,30
 911 366 911 366 919.5 426.5 c 128,-1,31
 928 487 928 487 928 555 c 0,32,33
 928 990 928 990 631 990 c 0,34,35
 310 990 310 990 310 555 c 0,21,22
EndSplineSet
EndChar

StartChar: q
Encoding: 113 113 114
Width: 1229
GlyphClass: 2
Flags: W
LayerCount: 2
Fore
SplineSet
919 946 m 1,0,-1
 919 1097 l 1,1,-1
 1101 1097 l 1,2,-1
 1101 -441 l 1,3,-1
 921 -441 l 1,4,-1
 919 150 l 1,5,6
 855 66 855 66 774.5 20.5 c 128,-1,7
 694 -25 694 -25 576 -25 c 0,8,9
 460 -25 460 -25 370.5 22 c 128,-1,10
 281 69 281 69 227 152 c 128,-1,11
 173 235 173 235 145.5 340 c 128,-1,12
 118 445 118 445 118 568 c 0,13,14
 118 686 118 686 147 787 c 128,-1,15
 176 888 176 888 231.5 965 c 128,-1,16
 287 1042 287 1042 375.5 1086 c 128,-1,17
 464 1130 464 1130 577 1130 c 0,18,19
 701 1130 701 1130 781 1083 c 128,-1,20
 861 1036 861 1036 919 946 c 1,0,-1
919 555 m 0,21,22
 919 990 919 990 598 990 c 0,23,24
 301 990 301 990 301 555 c 0,25,26
 301 487 301 487 309.5 426.5 c 128,-1,27
 318 366 318 366 339.5 308 c 128,-1,28
 361 250 361 250 394 208 c 128,-1,29
 427 166 427 166 479 140.5 c 128,-1,30
 531 115 531 115 598 115 c 0,31,32
 685 115 685 115 749 150 c 128,-1,33
 813 185 813 185 849 247.5 c 128,-1,34
 885 310 885 310 902 386 c 128,-1,35
 919 462 919 462 919 555 c 0,21,22
EndSplineSet
EndChar

StartChar: r
Encoding: 114 114 115
Width: 1229
GlyphClass: 2
Flags: W
LayerCount: 2
Fore
SplineSet
1026 961 m 2,0,1
 853 961 853 961 757.5 874 c 128,-1,2
 662 787 662 787 662 610 c 2,3,-1
 662 140 l 1,4,-1
 1051 140 l 1,5,-1
 1051 0 l 1,6,-1
 140 0 l 1,7,-1
 140 140 l 1,8,-1
 480 140 l 1,9,-1
 480 957 l 1,10,-1
 306 957 l 1,11,-1
 306 1097 l 1,12,-1
 629 1097 l 1,13,-1
 644 894 l 1,14,15
 781 1130 781 1130 1052 1130 c 2,16,-1
 1189 1130 l 5,17,-1
 1189 961 l 1,18,-1
 1026 961 l 2,0,1
EndSplineSet
EndChar

StartChar: s
Encoding: 115 115 116
Width: 1229
GlyphClass: 2
Flags: W
LayerCount: 2
Fore
SplineSet
621 136 m 0,0,1
 678 136 678 136 721.5 143 c 128,-1,2
 765 150 765 150 804 167.5 c 128,-1,3
 843 185 843 185 863.5 219.5 c 128,-1,4
 884 254 884 254 884 304 c 0,5,6
 884 338 884 338 866.5 366 c 128,-1,7
 849 394 849 394 824.5 410.5 c 128,-1,8
 800 427 800 427 759.5 442.5 c 128,-1,9
 719 458 719 458 689.5 465 c 128,-1,10
 660 472 660 472 614.5 481.5 c 128,-1,11
 569 491 569 491 550 496 c 0,12,13
 493 511 493 511 450 526 c 128,-1,14
 407 541 407 541 360.5 567.5 c 128,-1,15
 314 594 314 594 284.5 626.5 c 128,-1,16
 255 659 255 659 235.5 708.5 c 128,-1,17
 216 758 216 758 216 819 c 0,18,19
 216 897 216 897 250 958 c 128,-1,20
 284 1019 284 1019 342 1055.5 c 128,-1,21
 400 1092 400 1092 473 1111 c 128,-1,22
 546 1130 546 1130 628 1130 c 0,23,24
 881 1130 881 1130 1031 1061 c 1,25,-1
 973 914 l 1,26,27
 836 990 836 990 637 990 c 0,28,29
 547 990 547 990 487 950.5 c 128,-1,30
 427 911 427 911 427 825 c 0,31,32
 427 790 427 790 444.5 761.5 c 128,-1,33
 462 733 462 733 486 716 c 128,-1,34
 510 699 510 699 550 684 c 128,-1,35
 590 669 590 669 620 662 c 128,-1,36
 650 655 650 655 695.5 645 c 128,-1,37
 741 635 741 635 761 630 c 0,38,39
 821 614 821 614 861 600.5 c 128,-1,40
 901 587 901 587 949.5 561.5 c 128,-1,41
 998 536 998 536 1026.5 506 c 128,-1,42
 1055 476 1055 476 1075 427.5 c 128,-1,43
 1095 379 1095 379 1095 319 c 0,44,45
 1095 231 1095 231 1057.5 163.5 c 128,-1,46
 1020 96 1020 96 955.5 55.5 c 128,-1,47
 891 15 891 15 810 -5 c 128,-1,48
 729 -25 729 -25 636 -25 c 0,49,50
 343 -25 343 -25 203 76 c 1,51,-1
 261 231 l 1,52,53
 395 136 395 136 621 136 c 0,0,1
EndSplineSet
EndChar

StartChar: t
Encoding: 116 116 117
Width: 1229
GlyphClass: 2
Flags: W
LayerCount: 2
Fore
SplineSet
681 957 m 1,0,-1
 681 442 l 2,1,2
 681 355 681 355 698.5 297 c 128,-1,3
 716 239 716 239 755.5 204 c 128,-1,4
 795 169 795 169 852.5 154.5 c 128,-1,5
 910 140 910 140 995 140 c 2,6,-1
 1182 140 l 1,7,-1
 1182 0 l 1,8,-1
 1002 0 l 2,9,10
 853 0 853 0 757.5 25 c 128,-1,11
 662 50 662 50 603.5 111 c 128,-1,12
 545 172 545 172 522 263.5 c 128,-1,13
 499 355 499 355 499 498 c 2,14,-1
 499 957 l 1,15,-1
 209 957 l 1,16,-1
 209 1097 l 1,17,-1
 499 1097 l 1,18,-1
 499 1475 l 1,19,-1
 681 1529 l 1,20,-1
 681 1097 l 1,21,-1
 1171 1097 l 1,22,-1
 1171 957 l 1,23,-1
 681 957 l 1,0,-1
EndSplineSet
EndChar

StartChar: u
Encoding: 117 117 118
Width: 1229
GlyphClass: 2
Flags: W
LayerCount: 2
Fore
SplineSet
558 0 m 0,0,1
 217 0 217 0 217 432 c 2,2,-1
 217 1130 l 1,3,-1
 399 1130 l 1,4,-1
 399 490 l 2,5,6
 399 486 399 486 399 477 c 0,7,8
 399 438 399 438 399 419 c 128,-1,9
 399 400 399 400 401 365.5 c 128,-1,10
 403 331 403 331 407 312.5 c 128,-1,11
 411 294 411 294 418.5 266 c 128,-1,12
 426 238 426 238 437 223 c 128,-1,13
 448 208 448 208 465 189.5 c 128,-1,14
 482 171 482 171 504 162 c 128,-1,15
 526 153 526 153 555.5 146.5 c 128,-1,16
 585 140 585 140 622 140 c 0,17,18
 728 140 728 140 801 211.5 c 128,-1,19
 874 283 874 283 874 398 c 2,20,-1
 874 1130 l 1,21,-1
 1056 1130 l 1,22,-1
 1056 33 l 1,23,-1
 889 33 l 1,24,-1
 879 172 l 1,25,26
 822 93 822 93 747 46.5 c 128,-1,27
 672 0 672 0 558 0 c 0,0,1
EndSplineSet
EndChar

StartChar: v
Encoding: 118 118 119
Width: 1229
GlyphClass: 2
Flags: W
LayerCount: 2
Fore
SplineSet
618 189 m 1,0,1
 705 426 705 426 939 1097 c 1,2,-1
 1141 1097 l 1,3,-1
 714 0 l 1,4,-1
 511 0 l 1,5,-1
 87 1097 l 1,6,-1
 297 1097 l 1,7,-1
 618 189 l 1,0,1
EndSplineSet
EndChar

StartChar: w
Encoding: 119 119 120
Width: 1229
GlyphClass: 2
Flags: W
LayerCount: 2
Fore
SplineSet
432 0 m 1,0,-1
 246 0 l 1,1,-1
 24 1097 l 1,2,-1
 207 1097 l 1,3,-1
 346 220 l 1,4,-1
 521 1097 l 1,5,-1
 738 1097 l 1,6,-1
 897 223 l 1,7,-1
 1032 1097 l 1,8,-1
 1204 1097 l 1,9,-1
 983 0 l 1,10,-1
 791 0 l 1,11,-1
 628 883 l 1,12,-1
 432 0 l 1,0,-1
EndSplineSet
EndChar

StartChar: x
Encoding: 120 120 121
Width: 1229
GlyphClass: 2
Flags: W
LayerCount: 2
Fore
SplineSet
158 1097 m 1,0,-1
 366 1097 l 1,1,-1
 627 675 l 1,2,-1
 888 1097 l 1,3,-1
 1077 1097 l 1,4,-1
 740 565 l 1,5,-1
 1089 0 l 1,6,-1
 887 0 l 1,7,-1
 619 437 l 1,8,-1
 340 0 l 1,9,-1
 140 0 l 1,10,-1
 500 560 l 1,11,-1
 158 1097 l 1,0,-1
EndSplineSet
EndChar

StartChar: y
Encoding: 121 121 122
Width: 1229
GlyphClass: 2
Flags: W
LayerCount: 2
Fore
SplineSet
652 205 m 1,0,-1
 983 1097 l 1,1,-1
 1184 1097 l 1,2,3
 843 254 843 254 753 16 c 1,4,-1
 753 17 l 1,5,6
 750 11 750 11 730 -58 c 0,7,8
 704 -151 704 -151 652 -217.5 c 128,-1,9
 600 -284 600 -284 524 -325 c 128,-1,10
 448 -366 448 -366 361 -388.5 c 128,-1,11
 274 -411 274 -411 160 -423 c 1,12,-1
 160 -267 l 1,13,14
 233 -259 233 -259 281.5 -250.5 c 128,-1,15
 330 -242 330 -242 383.5 -222 c 128,-1,16
 437 -202 437 -202 469 -172 c 128,-1,17
 501 -142 501 -142 523.5 -92.5 c 128,-1,18
 546 -43 546 -43 549 24 c 1,19,20
 410 343 410 343 296.5 611 c 128,-1,21
 183 879 183 879 138 988 c 2,22,-1
 94 1097 l 1,23,-1
 312 1097 l 1,24,-1
 652 205 l 1,0,-1
EndSplineSet
EndChar

StartChar: z
Encoding: 122 122 123
Width: 1229
GlyphClass: 2
Flags: W
LayerCount: 2
Fore
SplineSet
213 1097 m 1,0,-1
 980 1097 l 1,1,-1
 980 959 l 1,2,-1
 402 140 l 1,3,-1
 1017 140 l 1,4,-1
 1017 0 l 1,5,-1
 193 0 l 1,6,-1
 193 142 l 1,7,-1
 752 957 l 1,8,-1
 213 957 l 1,9,-1
 213 1097 l 1,0,-1
EndSplineSet
EndChar

StartChar: braceleft
Encoding: 123 123 124
Width: 1229
GlyphClass: 2
Flags: W
LayerCount: 2
Fore
SplineSet
514 455 m 2,0,1
 514 572 514 572 433.5 636.5 c 128,-1,2
 353 701 353 701 225 709 c 1,3,-1
 225 844 l 1,4,5
 354 852 354 852 434 916 c 128,-1,6
 514 980 514 980 514 1097 c 2,7,-1
 514 1330 l 2,8,9
 514 1527 514 1527 596.5 1617 c 128,-1,10
 679 1707 679 1707 873 1706 c 2,11,-1
 1101 1705 l 1,12,-1
 1101 1569 l 1,13,-1
 873 1569 l 2,14,15
 841 1569 841 1569 817.5 1561 c 128,-1,16
 794 1553 794 1553 779.5 1535.5 c 128,-1,17
 765 1518 765 1518 756 1499 c 128,-1,18
 747 1480 747 1480 742.5 1449 c 128,-1,19
 738 1418 738 1418 737 1393.5 c 128,-1,20
 736 1369 736 1369 736 1330 c 2,21,-1
 736 1089 l 2,22,23
 736 1031 736 1031 724 985.5 c 128,-1,24
 712 940 712 940 693 909.5 c 128,-1,25
 674 879 674 879 640 853.5 c 128,-1,26
 606 828 606 828 573.5 812 c 128,-1,27
 541 796 541 796 490 776 c 1,28,29
 541 756 541 756 573.5 740 c 128,-1,30
 606 724 606 724 640 698.5 c 128,-1,31
 674 673 674 673 693 643 c 128,-1,32
 712 613 712 613 724 567.5 c 128,-1,33
 736 522 736 522 736 464 c 2,34,-1
 736 223 l 2,35,36
 736 176 736 176 737.5 147 c 128,-1,37
 739 118 739 118 746.5 83 c 128,-1,38
 754 48 754 48 768.5 29 c 128,-1,39
 783 10 783 10 809 -3.5 c 128,-1,40
 835 -17 835 -17 873 -17 c 2,41,-1
 1101 -17 l 1,42,-1
 1101 -152 l 1,43,-1
 873 -153 l 2,44,45
 679 -154 679 -154 596.5 -64 c 128,-1,46
 514 26 514 26 514 223 c 2,47,-1
 514 455 l 2,0,1
EndSplineSet
EndChar

StartChar: bar
Encoding: 124 124 125
Width: 1229
GlyphClass: 2
Flags: W
LayerCount: 2
Fore
SplineSet
530 -441 m 1,0,-1
 530 1585 l 1,1,-1
 691 1585 l 1,2,-1
 691 -441 l 1,3,-1
 530 -441 l 1,0,-1
EndSplineSet
EndChar

StartChar: braceright
Encoding: 125 125 126
Width: 1229
GlyphClass: 2
Flags: W
LayerCount: 2
Fore
SplineSet
815 1097 m 2,0,1
 815 980 815 980 895 916 c 128,-1,2
 975 852 975 852 1104 844 c 1,3,-1
 1104 709 l 1,4,5
 976 701 976 701 895.5 636.5 c 128,-1,6
 815 572 815 572 815 455 c 2,7,-1
 815 223 l 2,8,9
 815 26 815 26 732.5 -64 c 128,-1,10
 650 -154 650 -154 456 -153 c 2,11,-1
 227 -152 l 1,12,-1
 227 -17 l 1,13,-1
 456 -17 l 2,14,15
 494 -17 494 -17 520 -3.5 c 128,-1,16
 546 10 546 10 560.5 29 c 128,-1,17
 575 48 575 48 582.5 83 c 128,-1,18
 590 118 590 118 591.5 147 c 128,-1,19
 593 176 593 176 593 223 c 2,20,-1
 593 464 l 2,21,22
 593 536 593 536 609 587.5 c 128,-1,23
 625 639 625 639 661 674 c 128,-1,24
 697 709 697 709 735.5 730 c 128,-1,25
 774 751 774 751 838 776 c 1,26,27
 787 796 787 796 754.5 812 c 128,-1,28
 722 828 722 828 688 853.5 c 128,-1,29
 654 879 654 879 635.5 909.5 c 128,-1,30
 617 940 617 940 605 985.5 c 128,-1,31
 593 1031 593 1031 593 1089 c 2,32,-1
 593 1330 l 2,33,34
 593 1369 593 1369 592 1393.5 c 128,-1,35
 591 1418 591 1418 586.5 1449 c 128,-1,36
 582 1480 582 1480 573 1499 c 128,-1,37
 564 1518 564 1518 549.5 1535.5 c 128,-1,38
 535 1553 535 1553 511.5 1561 c 128,-1,39
 488 1569 488 1569 456 1569 c 2,40,-1
 227 1569 l 1,41,-1
 227 1705 l 1,42,-1
 456 1706 l 2,43,44
 650 1707 650 1707 732.5 1617 c 128,-1,45
 815 1527 815 1527 815 1330 c 2,46,-1
 815 1097 l 2,0,1
EndSplineSet
EndChar

StartChar: asciitilde
Encoding: 126 126 127
Width: 1229
GlyphClass: 2
Flags: W
LayerCount: 2
Fore
SplineSet
1237 916 m 1,0,1
 1222 883 1222 883 1200 808.5 c 128,-1,2
 1178 734 1178 734 1162.5 704.5 c 128,-1,3
 1147 675 1147 675 1136.5 659 c 128,-1,4
 1126 643 1126 643 1108.5 620.5 c 128,-1,5
 1091 598 1091 598 1076.5 586.5 c 128,-1,6
 1062 575 1062 575 1041 562.5 c 128,-1,7
 1020 550 1020 550 1000 547 c 128,-1,8
 980 544 980 544 954 545 c 128,-1,9
 928 546 928 546 900 554 c 0,10,11
 879 560 879 560 858.5 570.5 c 128,-1,12
 838 581 838 581 814.5 597 c 128,-1,13
 791 613 791 613 776.5 623.5 c 128,-1,14
 762 634 762 634 735 656 c 128,-1,15
 708 678 708 678 700 685 c 0,16,17
 518 828 518 828 439 886 c 0,18,19
 427 895 427 895 415 898 c 0,20,21
 354 916 354 916 231 601 c 1,22,-1
 87 706 l 1,23,24
 111 759 111 759 156.5 874.5 c 128,-1,25
 202 990 202 990 240.5 1027.5 c 128,-1,26
 279 1065 279 1065 327 1078.5 c 128,-1,27
 375 1092 375 1092 426 1077 c 0,28,29
 466 1065 466 1065 512 1036.5 c 128,-1,30
 558 1008 558 1008 578 992 c 0,31,32
 614 964 614 964 650 933 c 0,33,34
 655 928 655 928 686.5 901.5 c 128,-1,35
 718 875 718 875 728.5 866 c 128,-1,36
 739 857 739 857 766 835 c 128,-1,37
 793 813 793 813 810 801 c 0,38,39
 838 780 838 780 849 773 c 0,40,41
 873 758 873 758 893 744 c 0,42,43
 904 737 904 737 912 734 c 0,44,45
 932 728 932 728 951.5 735.5 c 128,-1,46
 971 743 971 743 985 756 c 128,-1,47
 999 769 999 769 1012.5 793 c 128,-1,48
 1026 817 1026 817 1036 835 c 0,49,50
 1075 922 1075 922 1073.5 925 c 128,-1,51
 1072 928 1072 928 1087 1004 c 1,52,-1
 1237 916 l 1,0,1
EndSplineSet
EndChar

StartChar: exclamdown
Encoding: 161 161 162
Width: 1229
GlyphClass: 2
Flags: W
LayerCount: 2
Fore
SplineSet
542 -417 m 1,0,-1
 542 753 l 1,1,-1
 715 753 l 1,2,-1
 715 -417 l 1,3,-1
 542 -417 l 1,0,-1
723 1184 m 1,4,-1
 723 959 l 1,5,-1
 487 959 l 1,6,-1
 487 1184 l 1,7,-1
 723 1184 l 1,4,-1
EndSplineSet
EndChar

StartChar: cent
Encoding: 162 162 163
Width: 1229
GlyphClass: 2
Flags: W
LayerCount: 2
Fore
SplineSet
779 117 m 1,0,1
 952 126 952 126 1085 244 c 1,2,-1
 1136 94 l 1,3,4
 991 -18 991 -18 767 -24 c 1,5,-1
 752 -277 l 1,6,-1
 626 -277 l 1,7,-1
 626 -18 l 1,8,9
 416 12 416 12 294 161.5 c 128,-1,10
 172 311 172 311 172 545 c 0,11,12
 172 677 172 677 213.5 787 c 128,-1,13
 255 897 255 897 326.5 971.5 c 128,-1,14
 398 1046 398 1046 493.5 1089.5 c 128,-1,15
 589 1133 589 1133 699 1139 c 1,16,-1
 714 1368 l 1,17,-1
 857 1368 l 1,18,-1
 841 1133 l 1,19,20
 1035 1107 1035 1107 1128 984 c 1,21,-1
 1046 868 l 1,22,23
 970 962 970 962 833 988 c 1,24,-1
 779 117 l 1,0,1
690 988 m 1,25,26
 540 965 540 965 452 845.5 c 128,-1,27
 364 726 364 726 364 553 c 0,28,29
 364 386 364 386 433.5 274.5 c 128,-1,30
 503 163 503 163 635 131 c 1,31,-1
 690 988 l 1,25,26
EndSplineSet
EndChar

StartChar: sterling
Encoding: 163 163 164
Width: 1229
GlyphClass: 2
Flags: W
LayerCount: 2
Fore
SplineSet
806 1418 m 0,0,1
 504 1418 504 1418 504 1028 c 1,2,-1
 508 903 l 1,3,-1
 874 903 l 1,4,-1
 874 749 l 1,5,-1
 511 749 l 1,6,7
 511 726 511 726 511.5 678 c 128,-1,8
 512 630 512 630 512 605 c 0,9,10
 512 495 512 495 506 420 c 128,-1,11
 500 345 500 345 474 267.5 c 128,-1,12
 448 190 448 190 401 153 c 1,13,-1
 1188 153 l 1,14,-1
 1188 0 l 1,15,-1
 120 0 l 1,16,-1
 119 150 l 1,17,18
 183 186 183 186 224.5 224.5 c 128,-1,19
 266 263 266 263 293.5 328 c 128,-1,20
 321 393 321 393 321 478 c 2,21,-1
 321 749 l 1,22,-1
 119 749 l 1,23,-1
 119 903 l 1,24,-1
 320 903 l 1,25,26
 313 962 313 962 313 1026 c 0,27,28
 313 1188 313 1188 365 1309 c 128,-1,29
 417 1430 417 1430 529 1501 c 128,-1,30
 641 1572 641 1572 804 1572 c 0,31,32
 1043 1572 1043 1572 1168 1473 c 1,33,-1
 1110 1343 l 1,34,35
 988 1418 988 1418 806 1418 c 0,0,1
EndSplineSet
EndChar

StartChar: currency
Encoding: 164 164 165
Width: 1229
GlyphClass: 2
Flags: W
LayerCount: 2
Fore
SplineSet
773 1106 m 1,0,1
 1002 1005 1002 1005 1002 720 c 1,2,-1
 1003 719 l 1,3,4
 1003 599 1003 599 956.5 506.5 c 128,-1,5
 910 414 910 414 830 363 c 1,6,-1
 996 60 l 1,7,-1
 958 42 l 1,8,-1
 792 342 l 1,9,10
 690 296 690 296 606 296 c 0,11,12
 512 296 512 296 463 310 c 1,13,-1
 357 42 l 1,14,-1
 316 60 l 1,15,-1
 419 326 l 1,16,17
 305 370 305 370 239.5 468.5 c 128,-1,18
 174 567 174 567 174 712 c 0,19,20
 174 848 174 848 227.5 945 c 128,-1,21
 281 1042 281 1042 377 1093 c 1,22,-1
 210 1395 l 1,23,-1
 254 1412 l 1,24,-1
 420 1110 l 1,25,26
 488 1141 488 1141 576 1141 c 0,27,28
 655 1141 655 1141 728 1122 c 1,29,-1
 842 1412 l 1,30,-1
 888 1395 l 1,31,-1
 773 1106 l 1,0,1
276 715 m 128,-1,33
 276 563 276 563 360.5 468 c 128,-1,34
 445 373 445 373 591 373 c 128,-1,35
 737 373 737 373 819 468.5 c 128,-1,36
 901 564 901 564 901 716 c 0,37,38
 901 872 901 872 819 967 c 128,-1,39
 737 1062 737 1062 587 1062 c 0,40,41
 442 1062 442 1062 359 964.5 c 128,-1,32
 276 867 276 867 276 715 c 128,-1,33
EndSplineSet
EndChar

StartChar: yen
Encoding: 165 165 166
Width: 1229
GlyphClass: 2
Flags: W
LayerCount: 2
Fore
SplineSet
611 0 m 1,0,-1
 611 307 l 1,1,-1
 171 307 l 1,2,-1
 159 459 l 1,3,-1
 610 459 l 1,4,-1
 610 623 l 1,5,-1
 163 623 l 1,6,-1
 163 778 l 1,7,-1
 571 778 l 1,8,-1
 78 1541 l 1,9,-1
 305 1541 l 1,10,11
 346 1474 346 1474 434 1330.5 c 128,-1,12
 522 1187 522 1187 588.5 1077 c 128,-1,13
 655 967 655 967 715 864 c 1,14,-1
 1127 1541 l 1,15,-1
 1334 1541 l 1,16,-1
 830 778 l 1,17,-1
 1232 778 l 1,18,-1
 1232 623 l 1,19,-1
 800 623 l 1,20,-1
 800 459 l 1,21,-1
 1236 459 l 1,22,-1
 1236 307 l 1,23,-1
 803 307 l 1,24,-1
 803 0 l 1,25,-1
 611 0 l 1,0,-1
EndSplineSet
EndChar

StartChar: brokenbar
Encoding: 166 166 167
Width: 1229
GlyphClass: 2
Flags: W
LayerCount: 2
Fore
SplineSet
539 427 m 1,0,-1
 711 427 l 1,1,-1
 711 -533 l 1,2,-1
 539 -533 l 1,3,-1
 539 427 l 1,0,-1
539 1677 m 1,4,-1
 711 1677 l 1,5,-1
 711 735 l 1,6,-1
 539 735 l 1,7,-1
 539 1677 l 1,4,-1
EndSplineSet
EndChar

StartChar: section
Encoding: 167 167 168
Width: 1229
GlyphClass: 2
Flags: W
LayerCount: 2
Fore
SplineSet
960 1416 m 1,0,1
 829 1473 829 1473 711 1473 c 0,2,3
 473 1473 473 1473 473 1330 c 0,4,5
 473 1303 473 1303 481.5 1278.5 c 128,-1,6
 490 1254 490 1254 502 1235.5 c 128,-1,7
 514 1217 514 1217 535.5 1199.5 c 128,-1,8
 557 1182 557 1182 575.5 1170.5 c 128,-1,9
 594 1159 594 1159 622 1145.5 c 128,-1,10
 650 1132 650 1132 669 1124.5 c 128,-1,11
 688 1117 688 1117 717 1106 c 128,-1,12
 746 1095 746 1095 760 1089 c 0,13,14
 883 1037 883 1037 930 1006 c 0,15,16
 1047 927 1047 927 1047 800 c 0,17,18
 1047 750 1047 750 1029 706 c 128,-1,19
 1011 662 1011 662 977.5 627.5 c 128,-1,20
 944 593 944 593 913.5 570 c 128,-1,21
 883 547 883 547 842 522 c 1,22,23
 1021 431 1021 431 1021 274 c 0,24,25
 1021 192 1021 192 983 128 c 128,-1,26
 945 64 945 64 880.5 25.5 c 128,-1,27
 816 -13 816 -13 737.5 -32.5 c 128,-1,28
 659 -52 659 -52 572 -52 c 0,29,30
 409 -52 409 -52 273 5 c 1,31,-1
 272 166 l 1,32,33
 421 97 421 97 566 97 c 0,34,35
 616 97 616 97 660.5 105.5 c 128,-1,36
 705 114 705 114 744 132.5 c 128,-1,37
 783 151 783 151 806 185 c 128,-1,38
 829 219 829 219 829 264 c 0,39,40
 829 296 829 296 813.5 324 c 128,-1,41
 798 352 798 352 776 371 c 128,-1,42
 754 390 754 390 719 408 c 128,-1,43
 684 426 684 426 657 436.5 c 128,-1,44
 630 447 630 447 591.5 460.5 c 128,-1,45
 553 474 553 474 536 481 c 0,46,47
 485 502 485 502 453 517 c 128,-1,48
 421 532 421 532 376.5 560.5 c 128,-1,49
 332 589 332 589 307 618.5 c 128,-1,50
 282 648 282 648 263 693.5 c 128,-1,51
 244 739 244 739 244 793 c 0,52,53
 244 844 244 844 262 887 c 128,-1,54
 280 930 280 930 312.5 962 c 128,-1,55
 345 994 345 994 377 1016 c 128,-1,56
 409 1038 409 1038 451 1060 c 1,57,58
 374 1105 374 1105 328.5 1165 c 128,-1,59
 283 1225 283 1225 283 1315 c 0,60,61
 283 1397 283 1397 316.5 1457.5 c 128,-1,62
 350 1518 350 1518 410 1553 c 128,-1,63
 470 1588 470 1588 544 1604.5 c 128,-1,64
 618 1621 618 1621 706 1621 c 0,65,66
 806 1621 806 1621 959 1576 c 1,67,-1
 960 1416 l 1,0,1
692 594 m 1,68,69
 724 613 724 613 744.5 627.5 c 128,-1,70
 765 642 765 642 792.5 666.5 c 128,-1,71
 820 691 820 691 834.5 721.5 c 128,-1,72
 849 752 849 752 849 786 c 0,73,74
 849 821 849 821 830.5 850 c 128,-1,75
 812 879 812 879 779 900 c 128,-1,76
 746 921 746 921 715 935.5 c 128,-1,77
 684 950 684 950 643.5 966 c 128,-1,78
 603 982 603 982 586 991 c 1,79,80
 439 914 439 914 439 806 c 0,81,82
 439 783 439 783 447 762 c 128,-1,83
 455 741 455 741 465.5 725.5 c 128,-1,84
 476 710 476 710 496 693.5 c 128,-1,85
 516 677 516 677 531.5 667 c 128,-1,86
 547 657 547 657 573.5 644 c 128,-1,87
 600 631 600 631 614.5 625 c 128,-1,88
 629 619 629 619 656 608.5 c 128,-1,89
 683 598 683 598 692 594 c 1,68,69
EndSplineSet
EndChar

StartChar: dieresis
Encoding: 168 168 169
Width: 1229
GlyphClass: 2
Flags: W
LayerCount: 2
Fore
SplineSet
330 1448 m 1,0,1
 416 1448 416 1448 514 1458 c 1,2,3
 514 1372 514 1372 525 1279 c 1,4,5
 435 1279 435 1279 341 1268 c 1,6,7
 341 1355 341 1355 330 1448 c 1,0,1
765 1279 m 1,8,9
 774 1383 774 1383 774 1458 c 1,10,11
 872 1448 872 1448 958 1448 c 1,12,13
 946 1362 946 1362 946 1268 c 1,14,15
 850 1279 850 1279 765 1279 c 1,8,9
EndSplineSet
EndChar

StartChar: copyright
Encoding: 169 169 170
Width: 1229
GlyphClass: 2
Flags: W
LayerCount: 2
Fore
SplineSet
1793 787 m 1,0,1
 1793 659 1793 659 1758 545.5 c 128,-1,2
 1723 432 1723 432 1660.5 344.5 c 128,-1,3
 1598 257 1598 257 1521.5 191 c 128,-1,4
 1445 125 1445 125 1353 76 c 0,5,6
 1145 -34 1145 -34 904 -34 c 0,7,8
 641 -34 641 -34 443 76.5 c 128,-1,9
 245 187 245 187 129 369 c 0,10,11
 6 561 6 561 6 788 c 0,12,13
 6 916 6 916 41.5 1029.5 c 128,-1,14
 77 1143 77 1143 140 1230.5 c 128,-1,15
 203 1318 203 1318 280 1383.5 c 128,-1,16
 357 1449 357 1449 449 1499 c 0,17,18
 656 1610 656 1610 898 1610 c 0,19,20
 1160 1610 1160 1610 1355.5 1499 c 128,-1,21
 1551 1388 1551 1388 1669 1205 c 0,22,23
 1792 1013 1792 1013 1792 787 c 1,24,-1
 1793 787 l 1,0,1
896 1483 m 0,25,26
 682 1483 682 1483 509.5 1393 c 128,-1,27
 337 1303 337 1303 241.5 1150 c 128,-1,28
 146 997 146 997 146 813 c 0,29,30
 146 678 146 678 187 560.5 c 128,-1,31
 228 443 228 443 298.5 358.5 c 128,-1,32
 369 274 369 274 462 213 c 128,-1,33
 555 152 555 152 660.5 122 c 128,-1,34
 766 92 766 92 876 92 c 0,35,36
 1049 92 1049 92 1195 145.5 c 128,-1,37
 1341 199 1341 199 1440.5 292 c 128,-1,38
 1540 385 1540 385 1595 512.5 c 128,-1,39
 1650 640 1650 640 1650 786 c 0,40,41
 1650 920 1650 920 1605 1035.5 c 128,-1,42
 1560 1151 1560 1151 1485 1232 c 128,-1,43
 1410 1313 1410 1313 1312 1370.5 c 128,-1,44
 1214 1428 1214 1428 1108 1455.5 c 128,-1,45
 1002 1483 1002 1483 896 1483 c 0,25,26
1234 1069 m 1,46,47
 1113 1173 1113 1173 937 1173 c 0,48,49
 770 1173 770 1173 669 1068.5 c 128,-1,50
 568 964 568 964 568 795 c 1,51,-1
 570 795 l 1,52,53
 570 622 570 622 674 517.5 c 128,-1,54
 778 413 778 413 951 413 c 0,55,56
 1126 413 1126 413 1229 499 c 1,57,-1
 1273 368 l 1,58,59
 1134 270 1134 270 932 270 c 0,60,61
 810 270 810 270 707.5 314 c 128,-1,62
 605 358 605 358 539 431.5 c 128,-1,63
 473 505 473 505 436.5 598.5 c 128,-1,64
 400 692 400 692 400 792 c 0,65,66
 400 915 400 915 445 1015.5 c 128,-1,67
 490 1116 490 1116 566.5 1179.5 c 128,-1,68
 643 1243 643 1243 740 1277 c 128,-1,69
 837 1311 837 1311 944 1311 c 0,70,71
 1135 1311 1135 1311 1269 1200 c 1,72,-1
 1234 1069 l 1,46,47
EndSplineSet
EndChar

StartChar: ordfeminine
Encoding: 170 170 171
Width: 1229
GlyphClass: 2
Flags: W
LayerCount: 2
Fore
SplineSet
327 1466 m 1,0,1
 409 1604 409 1604 641 1604 c 0,2,3
 784 1604 784 1604 864.5 1538.5 c 128,-1,4
 945 1473 945 1473 945 1340 c 0,5,6
 945 1297 945 1297 943 1212.5 c 128,-1,7
 941 1128 941 1128 941 1086 c 0,8,9
 941 963 941 963 951 853 c 1,10,-1
 806 853 l 1,11,-1
 799 933 l 1,12,13
 720 834 720 834 555 834 c 0,14,15
 436 834 436 834 356 892.5 c 128,-1,16
 276 951 276 951 276 1058 c 0,17,18
 276 1103 276 1103 290 1139 c 128,-1,19
 304 1175 304 1175 325.5 1199 c 128,-1,20
 347 1223 347 1223 383 1241 c 128,-1,21
 419 1259 419 1259 453 1269 c 128,-1,22
 487 1279 487 1279 535.5 1286.5 c 128,-1,23
 584 1294 584 1294 621.5 1297.5 c 128,-1,24
 659 1301 659 1301 711.5 1306 c 128,-1,25
 764 1311 764 1311 797 1315 c 1,26,27
 797 1411 797 1411 762 1448.5 c 128,-1,28
 727 1486 727 1486 633 1486 c 0,29,30
 468 1486 468 1486 401 1384 c 1,31,-1
 327 1466 l 1,0,1
580 945 m 0,32,33
 682 945 682 945 740 1009 c 128,-1,34
 798 1073 798 1073 798 1178 c 2,35,-1
 798 1205 l 1,36,37
 772 1200 772 1200 727 1196.5 c 128,-1,38
 682 1193 682 1193 645 1190.5 c 128,-1,39
 608 1188 608 1188 566 1179.5 c 128,-1,40
 524 1171 524 1171 495.5 1158.5 c 128,-1,41
 467 1146 467 1146 448 1121 c 128,-1,42
 429 1096 429 1096 429 1061 c 0,43,44
 429 945 429 945 580 945 c 0,32,33
EndSplineSet
EndChar

StartChar: guillemotleft
Encoding: 171 171 172
Width: 1229
GlyphClass: 2
Flags: W
LayerCount: 2
Fore
SplineSet
679 992 m 1,0,-1
 386 588 l 1,1,-1
 668 185 l 1,2,-1
 495 185 l 1,3,-1
 197 588 l 1,4,-1
 502 992 l 1,5,-1
 679 992 l 1,0,-1
1086 992 m 1,6,-1
 794 588 l 1,7,-1
 1077 185 l 1,8,-1
 904 185 l 1,9,-1
 607 588 l 1,10,-1
 910 992 l 1,11,-1
 1086 992 l 1,6,-1
EndSplineSet
EndChar

StartChar: logicalnot
Encoding: 172 172 173
Width: 1229
GlyphClass: 2
Flags: W
LayerCount: 2
Fore
SplineSet
1146 715 m 1,0,-1
 152 715 l 1,1,-1
 152 866 l 1,2,-1
 1311 866 l 1,3,-1
 1311 258 l 1,4,-1
 1146 258 l 1,5,-1
 1146 715 l 1,0,-1
EndSplineSet
EndChar

StartChar: registered
Encoding: 174 174 175
Width: 1229
GlyphClass: 2
Flags: W
LayerCount: 2
Fore
SplineSet
1793 785 m 1,0,1
 1793 657 1793 657 1758 543.5 c 128,-1,2
 1723 430 1723 430 1660.5 342.5 c 128,-1,3
 1598 255 1598 255 1521.5 189 c 128,-1,4
 1445 123 1445 123 1353 74 c 0,5,6
 1143 -37 1143 -37 904 -37 c 0,7,8
 641 -37 641 -37 443 73.5 c 128,-1,9
 245 184 245 184 129 366 c 0,10,11
 6 558 6 558 6 786 c 0,12,13
 6 914 6 914 41.5 1028 c 128,-1,14
 77 1142 77 1142 140.5 1229 c 128,-1,15
 204 1316 204 1316 280.5 1381.5 c 128,-1,16
 357 1447 357 1447 449 1497 c 0,17,18
 656 1608 656 1608 898 1608 c 0,19,20
 1160 1608 1160 1608 1356 1497 c 128,-1,21
 1552 1386 1552 1386 1669 1203 c 0,22,23
 1792 1010 1792 1010 1792 785 c 1,24,-1
 1793 785 l 1,0,1
146 788 m 0,25,26
 146 651 146 651 191.5 534.5 c 128,-1,27
 237 418 237 418 313.5 337.5 c 128,-1,28
 390 257 390 257 491 200 c 128,-1,29
 592 143 592 143 703 116.5 c 128,-1,30
 814 90 814 90 928 90 c 0,31,32
 1089 90 1089 90 1227 147 c 128,-1,33
 1365 204 1365 204 1456 298.5 c 128,-1,34
 1547 393 1547 393 1598.5 513 c 128,-1,35
 1650 633 1650 633 1650 761 c 0,36,37
 1650 896 1650 896 1609 1013 c 128,-1,38
 1568 1130 1568 1130 1497.5 1215 c 128,-1,39
 1427 1300 1427 1300 1334 1361 c 128,-1,40
 1241 1422 1241 1422 1136 1452 c 128,-1,41
 1031 1482 1031 1482 922 1482 c 0,42,43
 748 1482 748 1482 601.5 1428.5 c 128,-1,44
 455 1375 455 1375 356 1282 c 128,-1,45
 257 1189 257 1189 201.5 1061.5 c 128,-1,46
 146 934 146 934 146 788 c 0,25,26
1167 296 m 1,47,48
 1150 326 1150 326 1117.5 384 c 128,-1,49
 1085 442 1085 442 1062 481.5 c 128,-1,50
 1039 521 1039 521 1007.5 569 c 128,-1,51
 976 617 976 617 941 655.5 c 128,-1,52
 906 694 906 694 869 721 c 1,53,-1
 718 721 l 1,54,-1
 718 296 l 1,55,-1
 554 296 l 1,56,-1
 554 1294 l 1,57,-1
 855 1294 l 1,58,-1
 854 1293 l 1,59,60
 952 1293 952 1293 1029.5 1281.5 c 128,-1,61
 1107 1270 1107 1270 1179 1241.5 c 128,-1,62
 1251 1213 1251 1213 1291 1155.5 c 128,-1,63
 1331 1098 1331 1098 1331 1014 c 0,64,65
 1331 893 1331 893 1248 824 c 128,-1,66
 1165 755 1165 755 1038 740 c 1,67,68
 1083 697 1083 697 1131.5 634.5 c 128,-1,69
 1180 572 1180 572 1204 536 c 128,-1,70
 1228 500 1228 500 1285.5 406.5 c 128,-1,71
 1343 313 1343 313 1353 296 c 1,72,-1
 1167 296 l 1,47,48
853 848 m 2,73,74
 996 848 996 848 1047 860 c 0,75,76
 1154 886 1154 886 1160 986 c 0,77,78
 1160 993 1160 993 1160 999 c 0,79,80
 1160 1162 1160 1162 954 1162 c 2,81,-1
 715 1162 l 1,82,-1
 715 848 l 1,83,-1
 853 848 l 2,73,74
EndSplineSet
EndChar

StartChar: macron
Encoding: 175 175 176
Width: 1229
GlyphClass: 2
Flags: W
LayerCount: 2
Fore
SplineSet
326 1499 m 1,0,-1
 326 1639 l 1,1,-1
 1273 1639 l 1,2,-1
 1273 1499 l 1,3,-1
 326 1499 l 1,0,-1
EndSplineSet
EndChar

StartChar: degree
Encoding: 176 176 177
Width: 1229
GlyphClass: 2
Flags: W
LayerCount: 2
Fore
SplineSet
653 1054 m 128,-1,1
 743 1054 743 1054 805.5 1109.5 c 128,-1,2
 868 1165 868 1165 868 1250 c 128,-1,3
 868 1335 868 1335 805 1388.5 c 128,-1,4
 742 1442 742 1442 653 1442 c 128,-1,5
 564 1442 564 1442 501 1388 c 128,-1,6
 438 1334 438 1334 438 1250 c 0,7,8
 438 1165 438 1165 500.5 1109.5 c 128,-1,0
 563 1054 563 1054 653 1054 c 128,-1,1
1006 1248 m 0,9,10
 1006 1110 1006 1110 901.5 1019.5 c 128,-1,11
 797 929 797 929 653 929 c 0,12,13
 501 929 501 929 400 1028 c 128,-1,14
 299 1127 299 1127 299 1248 c 0,15,16
 299 1387 299 1387 403.5 1477 c 128,-1,17
 508 1567 508 1567 653 1567 c 0,18,19
 755 1567 755 1567 837.5 1519.5 c 128,-1,20
 920 1472 920 1472 963 1399.5 c 128,-1,21
 1006 1327 1006 1327 1006 1248 c 0,9,10
EndSplineSet
EndChar

StartChar: plusminus
Encoding: 177 177 178
Width: 1229
GlyphClass: 2
Flags: W
LayerCount: 2
Fore
SplineSet
644 1201 m 1,0,-1
 810 1201 l 1,1,-1
 810 795 l 1,2,-1
 1309 795 l 1,3,-1
 1309 645 l 1,4,-1
 813 645 l 1,5,-1
 813 242 l 1,6,-1
 647 242 l 1,7,-1
 647 645 l 1,8,-1
 152 645 l 1,9,-1
 152 795 l 1,10,-1
 644 795 l 1,11,-1
 644 1201 l 1,0,-1
152 150 m 1,12,-1
 1312 150 l 1,13,-1
 1312 0 l 1,14,-1
 152 0 l 1,15,-1
 152 150 l 1,12,-1
EndSplineSet
EndChar

StartChar: uni00B2
Encoding: 178 178 179
Width: 1229
GlyphClass: 2
Flags: W
LayerCount: 2
Fore
SplineSet
604 1564 m 0,0,1
 742 1564 742 1564 829 1502 c 128,-1,2
 916 1440 916 1440 916 1317 c 0,3,4
 916 1232 916 1232 876 1161 c 128,-1,5
 836 1090 836 1090 772 1020 c 0,6,7
 754 1000 754 1000 731 977.5 c 128,-1,8
 708 955 708 955 691 938.5 c 128,-1,9
 674 922 674 922 644 896 c 128,-1,10
 614 870 614 870 601.5 859 c 128,-1,11
 589 848 589 848 555 819 c 128,-1,12
 521 790 521 790 514 784 c 1,13,-1
 915 784 l 1,14,-1
 915 656 l 1,15,-1
 312 656 l 1,16,-1
 312 776 l 1,17,18
 337 799 337 799 387 843 c 128,-1,19
 437 887 437 887 468.5 915.5 c 128,-1,20
 500 944 500 944 545 987.5 c 128,-1,21
 590 1031 590 1031 622 1066.5 c 128,-1,22
 654 1102 654 1102 688 1146.5 c 128,-1,23
 722 1191 722 1191 747 1233 c 0,24,25
 774 1280 774 1280 774 1315 c 1,26,-1
 775 1315 l 1,27,28
 775 1375 775 1375 731.5 1405.5 c 128,-1,29
 688 1436 688 1436 621 1436 c 0,30,31
 482 1436 482 1436 414 1294 c 1,32,-1
 319 1378 l 1,33,34
 355 1458 355 1458 430 1511 c 128,-1,35
 505 1564 505 1564 604 1564 c 0,0,1
EndSplineSet
EndChar

StartChar: uni00B3
Encoding: 179 179 180
Width: 1229
GlyphClass: 2
Flags: W
LayerCount: 2
Fore
SplineSet
379 846 m 1,0,1
 472 761 472 761 580 761 c 1,2,-1
 580 760 l 1,3,4
 663 760 663 760 718 797 c 128,-1,5
 773 834 773 834 773 907 c 0,6,7
 773 1053 773 1053 535 1053 c 1,8,-1
 473 1051 l 1,9,-1
 473 1181 l 1,10,11
 509 1181 509 1181 529.5 1181.5 c 128,-1,12
 550 1182 550 1182 583 1184.5 c 128,-1,13
 616 1187 616 1187 635.5 1191.5 c 128,-1,14
 655 1196 655 1196 678.5 1205.5 c 128,-1,15
 702 1215 702 1215 715 1229 c 128,-1,16
 728 1243 728 1243 737 1264 c 128,-1,17
 746 1285 746 1285 746 1312 c 0,18,19
 746 1434 746 1434 590 1434 c 0,20,21
 486 1434 486 1434 377 1350 c 1,22,-1
 313 1454 l 1,23,24
 432 1564 432 1564 593 1564 c 0,25,26
 723 1564 723 1564 808 1495.5 c 128,-1,27
 893 1427 893 1427 893 1306 c 0,28,29
 893 1184 893 1184 774 1120 c 1,30,31
 916 1058 916 1058 916 905 c 0,32,33
 916 780 916 780 820 708 c 128,-1,34
 724 636 724 636 586 636 c 0,35,36
 421 636 421 636 313 741 c 1,37,-1
 379 846 l 1,0,1
EndSplineSet
EndChar

StartChar: acute
Encoding: 180 180 181
Width: 1229
GlyphClass: 2
Flags: W
LayerCount: 2
Fore
SplineSet
418 1268 m 1,0,-1
 679 1705 l 1,1,-1
 911 1705 l 1,2,-1
 560 1268 l 1,3,-1
 418 1268 l 1,0,-1
EndSplineSet
EndChar

StartChar: paragraph
Encoding: 182 182 183
Width: 1229
GlyphClass: 2
Flags: W
LayerCount: 2
Fore
SplineSet
66 1227 m 0,0,1
 66 1310 66 1310 98.5 1373 c 128,-1,2
 131 1436 131 1436 183.5 1473.5 c 128,-1,3
 236 1511 236 1511 312.5 1534.5 c 128,-1,4
 389 1558 389 1558 466.5 1566.5 c 128,-1,5
 544 1575 544 1575 637 1575 c 2,6,-1
 1065 1575 l 1,7,-1
 1065 1441 l 1,8,-1
 969 1441 l 1,9,-1
 969 -160 l 1,10,-1
 825 -160 l 1,11,-1
 825 1441 l 1,12,-1
 595 1441 l 1,13,-1
 595 -160 l 1,14,-1
 438 -160 l 1,15,-1
 438 853 l 1,16,17
 275 855 275 855 170.5 960 c 128,-1,18
 66 1065 66 1065 66 1227 c 0,0,1
EndSplineSet
EndChar

StartChar: glyph184
Encoding: 183 183 184
Width: 1229
GlyphClass: 2
Flags: W
LayerCount: 2
Fore
SplineSet
494 557 m 1,0,-1
 494 785 l 1,1,-1
 735 785 l 1,2,-1
 735 557 l 1,3,-1
 494 557 l 1,0,-1
EndSplineSet
EndChar

StartChar: cedilla
Encoding: 184 184 185
Width: 1229
GlyphClass: 2
Flags: W
LayerCount: 2
Fore
SplineSet
731 -261 m 128,-1,1
 731 -183 731 -183 609 -183 c 0,2,3
 602 -183 602 -183 534 -188 c 1,4,-1
 569 19 l 1,5,-1
 677 19 l 1,6,-1
 657 -98 l 1,7,-1
 666 -97 l 1,8,9
 765 -97 765 -97 826.5 -136 c 128,-1,10
 888 -175 888 -175 888 -260 c 0,11,12
 888 -428 888 -428 617 -428 c 0,13,14
 541 -428 541 -428 428 -405 c 1,15,-1
 437 -313 l 1,16,17
 548 -339 548 -339 604 -339 c 0,18,0
 731 -339 731 -339 731 -261 c 128,-1,1
EndSplineSet
EndChar

StartChar: uni00B9
Encoding: 185 185 186
Width: 1229
GlyphClass: 2
Flags: W
LayerCount: 2
Fore
SplineSet
564 1381 m 1,0,1
 484 1340 484 1340 396 1306 c 1,2,-1
 397 1447 l 1,3,4
 492 1479 492 1479 582 1533 c 1,5,-1
 698 1549 l 1,6,-1
 698 781 l 1,7,-1
 833 781 l 1,8,-1
 833 656 l 1,9,-1
 430 656 l 1,10,-1
 430 785 l 1,11,-1
 564 785 l 1,12,-1
 564 1381 l 1,0,1
EndSplineSet
EndChar

StartChar: ordmasculine
Encoding: 186 186 187
Width: 1229
GlyphClass: 2
Flags: W
LayerCount: 2
Fore
SplineSet
684 833 m 0,0,1
 499 833 499 833 390 936 c 128,-1,2
 281 1039 281 1039 281 1220 c 0,3,4
 281 1395 281 1395 391.5 1498.5 c 128,-1,5
 502 1602 502 1602 682 1602 c 0,6,7
 866 1602 866 1602 973 1499.5 c 128,-1,8
 1080 1397 1080 1397 1080 1217 c 0,9,10
 1080 1042 1080 1042 971.5 937.5 c 128,-1,11
 863 833 863 833 684 833 c 0,0,1
684 950 m 0,12,13
 796 950 796 950 861.5 1023.5 c 128,-1,14
 927 1097 927 1097 927 1214 c 0,15,16
 927 1339 927 1339 864 1412.5 c 128,-1,17
 801 1486 801 1486 681 1486 c 0,18,19
 565 1486 565 1486 501 1412.5 c 128,-1,20
 437 1339 437 1339 437 1218 c 0,21,22
 437 1096 437 1096 501.5 1023 c 128,-1,23
 566 950 566 950 684 950 c 0,12,13
EndSplineSet
EndChar

StartChar: guillemotright
Encoding: 187 187 188
Width: 1229
GlyphClass: 2
Flags: W
LayerCount: 2
Fore
SplineSet
197 185 m 1,0,-1
 489 589 l 1,1,-1
 203 992 l 1,2,-1
 380 992 l 1,3,-1
 678 589 l 1,4,-1
 373 185 l 1,5,-1
 197 185 l 1,0,-1
636 185 m 1,6,-1
 926 589 l 1,7,-1
 645 992 l 1,8,-1
 817 992 l 1,9,-1
 1116 589 l 1,10,-1
 809 185 l 1,11,-1
 636 185 l 1,6,-1
EndSplineSet
EndChar

StartChar: onequarter
Encoding: 188 188 189
Width: 1229
GlyphClass: 2
Flags: W
LayerCount: 2
Fore
SplineSet
1354 245 m 1,0,-1
 936 245 l 1,1,-1
 936 345 l 1,2,-1
 1340 906 l 1,3,-1
 1490 906 l 1,4,-1
 1490 361 l 1,5,-1
 1610 361 l 1,6,-1
 1621 245 l 1,7,-1
 1487 245 l 1,8,-1
 1487 1 l 1,9,-1
 1354 41 l 1,10,-1
 1354 245 l 1,0,-1
409 1 m 1,11,-1
 242 1 l 1,12,-1
 1244 1560 l 1,13,-1
 1408 1560 l 1,14,-1
 409 1 l 1,11,-1
191 1381 m 1,15,16
 100 1333 100 1333 23 1306 c 1,17,-1
 24 1447 l 1,18,19
 116 1477 116 1477 209 1533 c 1,20,-1
 326 1549 l 1,21,-1
 326 781 l 1,22,-1
 461 781 l 1,23,-1
 461 656 l 1,24,-1
 57 656 l 1,25,-1
 57 785 l 1,26,-1
 191 785 l 1,27,-1
 191 1381 l 1,15,16
1353 361 m 1,28,29
 1353 396 1353 396 1352.5 465.5 c 128,-1,30
 1352 535 1352 535 1352 570 c 0,31,32
 1352 621 1352 621 1354 725 c 1,33,-1
 1091 361 l 1,34,-1
 1353 361 l 1,28,29
EndSplineSet
EndChar

StartChar: onehalf
Encoding: 189 189 190
Width: 1229
GlyphClass: 2
Flags: W
LayerCount: 2
Fore
SplineSet
1207 881 m 0,0,1
 1347 881 1347 881 1434 820 c 128,-1,2
 1521 759 1521 759 1521 635 c 0,3,4
 1521 550 1521 550 1481 478.5 c 128,-1,5
 1441 407 1441 407 1377 337 c 0,6,7
 1356 313 1356 313 1331 288.5 c 128,-1,8
 1306 264 1306 264 1275 236.5 c 128,-1,9
 1244 209 1244 209 1224 191.5 c 128,-1,10
 1204 174 1204 174 1166.5 143 c 128,-1,11
 1129 112 1129 112 1117 101 c 1,12,-1
 1520 101 l 1,13,-1
 1520 -26 l 1,14,-1
 914 -26 l 1,15,-1
 914 94 l 1,16,17
 942 119 942 119 1004 174 c 128,-1,18
 1066 229 1066 229 1104 264 c 128,-1,19
 1142 299 1142 299 1192.5 349.5 c 128,-1,20
 1243 400 1243 400 1282 449.5 c 128,-1,21
 1321 499 1321 499 1351 550 c 0,22,23
 1378 597 1378 597 1378 632 c 1,24,-1
 1380 632 l 1,25,26
 1380 693 1380 693 1336 723.5 c 128,-1,27
 1292 754 1292 754 1224 754 c 0,28,29
 1088 754 1088 754 1017 612 c 1,30,-1
 924 697 l 1,31,32
 960 776 960 776 1034 828.5 c 128,-1,33
 1108 881 1108 881 1207 881 c 0,0,1
323 1 m 1,34,-1
 157 1 l 1,35,-1
 1160 1560 l 1,36,-1
 1323 1560 l 1,37,-1
 323 1 l 1,34,-1
171 1381 m 1,38,39
 95 1342 95 1342 2 1306 c 1,40,-1
 3 1447 l 1,41,42
 103 1481 103 1481 188 1533 c 1,43,-1
 304 1549 l 1,44,-1
 304 781 l 1,45,-1
 440 781 l 1,46,-1
 440 656 l 1,47,-1
 36 656 l 1,48,-1
 36 785 l 1,49,-1
 171 785 l 1,50,-1
 171 1381 l 1,38,39
EndSplineSet
EndChar

StartChar: threequarters
Encoding: 190 190 191
Width: 1229
GlyphClass: 2
Flags: W
LayerCount: 2
Fore
SplineSet
1383 248 m 1,0,-1
 965 248 l 1,1,-1
 965 346 l 1,2,-1
 1368 909 l 1,3,-1
 1518 909 l 1,4,-1
 1518 363 l 1,5,-1
 1639 363 l 1,6,-1
 1650 248 l 1,7,-1
 1516 248 l 1,8,-1
 1516 -1 l 1,9,-1
 1383 44 l 1,10,-1
 1383 248 l 1,0,-1
457 -1 m 1,11,-1
 290 -1 l 1,12,-1
 1293 1558 l 1,13,-1
 1457 1558 l 1,14,-1
 457 -1 l 1,11,-1
86 846 m 1,15,16
 181 761 181 761 287 761 c 1,17,-1
 287 760 l 1,18,19
 370 760 370 760 425 797 c 128,-1,20
 480 834 480 834 480 907 c 0,21,22
 480 1053 480 1053 243 1053 c 1,23,-1
 181 1051 l 1,24,-1
 181 1181 l 1,25,26
 217 1181 217 1181 237.5 1181.5 c 128,-1,27
 258 1182 258 1182 291 1184.5 c 128,-1,28
 324 1187 324 1187 343 1191.5 c 128,-1,29
 362 1196 362 1196 386 1205.5 c 128,-1,30
 410 1215 410 1215 422.5 1229 c 128,-1,31
 435 1243 435 1243 444 1264 c 128,-1,32
 453 1285 453 1285 453 1312 c 0,33,34
 453 1434 453 1434 298 1434 c 0,35,36
 194 1434 194 1434 85 1350 c 1,37,-1
 20 1454 l 1,38,39
 137 1564 137 1564 300 1564 c 0,40,41
 430 1564 430 1564 515 1495.5 c 128,-1,42
 600 1427 600 1427 600 1306 c 0,43,44
 600 1182 600 1182 481 1120 c 1,45,46
 624 1059 624 1059 624 905 c 0,47,48
 624 780 624 780 527.5 708 c 128,-1,49
 431 636 431 636 292 636 c 0,50,51
 130 636 130 636 20 741 c 1,52,-1
 86 846 l 1,15,16
1381 363 m 1,53,-1
 1381 509 l 2,54,55
 1381 654 1381 654 1383 726 c 1,56,-1
 1119 363 l 1,57,-1
 1381 363 l 1,53,-1
EndSplineSet
EndChar

StartChar: questiondown
Encoding: 191 191 192
Width: 1229
GlyphClass: 2
Flags: W
LayerCount: 2
Fore
SplineSet
604 1037 m 0,0,1
 604 1099 604 1099 586 1193 c 1,2,-1
 767 1193 l 1,3,4
 778 1103 778 1103 778 1024 c 1,5,-1
 779 1023 l 1,6,7
 779 961 779 961 758 907.5 c 128,-1,8
 737 854 737 854 699 811 c 128,-1,9
 661 768 661 768 624.5 736 c 128,-1,10
 588 704 588 704 539.5 665 c 128,-1,11
 491 626 491 626 465 600 c 0,12,13
 414 549 414 549 384.5 495.5 c 128,-1,14
 355 442 355 442 355 371 c 0,15,16
 355 309 355 309 381 263 c 128,-1,17
 407 217 407 217 453.5 191.5 c 128,-1,18
 500 166 500 166 556.5 154 c 128,-1,19
 613 142 613 142 680 142 c 0,20,21
 822 142 822 142 959 216 c 1,22,-1
 959 58 l 1,23,24
 811 -13 811 -13 680 -13 c 0,25,26
 572 -13 572 -13 482.5 7 c 128,-1,27
 393 27 393 27 321 69.5 c 128,-1,28
 249 112 249 112 208.5 186.5 c 128,-1,29
 168 261 168 261 168 361 c 0,30,31
 168 434 168 434 198.5 493.5 c 128,-1,32
 229 553 229 553 281 614 c 0,33,34
 311 650 311 650 375 711.5 c 128,-1,35
 439 773 439 773 484.5 818 c 128,-1,36
 530 863 530 863 567 924 c 128,-1,37
 604 985 604 985 604 1037 c 0,0,1
799 1604 m 1,38,-1
 799 1376 l 1,39,-1
 557 1376 l 1,40,-1
 557 1604 l 1,41,-1
 799 1604 l 1,38,-1
EndSplineSet
EndChar

StartChar: Agrave
Encoding: 192 192 193
Width: 1229
GlyphClass: 2
Flags: W
LayerCount: 2
Fore
SplineSet
728 1491 m 1,0,-1
 1189 0 l 1,1,-1
 984 0 l 1,2,-1
 833 473 l 1,3,-1
 394 473 l 1,4,-1
 244 0 l 1,5,-1
 40 0 l 1,6,-1
 500 1491 l 1,7,-1
 728 1491 l 1,0,-1
433 636 m 1,8,-1
 795 636 l 1,9,-1
 617 1226 l 1,10,-1
 433 636 l 1,8,-1
591 2099 m 1,11,-1
 874 1662 l 1,12,-1
 735 1662 l 1,13,-1
 355 2099 l 1,14,-1
 591 2099 l 1,11,-1
EndSplineSet
EndChar

StartChar: Aacute
Encoding: 193 193 194
Width: 1229
GlyphClass: 2
Flags: W
LayerCount: 2
Fore
SplineSet
728 1491 m 1,0,-1
 1189 0 l 1,1,-1
 984 0 l 1,2,-1
 833 473 l 1,3,-1
 394 473 l 1,4,-1
 244 0 l 1,5,-1
 40 0 l 1,6,-1
 500 1491 l 1,7,-1
 728 1491 l 1,0,-1
433 636 m 1,8,-1
 795 636 l 1,9,-1
 617 1226 l 1,10,-1
 433 636 l 1,8,-1
368 1662 m 1,11,-1
 629 2099 l 1,12,-1
 861 2099 l 1,13,-1
 510 1662 l 1,14,-1
 368 1662 l 1,11,-1
EndSplineSet
EndChar

StartChar: Acircumflex
Encoding: 194 194 195
Width: 1229
GlyphClass: 2
Flags: W
LayerCount: 2
Fore
SplineSet
728 1491 m 1,0,-1
 1189 0 l 1,1,-1
 984 0 l 1,2,-1
 833 473 l 1,3,-1
 394 473 l 1,4,-1
 244 0 l 1,5,-1
 40 0 l 1,6,-1
 500 1491 l 1,7,-1
 728 1491 l 1,0,-1
433 636 m 1,8,-1
 795 636 l 1,9,-1
 617 1226 l 1,10,-1
 433 636 l 1,8,-1
698 2009 m 1,11,-1
 957 1660 l 1,12,-1
 814 1660 l 1,13,-1
 610 1895 l 1,14,-1
 408 1660 l 1,15,-1
 272 1660 l 1,16,-1
 531 2009 l 1,17,-1
 698 2009 l 1,11,-1
EndSplineSet
EndChar

StartChar: Atilde
Encoding: 195 195 196
Width: 1229
GlyphClass: 2
Flags: W
LayerCount: 2
Fore
SplineSet
728 1491 m 1,0,-1
 1189 0 l 1,1,-1
 984 0 l 1,2,-1
 833 473 l 1,3,-1
 394 473 l 1,4,-1
 244 0 l 1,5,-1
 40 0 l 1,6,-1
 500 1491 l 1,7,-1
 728 1491 l 1,0,-1
433 636 m 1,8,-1
 795 636 l 1,9,-1
 617 1226 l 1,10,-1
 433 636 l 1,8,-1
1006 1930 m 1,11,12
 1000 1819 1000 1819 944 1751 c 128,-1,13
 888 1683 888 1683 783 1683 c 0,14,15
 736 1683 736 1683 691 1701 c 128,-1,16
 646 1719 646 1719 616 1741 c 128,-1,17
 586 1763 586 1763 542 1781 c 128,-1,18
 498 1799 498 1799 452 1799 c 0,19,20
 407 1799 407 1799 384.5 1771.5 c 128,-1,21
 362 1744 362 1744 360 1697 c 1,22,-1
 223 1697 l 1,23,24
 225 1811 225 1811 285 1876.5 c 128,-1,25
 345 1942 345 1942 457 1942 c 0,26,27
 505 1942 505 1942 549.5 1923.5 c 128,-1,28
 594 1905 594 1905 623.5 1883.5 c 128,-1,29
 653 1862 653 1862 696.5 1843.5 c 128,-1,30
 740 1825 740 1825 787 1825 c 0,31,32
 860 1825 860 1825 868 1930 c 1,33,-1
 1006 1930 l 1,11,12
EndSplineSet
EndChar

StartChar: Adieresis
Encoding: 196 196 197
Width: 1229
GlyphClass: 2
Flags: W
LayerCount: 2
Fore
SplineSet
728 1491 m 1,0,-1
 1189 0 l 1,1,-1
 984 0 l 1,2,-1
 833 473 l 1,3,-1
 394 473 l 1,4,-1
 244 0 l 1,5,-1
 40 0 l 1,6,-1
 500 1491 l 1,7,-1
 728 1491 l 1,0,-1
433 636 m 1,8,-1
 795 636 l 1,9,-1
 617 1226 l 1,10,-1
 433 636 l 1,8,-1
300 1842 m 1,11,12
 386 1842 386 1842 484 1852 c 1,13,14
 484 1766 484 1766 495 1673 c 1,15,16
 405 1673 405 1673 311 1662 c 1,17,18
 311 1749 311 1749 300 1842 c 1,11,12
735 1673 m 1,19,20
 744 1777 744 1777 744 1852 c 1,21,22
 842 1842 842 1842 928 1842 c 1,23,24
 916 1756 916 1756 916 1662 c 1,25,26
 820 1673 820 1673 735 1673 c 1,19,20
EndSplineSet
EndChar

StartChar: Aring
Encoding: 197 197 198
Width: 1229
GlyphClass: 2
Flags: W
LayerCount: 2
Fore
SplineSet
728 1491 m 1,0,-1
 1189 0 l 1,1,-1
 984 0 l 1,2,-1
 833 473 l 1,3,-1
 394 473 l 1,4,-1
 244 0 l 1,5,-1
 40 0 l 1,6,-1
 500 1491 l 1,7,-1
 728 1491 l 1,0,-1
433 636 m 1,8,-1
 795 636 l 1,9,-1
 617 1226 l 1,10,-1
 433 636 l 1,8,-1
627 1962 m 0,11,12
 568 1962 568 1962 530 1932 c 128,-1,13
 492 1902 492 1902 492 1848 c 0,14,15
 492 1801 492 1801 522 1767.5 c 128,-1,16
 552 1734 552 1734 598 1734 c 0,17,18
 658 1734 658 1734 698 1764.5 c 128,-1,19
 738 1795 738 1795 738 1850 c 0,20,21
 738 1895 738 1895 705 1928.5 c 128,-1,22
 672 1962 672 1962 627 1962 c 0,11,12
847 1849 m 0,23,24
 847 1759 847 1759 779 1700 c 128,-1,25
 711 1641 711 1641 617 1641 c 0,26,27
 519 1641 519 1641 450.5 1699 c 128,-1,28
 382 1757 382 1757 382 1849 c 128,-1,29
 382 1941 382 1941 450 1998 c 128,-1,30
 518 2055 518 2055 616 2055 c 0,31,32
 712 2055 712 2055 779.5 1997.5 c 128,-1,33
 847 1940 847 1940 847 1849 c 0,23,24
EndSplineSet
EndChar

StartChar: AE
Encoding: 198 198 199
Width: 1229
GlyphClass: 2
Flags: W
LayerCount: 2
Fore
SplineSet
2073 1581 m 1,0,-1
 2073 1420 l 1,1,-1
 1277 1420 l 1,2,-1
 1318 890 l 1,3,-1
 2027 890 l 1,4,-1
 2027 729 l 1,5,-1
 1340 729 l 1,6,-1
 1385 160 l 1,7,-1
 2098 160 l 1,8,-1
 2098 0 l 1,9,-1
 1217 0 l 1,10,-1
 1181 432 l 1,11,-1
 467 432 l 1,12,-1
 216 0 l 1,13,-1
 0 0 l 1,14,-1
 919 1581 l 1,15,-1
 2073 1581 l 1,0,-1
555 592 m 1,16,-1
 1160 592 l 1,17,-1
 1094 1420 l 1,18,-1
 1040 1420 l 1,19,-1
 555 592 l 1,16,-1
EndSplineSet
EndChar

StartChar: Ccedilla
Encoding: 199 199 200
Width: 1229
GlyphClass: 2
Flags: W
LayerCount: 2
Fore
SplineSet
1159 1389 m 1,0,-1
 1089 1249 l 1,1,2
 942 1356 942 1356 758 1356 c 0,3,4
 667 1356 667 1356 593.5 1324 c 128,-1,5
 520 1292 520 1292 470.5 1236 c 128,-1,6
 421 1180 421 1180 388 1102.5 c 128,-1,7
 355 1025 355 1025 340 936.5 c 128,-1,8
 325 848 325 848 325 748 c 0,9,10
 325 618 325 618 352 508 c 128,-1,11
 379 398 379 398 431 314 c 128,-1,12
 483 230 483 230 567 183 c 128,-1,13
 651 136 651 136 758 136 c 0,14,15
 950 136 950 136 1091 244 c 1,16,-1
 1160 103 l 1,17,18
 1004 -25 1004 -25 739 -25 c 0,19,20
 546 -25 546 -25 406 79.5 c 128,-1,21
 266 184 266 184 197.5 357 c 128,-1,22
 129 530 129 530 129 750 c 0,23,24
 129 975 129 975 204 1149 c 128,-1,25
 279 1323 279 1323 418 1419.5 c 128,-1,26
 557 1516 557 1516 739 1516 c 0,27,28
 1003 1516 1003 1516 1159 1389 c 1,0,-1
717 -261 m 128,-1,30
 717 -183 717 -183 595 -183 c 0,31,32
 588 -183 588 -183 520 -188 c 1,33,-1
 555 19 l 1,34,-1
 663 19 l 1,35,-1
 643 -98 l 1,36,-1
 652 -97 l 1,37,38
 751 -97 751 -97 812.5 -136 c 128,-1,39
 874 -175 874 -175 874 -260 c 0,40,41
 874 -428 874 -428 603 -428 c 0,42,43
 527 -428 527 -428 414 -405 c 1,44,-1
 423 -313 l 1,45,46
 534 -339 534 -339 590 -339 c 0,47,29
 717 -339 717 -339 717 -261 c 128,-1,30
EndSplineSet
EndChar

StartChar: Egrave
Encoding: 200 200 201
Width: 1229
GlyphClass: 2
Flags: W
LayerCount: 2
Fore
SplineSet
404 684 m 1,0,-1
 404 163 l 1,1,-1
 1141 163 l 1,2,-1
 1126 0 l 1,3,-1
 217 0 l 1,4,-1
 217 1491 l 1,5,-1
 1108 1491 l 1,6,-1
 1092 1328 l 1,7,-1
 404 1328 l 1,8,-1
 404 843 l 1,9,-1
 1059 843 l 1,10,-1
 1059 684 l 1,11,-1
 404 684 l 1,0,-1
656 2099 m 1,12,-1
 939 1662 l 1,13,-1
 800 1662 l 1,14,-1
 420 2099 l 1,15,-1
 656 2099 l 1,12,-1
EndSplineSet
EndChar

StartChar: Eacute
Encoding: 201 201 202
Width: 1229
GlyphClass: 2
Flags: W
LayerCount: 2
Fore
SplineSet
404 684 m 1,0,-1
 404 163 l 1,1,-1
 1141 163 l 1,2,-1
 1126 0 l 1,3,-1
 217 0 l 1,4,-1
 217 1491 l 1,5,-1
 1108 1491 l 1,6,-1
 1092 1328 l 1,7,-1
 404 1328 l 1,8,-1
 404 843 l 1,9,-1
 1059 843 l 1,10,-1
 1059 684 l 1,11,-1
 404 684 l 1,0,-1
433 1662 m 1,12,-1
 694 2099 l 1,13,-1
 926 2099 l 1,14,-1
 575 1662 l 1,15,-1
 433 1662 l 1,12,-1
EndSplineSet
EndChar

StartChar: Ecircumflex
Encoding: 202 202 203
Width: 1229
GlyphClass: 2
Flags: W
LayerCount: 2
Fore
SplineSet
404 684 m 1,0,-1
 404 163 l 1,1,-1
 1141 163 l 1,2,-1
 1126 0 l 1,3,-1
 217 0 l 1,4,-1
 217 1491 l 1,5,-1
 1108 1491 l 1,6,-1
 1092 1328 l 1,7,-1
 404 1328 l 1,8,-1
 404 843 l 1,9,-1
 1059 843 l 1,10,-1
 1059 684 l 1,11,-1
 404 684 l 1,0,-1
763 2009 m 1,12,-1
 1022 1660 l 1,13,-1
 879 1660 l 1,14,-1
 675 1895 l 1,15,-1
 473 1660 l 1,16,-1
 337 1660 l 1,17,-1
 596 2009 l 1,18,-1
 763 2009 l 1,12,-1
EndSplineSet
EndChar

StartChar: Edieresis
Encoding: 203 203 204
Width: 1229
GlyphClass: 2
Flags: W
LayerCount: 2
Fore
SplineSet
404 684 m 1,0,-1
 404 163 l 1,1,-1
 1141 163 l 1,2,-1
 1126 0 l 1,3,-1
 217 0 l 1,4,-1
 217 1491 l 1,5,-1
 1108 1491 l 1,6,-1
 1092 1328 l 1,7,-1
 404 1328 l 1,8,-1
 404 843 l 1,9,-1
 1059 843 l 1,10,-1
 1059 684 l 1,11,-1
 404 684 l 1,0,-1
365 1842 m 1,12,13
 451 1842 451 1842 549 1852 c 1,14,15
 549 1766 549 1766 560 1673 c 1,16,17
 470 1673 470 1673 376 1662 c 1,18,19
 376 1749 376 1749 365 1842 c 1,12,13
800 1673 m 1,20,21
 809 1777 809 1777 809 1852 c 1,22,23
 907 1842 907 1842 993 1842 c 1,24,25
 981 1756 981 1756 981 1662 c 1,26,27
 885 1673 885 1673 800 1673 c 1,20,21
EndSplineSet
EndChar

StartChar: Igrave
Encoding: 204 204 205
Width: 1229
GlyphClass: 2
Flags: W
LayerCount: 2
Fore
SplineSet
194 1328 m 1,0,-1
 194 1491 l 1,1,-1
 1035 1491 l 1,2,-1
 1035 1328 l 1,3,-1
 704 1328 l 1,4,-1
 704 163 l 1,5,-1
 1035 163 l 1,6,-1
 1035 0 l 1,7,-1
 194 0 l 1,8,-1
 194 163 l 1,9,-1
 517 163 l 1,10,-1
 517 1328 l 1,11,-1
 194 1328 l 1,0,-1
591 2099 m 1,12,-1
 874 1662 l 1,13,-1
 735 1662 l 1,14,-1
 355 2099 l 1,15,-1
 591 2099 l 1,12,-1
EndSplineSet
EndChar

StartChar: Iacute
Encoding: 205 205 206
Width: 1229
GlyphClass: 2
Flags: W
LayerCount: 2
Fore
SplineSet
194 1328 m 1,0,-1
 194 1491 l 1,1,-1
 1035 1491 l 1,2,-1
 1035 1328 l 1,3,-1
 704 1328 l 1,4,-1
 704 163 l 1,5,-1
 1035 163 l 1,6,-1
 1035 0 l 1,7,-1
 194 0 l 1,8,-1
 194 163 l 1,9,-1
 517 163 l 1,10,-1
 517 1328 l 1,11,-1
 194 1328 l 1,0,-1
368 1662 m 1,12,-1
 629 2099 l 1,13,-1
 861 2099 l 1,14,-1
 510 1662 l 1,15,-1
 368 1662 l 1,12,-1
EndSplineSet
EndChar

StartChar: Icircumflex
Encoding: 206 206 207
Width: 1229
GlyphClass: 2
Flags: W
LayerCount: 2
Fore
SplineSet
194 1328 m 1,0,-1
 194 1491 l 1,1,-1
 1035 1491 l 1,2,-1
 1035 1328 l 1,3,-1
 704 1328 l 1,4,-1
 704 163 l 1,5,-1
 1035 163 l 1,6,-1
 1035 0 l 1,7,-1
 194 0 l 1,8,-1
 194 163 l 1,9,-1
 517 163 l 1,10,-1
 517 1328 l 1,11,-1
 194 1328 l 1,0,-1
698 2009 m 1,12,-1
 957 1660 l 1,13,-1
 814 1660 l 1,14,-1
 610 1895 l 1,15,-1
 408 1660 l 1,16,-1
 272 1660 l 1,17,-1
 531 2009 l 1,18,-1
 698 2009 l 1,12,-1
EndSplineSet
EndChar

StartChar: Idieresis
Encoding: 207 207 208
Width: 1229
GlyphClass: 2
Flags: W
LayerCount: 2
Fore
SplineSet
194 1328 m 1,0,-1
 194 1491 l 1,1,-1
 1035 1491 l 1,2,-1
 1035 1328 l 1,3,-1
 704 1328 l 1,4,-1
 704 163 l 1,5,-1
 1035 163 l 1,6,-1
 1035 0 l 1,7,-1
 194 0 l 1,8,-1
 194 163 l 1,9,-1
 517 163 l 1,10,-1
 517 1328 l 1,11,-1
 194 1328 l 1,0,-1
300 1842 m 1,12,13
 386 1842 386 1842 484 1852 c 1,14,15
 484 1766 484 1766 495 1673 c 1,16,17
 405 1673 405 1673 311 1662 c 1,18,19
 311 1749 311 1749 300 1842 c 1,12,13
735 1673 m 1,20,21
 744 1777 744 1777 744 1852 c 1,22,23
 842 1842 842 1842 928 1842 c 1,24,25
 916 1756 916 1756 916 1662 c 1,26,27
 820 1673 820 1673 735 1673 c 1,20,21
EndSplineSet
EndChar

StartChar: Eth
Encoding: 208 208 209
Width: 1229
GlyphClass: 2
Flags: W
LayerCount: 2
Fore
SplineSet
563 1581 m 2,0,1
 751 1581 751 1581 902 1556.5 c 128,-1,2
 1053 1532 1053 1532 1182.5 1475 c 128,-1,3
 1312 1418 1312 1418 1399 1327.5 c 128,-1,4
 1486 1237 1486 1237 1535 1100.5 c 128,-1,5
 1584 964 1584 964 1584 786 c 0,6,7
 1584 593 1584 593 1516.5 442 c 128,-1,8
 1449 291 1449 291 1327 195 c 128,-1,9
 1205 99 1205 99 1040.5 49.5 c 128,-1,10
 876 0 876 0 676 0 c 2,11,-1
 215 0 l 1,12,-1
 215 714 l 1,13,-1
 0 714 l 1,14,-1
 0 863 l 1,15,-1
 215 863 l 1,16,-1
 215 1581 l 1,17,-1
 563 1581 l 2,0,1
694 160 m 2,18,19
 1015 160 1015 160 1198 318.5 c 128,-1,20
 1381 477 1381 477 1381 782 c 0,21,22
 1381 928 1381 928 1345 1037.5 c 128,-1,23
 1309 1147 1309 1147 1243.5 1219.5 c 128,-1,24
 1178 1292 1178 1292 1078 1337 c 128,-1,25
 978 1382 978 1382 859 1401 c 128,-1,26
 740 1420 740 1420 587 1420 c 2,27,-1
 405 1420 l 1,28,-1
 405 863 l 1,29,-1
 633 863 l 1,30,-1
 633 714 l 1,31,-1
 405 714 l 1,32,-1
 405 160 l 1,33,-1
 694 160 l 2,18,19
EndSplineSet
EndChar

StartChar: Ntilde
Encoding: 209 209 210
Width: 1229
GlyphClass: 2
Flags: W
LayerCount: 2
Fore
SplineSet
1078 0 m 1,0,-1
 858 0 l 1,1,-1
 324 1166 l 1,2,-1
 324 0 l 1,3,-1
 150 0 l 1,4,-1
 150 1491 l 1,5,-1
 365 1491 l 1,6,-1
 907 299 l 1,7,-1
 907 1491 l 1,8,-1
 1078 1491 l 1,9,-1
 1078 0 l 1,0,-1
1006 1930 m 1,10,11
 1000 1819 1000 1819 944 1751 c 128,-1,12
 888 1683 888 1683 783 1683 c 0,13,14
 736 1683 736 1683 691 1701 c 128,-1,15
 646 1719 646 1719 616 1741 c 128,-1,16
 586 1763 586 1763 542 1781 c 128,-1,17
 498 1799 498 1799 452 1799 c 0,18,19
 407 1799 407 1799 384.5 1771.5 c 128,-1,20
 362 1744 362 1744 360 1697 c 1,21,-1
 223 1697 l 1,22,23
 225 1811 225 1811 285 1876.5 c 128,-1,24
 345 1942 345 1942 457 1942 c 0,25,26
 505 1942 505 1942 549.5 1923.5 c 128,-1,27
 594 1905 594 1905 623.5 1883.5 c 128,-1,28
 653 1862 653 1862 696.5 1843.5 c 128,-1,29
 740 1825 740 1825 787 1825 c 0,30,31
 860 1825 860 1825 868 1930 c 1,32,-1
 1006 1930 l 1,10,11
EndSplineSet
EndChar

StartChar: Ograve
Encoding: 210 210 211
Width: 1229
GlyphClass: 2
Flags: W
LayerCount: 2
Fore
SplineSet
614 -25 m 128,-1,1
 491 -25 491 -25 395 37.5 c 128,-1,2
 299 100 299 100 240.5 208 c 128,-1,3
 182 316 182 316 152.5 453 c 128,-1,4
 123 590 123 590 123 747 c 0,5,6
 123 865 123 865 138 972 c 128,-1,7
 153 1079 153 1079 189 1180 c 128,-1,8
 225 1281 225 1281 280 1354.5 c 128,-1,9
 335 1428 335 1428 420.5 1472 c 128,-1,10
 506 1516 506 1516 614 1516 c 128,-1,11
 722 1516 722 1516 807.5 1472 c 128,-1,12
 893 1428 893 1428 948 1354.5 c 128,-1,13
 1003 1281 1003 1281 1039 1180 c 128,-1,14
 1075 1079 1075 1079 1090 972 c 128,-1,15
 1105 865 1105 865 1105 747 c 0,16,17
 1105 590 1105 590 1075.5 453 c 128,-1,18
 1046 316 1046 316 987.5 208 c 128,-1,19
 929 100 929 100 833 37.5 c 128,-1,0
 737 -25 737 -25 614 -25 c 128,-1,1
614 1356 m 128,-1,21
 518 1356 518 1356 450.5 1274.5 c 128,-1,22
 383 1193 383 1193 351 1057.5 c 128,-1,23
 319 922 319 922 319 746 c 128,-1,24
 319 570 319 570 351 434.5 c 128,-1,25
 383 299 383 299 451 217.5 c 128,-1,26
 519 136 519 136 614 136 c 128,-1,27
 709 136 709 136 777 217.5 c 128,-1,28
 845 299 845 299 877 434.5 c 128,-1,29
 909 570 909 570 909 746 c 128,-1,30
 909 922 909 922 877 1057.5 c 128,-1,31
 845 1193 845 1193 777.5 1274.5 c 128,-1,20
 710 1356 710 1356 614 1356 c 128,-1,21
591 2099 m 1,32,-1
 874 1662 l 1,33,-1
 735 1662 l 1,34,-1
 355 2099 l 1,35,-1
 591 2099 l 1,32,-1
EndSplineSet
EndChar

StartChar: Oacute
Encoding: 211 211 212
Width: 1229
GlyphClass: 2
Flags: W
LayerCount: 2
Fore
SplineSet
614 -25 m 128,-1,1
 491 -25 491 -25 395 37.5 c 128,-1,2
 299 100 299 100 240.5 208 c 128,-1,3
 182 316 182 316 152.5 453 c 128,-1,4
 123 590 123 590 123 747 c 0,5,6
 123 865 123 865 138 972 c 128,-1,7
 153 1079 153 1079 189 1180 c 128,-1,8
 225 1281 225 1281 280 1354.5 c 128,-1,9
 335 1428 335 1428 420.5 1472 c 128,-1,10
 506 1516 506 1516 614 1516 c 128,-1,11
 722 1516 722 1516 807.5 1472 c 128,-1,12
 893 1428 893 1428 948 1354.5 c 128,-1,13
 1003 1281 1003 1281 1039 1180 c 128,-1,14
 1075 1079 1075 1079 1090 972 c 128,-1,15
 1105 865 1105 865 1105 747 c 0,16,17
 1105 590 1105 590 1075.5 453 c 128,-1,18
 1046 316 1046 316 987.5 208 c 128,-1,19
 929 100 929 100 833 37.5 c 128,-1,0
 737 -25 737 -25 614 -25 c 128,-1,1
614 1356 m 128,-1,21
 518 1356 518 1356 450.5 1274.5 c 128,-1,22
 383 1193 383 1193 351 1057.5 c 128,-1,23
 319 922 319 922 319 746 c 128,-1,24
 319 570 319 570 351 434.5 c 128,-1,25
 383 299 383 299 451 217.5 c 128,-1,26
 519 136 519 136 614 136 c 128,-1,27
 709 136 709 136 777 217.5 c 128,-1,28
 845 299 845 299 877 434.5 c 128,-1,29
 909 570 909 570 909 746 c 128,-1,30
 909 922 909 922 877 1057.5 c 128,-1,31
 845 1193 845 1193 777.5 1274.5 c 128,-1,20
 710 1356 710 1356 614 1356 c 128,-1,21
368 1662 m 1,32,-1
 629 2099 l 1,33,-1
 861 2099 l 1,34,-1
 510 1662 l 1,35,-1
 368 1662 l 1,32,-1
EndSplineSet
EndChar

StartChar: Ocircumflex
Encoding: 212 212 213
Width: 1229
GlyphClass: 2
Flags: W
LayerCount: 2
Fore
SplineSet
614 -25 m 128,-1,1
 491 -25 491 -25 395 37.5 c 128,-1,2
 299 100 299 100 240.5 208 c 128,-1,3
 182 316 182 316 152.5 453 c 128,-1,4
 123 590 123 590 123 747 c 0,5,6
 123 865 123 865 138 972 c 128,-1,7
 153 1079 153 1079 189 1180 c 128,-1,8
 225 1281 225 1281 280 1354.5 c 128,-1,9
 335 1428 335 1428 420.5 1472 c 128,-1,10
 506 1516 506 1516 614 1516 c 128,-1,11
 722 1516 722 1516 807.5 1472 c 128,-1,12
 893 1428 893 1428 948 1354.5 c 128,-1,13
 1003 1281 1003 1281 1039 1180 c 128,-1,14
 1075 1079 1075 1079 1090 972 c 128,-1,15
 1105 865 1105 865 1105 747 c 0,16,17
 1105 590 1105 590 1075.5 453 c 128,-1,18
 1046 316 1046 316 987.5 208 c 128,-1,19
 929 100 929 100 833 37.5 c 128,-1,0
 737 -25 737 -25 614 -25 c 128,-1,1
614 1356 m 128,-1,21
 518 1356 518 1356 450.5 1274.5 c 128,-1,22
 383 1193 383 1193 351 1057.5 c 128,-1,23
 319 922 319 922 319 746 c 128,-1,24
 319 570 319 570 351 434.5 c 128,-1,25
 383 299 383 299 451 217.5 c 128,-1,26
 519 136 519 136 614 136 c 128,-1,27
 709 136 709 136 777 217.5 c 128,-1,28
 845 299 845 299 877 434.5 c 128,-1,29
 909 570 909 570 909 746 c 128,-1,30
 909 922 909 922 877 1057.5 c 128,-1,31
 845 1193 845 1193 777.5 1274.5 c 128,-1,20
 710 1356 710 1356 614 1356 c 128,-1,21
698 2009 m 1,32,-1
 957 1660 l 1,33,-1
 814 1660 l 1,34,-1
 610 1895 l 1,35,-1
 408 1660 l 1,36,-1
 272 1660 l 1,37,-1
 531 2009 l 1,38,-1
 698 2009 l 1,32,-1
EndSplineSet
EndChar

StartChar: Otilde
Encoding: 213 213 214
Width: 1229
GlyphClass: 2
Flags: W
LayerCount: 2
Fore
SplineSet
614 -25 m 128,-1,1
 491 -25 491 -25 395 37.5 c 128,-1,2
 299 100 299 100 240.5 208 c 128,-1,3
 182 316 182 316 152.5 453 c 128,-1,4
 123 590 123 590 123 747 c 0,5,6
 123 865 123 865 138 972 c 128,-1,7
 153 1079 153 1079 189 1180 c 128,-1,8
 225 1281 225 1281 280 1354.5 c 128,-1,9
 335 1428 335 1428 420.5 1472 c 128,-1,10
 506 1516 506 1516 614 1516 c 128,-1,11
 722 1516 722 1516 807.5 1472 c 128,-1,12
 893 1428 893 1428 948 1354.5 c 128,-1,13
 1003 1281 1003 1281 1039 1180 c 128,-1,14
 1075 1079 1075 1079 1090 972 c 128,-1,15
 1105 865 1105 865 1105 747 c 0,16,17
 1105 590 1105 590 1075.5 453 c 128,-1,18
 1046 316 1046 316 987.5 208 c 128,-1,19
 929 100 929 100 833 37.5 c 128,-1,0
 737 -25 737 -25 614 -25 c 128,-1,1
614 1356 m 128,-1,21
 518 1356 518 1356 450.5 1274.5 c 128,-1,22
 383 1193 383 1193 351 1057.5 c 128,-1,23
 319 922 319 922 319 746 c 128,-1,24
 319 570 319 570 351 434.5 c 128,-1,25
 383 299 383 299 451 217.5 c 128,-1,26
 519 136 519 136 614 136 c 128,-1,27
 709 136 709 136 777 217.5 c 128,-1,28
 845 299 845 299 877 434.5 c 128,-1,29
 909 570 909 570 909 746 c 128,-1,30
 909 922 909 922 877 1057.5 c 128,-1,31
 845 1193 845 1193 777.5 1274.5 c 128,-1,20
 710 1356 710 1356 614 1356 c 128,-1,21
1006 1930 m 1,32,33
 1000 1819 1000 1819 944 1751 c 128,-1,34
 888 1683 888 1683 783 1683 c 0,35,36
 736 1683 736 1683 691 1701 c 128,-1,37
 646 1719 646 1719 616 1741 c 128,-1,38
 586 1763 586 1763 542 1781 c 128,-1,39
 498 1799 498 1799 452 1799 c 0,40,41
 407 1799 407 1799 384.5 1771.5 c 128,-1,42
 362 1744 362 1744 360 1697 c 1,43,-1
 223 1697 l 1,44,45
 225 1811 225 1811 285 1876.5 c 128,-1,46
 345 1942 345 1942 457 1942 c 0,47,48
 505 1942 505 1942 549.5 1923.5 c 128,-1,49
 594 1905 594 1905 623.5 1883.5 c 128,-1,50
 653 1862 653 1862 696.5 1843.5 c 128,-1,51
 740 1825 740 1825 787 1825 c 0,52,53
 860 1825 860 1825 868 1930 c 1,54,-1
 1006 1930 l 1,32,33
EndSplineSet
EndChar

StartChar: Odieresis
Encoding: 214 214 215
Width: 1229
GlyphClass: 2
Flags: W
LayerCount: 2
Fore
SplineSet
614 -25 m 128,-1,1
 491 -25 491 -25 395 37.5 c 128,-1,2
 299 100 299 100 240.5 208 c 128,-1,3
 182 316 182 316 152.5 453 c 128,-1,4
 123 590 123 590 123 747 c 0,5,6
 123 865 123 865 138 972 c 128,-1,7
 153 1079 153 1079 189 1180 c 128,-1,8
 225 1281 225 1281 280 1354.5 c 128,-1,9
 335 1428 335 1428 420.5 1472 c 128,-1,10
 506 1516 506 1516 614 1516 c 128,-1,11
 722 1516 722 1516 807.5 1472 c 128,-1,12
 893 1428 893 1428 948 1354.5 c 128,-1,13
 1003 1281 1003 1281 1039 1180 c 128,-1,14
 1075 1079 1075 1079 1090 972 c 128,-1,15
 1105 865 1105 865 1105 747 c 0,16,17
 1105 590 1105 590 1075.5 453 c 128,-1,18
 1046 316 1046 316 987.5 208 c 128,-1,19
 929 100 929 100 833 37.5 c 128,-1,0
 737 -25 737 -25 614 -25 c 128,-1,1
614 1356 m 128,-1,21
 518 1356 518 1356 450.5 1274.5 c 128,-1,22
 383 1193 383 1193 351 1057.5 c 128,-1,23
 319 922 319 922 319 746 c 128,-1,24
 319 570 319 570 351 434.5 c 128,-1,25
 383 299 383 299 451 217.5 c 128,-1,26
 519 136 519 136 614 136 c 128,-1,27
 709 136 709 136 777 217.5 c 128,-1,28
 845 299 845 299 877 434.5 c 128,-1,29
 909 570 909 570 909 746 c 128,-1,30
 909 922 909 922 877 1057.5 c 128,-1,31
 845 1193 845 1193 777.5 1274.5 c 128,-1,20
 710 1356 710 1356 614 1356 c 128,-1,21
300 1842 m 1,32,33
 386 1842 386 1842 484 1852 c 1,34,35
 484 1766 484 1766 495 1673 c 1,36,37
 405 1673 405 1673 311 1662 c 1,38,39
 311 1749 311 1749 300 1842 c 1,32,33
735 1673 m 1,40,41
 744 1777 744 1777 744 1852 c 1,42,43
 842 1842 842 1842 928 1842 c 1,44,45
 916 1756 916 1756 916 1662 c 1,46,47
 820 1673 820 1673 735 1673 c 1,40,41
EndSplineSet
EndChar

StartChar: multiply
Encoding: 215 215 216
Width: 1229
GlyphClass: 2
Flags: W
LayerCount: 2
Fore
SplineSet
1077 280 m 1,0,-1
 961 168 l 1,1,-1
 633 489 l 1,2,-1
 305 168 l 1,3,-1
 190 278 l 1,4,-1
 518 602 l 1,5,-1
 190 924 l 1,6,-1
 305 1036 l 1,7,-1
 633 713 l 1,8,-1
 961 1036 l 1,9,-1
 1077 923 l 1,10,-1
 747 602 l 1,11,-1
 1077 280 l 1,0,-1
EndSplineSet
EndChar

StartChar: Oslash
Encoding: 216 216 217
Width: 1229
GlyphClass: 2
Flags: W
LayerCount: 2
Fore
SplineSet
281 -222 m 1,0,-1
 146 -171 l 1,1,-1
 955 1717 l 1,2,-1
 1095 1675 l 1,3,-1
 281 -222 l 1,0,-1
614 -25 m 128,-1,5
 491 -25 491 -25 395 37.5 c 128,-1,6
 299 100 299 100 240.5 208 c 128,-1,7
 182 316 182 316 152.5 453 c 128,-1,8
 123 590 123 590 123 747 c 0,9,10
 123 865 123 865 138 972 c 128,-1,11
 153 1079 153 1079 189 1180 c 128,-1,12
 225 1281 225 1281 280 1354.5 c 128,-1,13
 335 1428 335 1428 420.5 1472 c 128,-1,14
 506 1516 506 1516 614 1516 c 128,-1,15
 722 1516 722 1516 807.5 1472 c 128,-1,16
 893 1428 893 1428 948 1354.5 c 128,-1,17
 1003 1281 1003 1281 1039 1180 c 128,-1,18
 1075 1079 1075 1079 1090 972 c 128,-1,19
 1105 865 1105 865 1105 747 c 0,20,21
 1105 590 1105 590 1075.5 453 c 128,-1,22
 1046 316 1046 316 987.5 208 c 128,-1,23
 929 100 929 100 833 37.5 c 128,-1,4
 737 -25 737 -25 614 -25 c 128,-1,5
614 1356 m 128,-1,25
 518 1356 518 1356 450.5 1274.5 c 128,-1,26
 383 1193 383 1193 351 1057.5 c 128,-1,27
 319 922 319 922 319 746 c 128,-1,28
 319 570 319 570 351 434.5 c 128,-1,29
 383 299 383 299 451 217.5 c 128,-1,30
 519 136 519 136 614 136 c 128,-1,31
 709 136 709 136 777 217.5 c 128,-1,32
 845 299 845 299 877 434.5 c 128,-1,33
 909 570 909 570 909 746 c 128,-1,34
 909 922 909 922 877 1057.5 c 128,-1,35
 845 1193 845 1193 777.5 1274.5 c 128,-1,24
 710 1356 710 1356 614 1356 c 128,-1,25
EndSplineSet
EndChar

StartChar: Ugrave
Encoding: 217 217 218
Width: 1229
GlyphClass: 2
Flags: W
LayerCount: 2
Fore
SplineSet
614 -25 m 128,-1,1
 129 -25 129 -25 129 542 c 2,2,-1
 129 1491 l 1,3,-1
 316 1491 l 1,4,-1
 316 548 l 2,5,6
 316 453 316 453 329 384 c 128,-1,7
 342 315 342 315 374.5 259.5 c 128,-1,8
 407 204 407 204 466.5 175.5 c 128,-1,9
 526 147 526 147 614 147 c 128,-1,10
 702 147 702 147 761.5 175.5 c 128,-1,11
 821 204 821 204 853.5 259.5 c 128,-1,12
 886 315 886 315 899 384 c 128,-1,13
 912 453 912 453 912 548 c 2,14,-1
 912 1491 l 1,15,-1
 1099 1491 l 1,16,-1
 1099 542 l 2,17,0
 1099 -25 1099 -25 614 -25 c 128,-1,1
591 2099 m 1,18,-1
 874 1662 l 1,19,-1
 735 1662 l 1,20,-1
 355 2099 l 1,21,-1
 591 2099 l 1,18,-1
EndSplineSet
EndChar

StartChar: Uacute
Encoding: 218 218 219
Width: 1229
GlyphClass: 2
Flags: W
LayerCount: 2
Fore
SplineSet
614 -25 m 128,-1,1
 129 -25 129 -25 129 542 c 2,2,-1
 129 1491 l 1,3,-1
 316 1491 l 1,4,-1
 316 548 l 2,5,6
 316 453 316 453 329 384 c 128,-1,7
 342 315 342 315 374.5 259.5 c 128,-1,8
 407 204 407 204 466.5 175.5 c 128,-1,9
 526 147 526 147 614 147 c 128,-1,10
 702 147 702 147 761.5 175.5 c 128,-1,11
 821 204 821 204 853.5 259.5 c 128,-1,12
 886 315 886 315 899 384 c 128,-1,13
 912 453 912 453 912 548 c 2,14,-1
 912 1491 l 1,15,-1
 1099 1491 l 1,16,-1
 1099 542 l 2,17,0
 1099 -25 1099 -25 614 -25 c 128,-1,1
368 1662 m 1,18,-1
 629 2099 l 1,19,-1
 861 2099 l 1,20,-1
 510 1662 l 1,21,-1
 368 1662 l 1,18,-1
EndSplineSet
EndChar

StartChar: Ucircumflex
Encoding: 219 219 220
Width: 1229
GlyphClass: 2
Flags: W
LayerCount: 2
Fore
SplineSet
614 -25 m 128,-1,1
 129 -25 129 -25 129 542 c 2,2,-1
 129 1491 l 1,3,-1
 316 1491 l 1,4,-1
 316 548 l 2,5,6
 316 453 316 453 329 384 c 128,-1,7
 342 315 342 315 374.5 259.5 c 128,-1,8
 407 204 407 204 466.5 175.5 c 128,-1,9
 526 147 526 147 614 147 c 128,-1,10
 702 147 702 147 761.5 175.5 c 128,-1,11
 821 204 821 204 853.5 259.5 c 128,-1,12
 886 315 886 315 899 384 c 128,-1,13
 912 453 912 453 912 548 c 2,14,-1
 912 1491 l 1,15,-1
 1099 1491 l 1,16,-1
 1099 542 l 2,17,0
 1099 -25 1099 -25 614 -25 c 128,-1,1
698 2009 m 1,18,-1
 957 1660 l 1,19,-1
 814 1660 l 1,20,-1
 610 1895 l 1,21,-1
 408 1660 l 1,22,-1
 272 1660 l 1,23,-1
 531 2009 l 1,24,-1
 698 2009 l 1,18,-1
EndSplineSet
EndChar

StartChar: Udieresis
Encoding: 220 220 221
Width: 1229
GlyphClass: 2
Flags: W
LayerCount: 2
Fore
SplineSet
614 -25 m 128,-1,1
 129 -25 129 -25 129 542 c 2,2,-1
 129 1491 l 1,3,-1
 316 1491 l 1,4,-1
 316 548 l 2,5,6
 316 453 316 453 329 384 c 128,-1,7
 342 315 342 315 374.5 259.5 c 128,-1,8
 407 204 407 204 466.5 175.5 c 128,-1,9
 526 147 526 147 614 147 c 128,-1,10
 702 147 702 147 761.5 175.5 c 128,-1,11
 821 204 821 204 853.5 259.5 c 128,-1,12
 886 315 886 315 899 384 c 128,-1,13
 912 453 912 453 912 548 c 2,14,-1
 912 1491 l 1,15,-1
 1099 1491 l 1,16,-1
 1099 542 l 2,17,0
 1099 -25 1099 -25 614 -25 c 128,-1,1
300 1842 m 1,18,19
 386 1842 386 1842 484 1852 c 1,20,21
 484 1766 484 1766 495 1673 c 1,22,23
 405 1673 405 1673 311 1662 c 1,24,25
 311 1749 311 1749 300 1842 c 1,18,19
735 1673 m 1,26,27
 744 1777 744 1777 744 1852 c 1,28,29
 842 1842 842 1842 928 1842 c 1,30,31
 916 1756 916 1756 916 1662 c 1,32,33
 820 1673 820 1673 735 1673 c 1,26,27
EndSplineSet
EndChar

StartChar: Yacute
Encoding: 221 221 222
Width: 1229
GlyphClass: 2
Flags: W
LayerCount: 2
Fore
SplineSet
715 0 m 1,0,-1
 503 0 l 1,1,-1
 503 593 l 1,2,-1
 49 1491 l 1,3,-1
 275 1491 l 1,4,-1
 610 788 l 1,5,-1
 949 1491 l 1,6,-1
 1180 1491 l 1,7,-1
 715 593 l 1,8,-1
 715 0 l 1,0,-1
368 1662 m 1,9,-1
 629 2099 l 1,10,-1
 861 2099 l 1,11,-1
 510 1662 l 1,12,-1
 368 1662 l 1,9,-1
EndSplineSet
EndChar

StartChar: Thorn
Encoding: 222 222 223
Width: 1229
GlyphClass: 2
Flags: W
LayerCount: 2
Fore
SplineSet
1279 951 m 0,0,1
 1279 878 1279 878 1261.5 817 c 128,-1,2
 1244 756 1244 756 1216 711 c 128,-1,3
 1188 666 1188 666 1141 630.5 c 128,-1,4
 1094 595 1094 595 1046.5 571 c 128,-1,5
 999 547 999 547 930.5 530 c 128,-1,6
 862 513 862 513 802.5 503.5 c 128,-1,7
 743 494 743 494 661 489 c 128,-1,8
 579 484 579 484 516 482.5 c 128,-1,9
 453 481 453 481 366 481 c 1,10,-1
 366 0 l 1,11,-1
 176 0 l 1,12,-1
 176 1581 l 1,13,-1
 366 1581 l 1,14,-1
 366 1424 l 1,15,16
 464 1424 464 1424 521 1423 c 128,-1,17
 578 1422 578 1422 668 1418 c 128,-1,18
 758 1414 758 1414 811.5 1405.5 c 128,-1,19
 865 1397 865 1397 937.5 1380.5 c 128,-1,20
 1010 1364 1010 1364 1053 1340.5 c 128,-1,21
 1096 1317 1096 1317 1144.5 1281 c 128,-1,22
 1193 1245 1193 1245 1219 1199 c 128,-1,23
 1245 1153 1245 1153 1262 1090 c 128,-1,24
 1279 1027 1279 1027 1279 951 c 0,0,1
655 643 m 2,25,26
 1075 643 1075 643 1075 956 c 0,27,28
 1075 1032 1075 1032 1050 1088 c 128,-1,29
 1025 1144 1025 1144 984 1177 c 128,-1,30
 943 1210 943 1210 880 1230 c 128,-1,31
 817 1250 817 1250 752 1257 c 128,-1,32
 687 1264 687 1264 603 1264 c 2,33,-1
 366 1264 l 1,34,-1
 366 643 l 1,35,-1
 655 643 l 2,25,26
EndSplineSet
EndChar

StartChar: germandbls
Encoding: 223 223 224
Width: 1229
GlyphClass: 2
Flags: W
LayerCount: 2
Fore
SplineSet
664 1599 m 0,0,1
 741 1599 741 1599 809 1587.5 c 128,-1,2
 877 1576 877 1576 938.5 1549.5 c 128,-1,3
 1000 1523 1000 1523 1044.5 1484 c 128,-1,4
 1089 1445 1089 1445 1115 1386.5 c 128,-1,5
 1141 1328 1141 1328 1141 1256 c 0,6,7
 1141 1214 1141 1214 1131 1175 c 128,-1,8
 1121 1136 1121 1136 1098.5 1102 c 128,-1,9
 1076 1068 1076 1068 1055 1042 c 128,-1,10
 1034 1016 1034 1016 997.5 986 c 128,-1,11
 961 956 961 956 940 940 c 128,-1,12
 919 924 919 924 878 896 c 128,-1,13
 837 868 837 868 823 858 c 1,14,15
 860 835 860 835 928.5 799 c 128,-1,16
 997 763 997 763 1047 736.5 c 128,-1,17
 1097 710 1097 710 1157 667.5 c 128,-1,18
 1217 625 1217 625 1255.5 584.5 c 128,-1,19
 1294 544 1294 544 1320.5 486 c 128,-1,20
 1347 428 1347 428 1347 363 c 0,21,22
 1347 174 1347 174 1228 74 c 128,-1,23
 1109 -26 1109 -26 908 -26 c 0,24,25
 798 -26 798 -26 701 0.5 c 128,-1,26
 604 27 604 27 541 76 c 1,27,-1
 612 225 l 1,28,29
 762 139 762 139 892 139 c 0,30,31
 991 139 991 139 1051 195 c 128,-1,32
 1111 251 1111 251 1111 347 c 0,33,34
 1111 369 1111 369 1106.5 390 c 128,-1,35
 1102 411 1102 411 1095 428.5 c 128,-1,36
 1088 446 1088 446 1075 463.5 c 128,-1,37
 1062 481 1062 481 1052 494 c 128,-1,38
 1042 507 1042 507 1023 522.5 c 128,-1,39
 1004 538 1004 538 992.5 547 c 128,-1,40
 981 556 981 556 959 570 c 128,-1,41
 937 584 937 584 926 590.5 c 128,-1,42
 915 597 915 597 892.5 610 c 128,-1,43
 870 623 870 623 862 627 c 0,44,45
 850 634 850 634 803 659.5 c 128,-1,46
 756 685 756 685 733 700 c 128,-1,47
 710 715 710 715 676.5 740 c 128,-1,48
 643 765 643 765 628 790 c 128,-1,49
 613 815 613 815 613 841 c 0,50,51
 613 862 613 862 621.5 882.5 c 128,-1,52
 630 903 630 903 640 917.5 c 128,-1,53
 650 932 650 932 670.5 950.5 c 128,-1,54
 691 969 691 969 702.5 977.5 c 128,-1,55
 714 986 714 986 738 1002.5 c 128,-1,56
 762 1019 762 1019 768 1023 c 0,57,58
 801 1047 801 1047 822.5 1065 c 128,-1,59
 844 1083 844 1083 870 1112.5 c 128,-1,60
 896 1142 896 1142 909 1177.5 c 128,-1,61
 922 1213 922 1213 922 1254 c 0,62,63
 922 1319 922 1319 884 1362.5 c 128,-1,64
 846 1406 846 1406 789 1424 c 128,-1,65
 732 1442 732 1442 660 1442 c 0,66,67
 519 1442 519 1442 450.5 1347.5 c 128,-1,68
 382 1253 382 1253 382 1096 c 2,69,-1
 382 0 l 1,70,-1
 164 0 l 1,71,-1
 164 1116 l 2,72,73
 164 1349 164 1349 295.5 1474 c 128,-1,74
 427 1599 427 1599 664 1599 c 0,0,1
EndSplineSet
EndChar

StartChar: agrave
Encoding: 224 224 225
Width: 1229
GlyphClass: 2
Flags: W
LayerCount: 2
Fore
SplineSet
494 -25 m 0,0,1
 338 -25 338 -25 236.5 55.5 c 128,-1,2
 135 136 135 136 135 280 c 0,3,4
 135 349 135 349 157 401 c 128,-1,5
 179 453 179 453 222.5 487 c 128,-1,6
 266 521 266 521 317.5 543 c 128,-1,7
 369 565 369 565 443.5 575.5 c 128,-1,8
 518 586 518 586 585 590 c 128,-1,9
 652 594 652 594 742 594 c 2,10,-1
 858 594 l 1,11,-1
 858 786 l 2,12,13
 858 969 858 969 659 969 c 0,14,15
 417 969 417 969 245 894 c 1,16,-1
 201 1053 l 1,17,18
 398 1130 398 1130 668 1130 c 0,19,20
 851 1130 851 1130 961 1052 c 128,-1,21
 1071 974 1071 974 1071 811 c 2,22,-1
 1071 0 l 1,23,-1
 915 0 l 1,24,-1
 891 84 l 1,25,26
 822 52 822 52 770.5 32 c 128,-1,27
 719 12 719 12 641.5 -6.5 c 128,-1,28
 564 -25 564 -25 494 -25 c 0,0,1
500 129 m 0,29,30
 530 129 530 129 558 131 c 128,-1,31
 586 133 586 133 615.5 138.5 c 128,-1,32
 645 144 645 144 665 148 c 128,-1,33
 685 152 685 152 717.5 162 c 128,-1,34
 750 172 750 172 762.5 176 c 128,-1,35
 775 180 775 180 812 192.5 c 128,-1,36
 849 205 849 205 858 208 c 1,37,-1
 858 452 l 1,38,-1
 739 452 l 2,39,40
 695 452 695 452 663.5 451 c 128,-1,41
 632 450 632 450 587.5 446.5 c 128,-1,42
 543 443 543 443 511.5 436.5 c 128,-1,43
 480 430 480 430 446 417 c 128,-1,44
 412 404 412 404 391 386.5 c 128,-1,45
 370 369 370 369 356.5 341.5 c 128,-1,46
 343 314 343 314 343 280 c 0,47,48
 343 210 343 210 385 169.5 c 128,-1,49
 427 129 427 129 500 129 c 0,29,30
580 1705 m 1,50,-1
 863 1268 l 1,51,-1
 724 1268 l 1,52,-1
 344 1705 l 1,53,-1
 580 1705 l 1,50,-1
EndSplineSet
EndChar

StartChar: aacute
Encoding: 225 225 226
Width: 1229
GlyphClass: 2
Flags: W
LayerCount: 2
Fore
SplineSet
494 -25 m 0,0,1
 338 -25 338 -25 236.5 55.5 c 128,-1,2
 135 136 135 136 135 280 c 0,3,4
 135 349 135 349 157 401 c 128,-1,5
 179 453 179 453 222.5 487 c 128,-1,6
 266 521 266 521 317.5 543 c 128,-1,7
 369 565 369 565 443.5 575.5 c 128,-1,8
 518 586 518 586 585 590 c 128,-1,9
 652 594 652 594 742 594 c 2,10,-1
 858 594 l 1,11,-1
 858 786 l 2,12,13
 858 969 858 969 659 969 c 0,14,15
 417 969 417 969 245 894 c 1,16,-1
 201 1053 l 1,17,18
 398 1130 398 1130 668 1130 c 0,19,20
 851 1130 851 1130 961 1052 c 128,-1,21
 1071 974 1071 974 1071 811 c 2,22,-1
 1071 0 l 1,23,-1
 915 0 l 1,24,-1
 891 84 l 1,25,26
 822 52 822 52 770.5 32 c 128,-1,27
 719 12 719 12 641.5 -6.5 c 128,-1,28
 564 -25 564 -25 494 -25 c 0,0,1
500 129 m 0,29,30
 530 129 530 129 558 131 c 128,-1,31
 586 133 586 133 615.5 138.5 c 128,-1,32
 645 144 645 144 665 148 c 128,-1,33
 685 152 685 152 717.5 162 c 128,-1,34
 750 172 750 172 762.5 176 c 128,-1,35
 775 180 775 180 812 192.5 c 128,-1,36
 849 205 849 205 858 208 c 1,37,-1
 858 452 l 1,38,-1
 739 452 l 2,39,40
 695 452 695 452 663.5 451 c 128,-1,41
 632 450 632 450 587.5 446.5 c 128,-1,42
 543 443 543 443 511.5 436.5 c 128,-1,43
 480 430 480 430 446 417 c 128,-1,44
 412 404 412 404 391 386.5 c 128,-1,45
 370 369 370 369 356.5 341.5 c 128,-1,46
 343 314 343 314 343 280 c 0,47,48
 343 210 343 210 385 169.5 c 128,-1,49
 427 129 427 129 500 129 c 0,29,30
357 1268 m 1,50,-1
 618 1705 l 1,51,-1
 850 1705 l 1,52,-1
 499 1268 l 1,53,-1
 357 1268 l 1,50,-1
EndSplineSet
EndChar

StartChar: acircumflex
Encoding: 226 226 227
Width: 1229
GlyphClass: 2
Flags: W
LayerCount: 2
Fore
SplineSet
494 -25 m 0,0,1
 338 -25 338 -25 236.5 55.5 c 128,-1,2
 135 136 135 136 135 280 c 0,3,4
 135 349 135 349 157 401 c 128,-1,5
 179 453 179 453 222.5 487 c 128,-1,6
 266 521 266 521 317.5 543 c 128,-1,7
 369 565 369 565 443.5 575.5 c 128,-1,8
 518 586 518 586 585 590 c 128,-1,9
 652 594 652 594 742 594 c 2,10,-1
 858 594 l 1,11,-1
 858 786 l 2,12,13
 858 969 858 969 659 969 c 0,14,15
 417 969 417 969 245 894 c 1,16,-1
 201 1053 l 1,17,18
 398 1130 398 1130 668 1130 c 0,19,20
 851 1130 851 1130 961 1052 c 128,-1,21
 1071 974 1071 974 1071 811 c 2,22,-1
 1071 0 l 1,23,-1
 915 0 l 1,24,-1
 891 84 l 1,25,26
 822 52 822 52 770.5 32 c 128,-1,27
 719 12 719 12 641.5 -6.5 c 128,-1,28
 564 -25 564 -25 494 -25 c 0,0,1
500 129 m 0,29,30
 530 129 530 129 558 131 c 128,-1,31
 586 133 586 133 615.5 138.5 c 128,-1,32
 645 144 645 144 665 148 c 128,-1,33
 685 152 685 152 717.5 162 c 128,-1,34
 750 172 750 172 762.5 176 c 128,-1,35
 775 180 775 180 812 192.5 c 128,-1,36
 849 205 849 205 858 208 c 1,37,-1
 858 452 l 1,38,-1
 739 452 l 2,39,40
 695 452 695 452 663.5 451 c 128,-1,41
 632 450 632 450 587.5 446.5 c 128,-1,42
 543 443 543 443 511.5 436.5 c 128,-1,43
 480 430 480 430 446 417 c 128,-1,44
 412 404 412 404 391 386.5 c 128,-1,45
 370 369 370 369 356.5 341.5 c 128,-1,46
 343 314 343 314 343 280 c 0,47,48
 343 210 343 210 385 169.5 c 128,-1,49
 427 129 427 129 500 129 c 0,29,30
687 1615 m 1,50,-1
 946 1266 l 1,51,-1
 803 1266 l 1,52,-1
 599 1501 l 1,53,-1
 397 1266 l 1,54,-1
 261 1266 l 1,55,-1
 520 1615 l 1,56,-1
 687 1615 l 1,50,-1
EndSplineSet
EndChar

StartChar: atilde
Encoding: 227 227 228
Width: 1229
GlyphClass: 2
Flags: W
LayerCount: 2
Fore
SplineSet
494 -25 m 0,0,1
 338 -25 338 -25 236.5 55.5 c 128,-1,2
 135 136 135 136 135 280 c 0,3,4
 135 349 135 349 157 401 c 128,-1,5
 179 453 179 453 222.5 487 c 128,-1,6
 266 521 266 521 317.5 543 c 128,-1,7
 369 565 369 565 443.5 575.5 c 128,-1,8
 518 586 518 586 585 590 c 128,-1,9
 652 594 652 594 742 594 c 2,10,-1
 858 594 l 1,11,-1
 858 786 l 2,12,13
 858 969 858 969 659 969 c 0,14,15
 417 969 417 969 245 894 c 1,16,-1
 201 1053 l 1,17,18
 398 1130 398 1130 668 1130 c 0,19,20
 851 1130 851 1130 961 1052 c 128,-1,21
 1071 974 1071 974 1071 811 c 2,22,-1
 1071 0 l 1,23,-1
 915 0 l 1,24,-1
 891 84 l 1,25,26
 822 52 822 52 770.5 32 c 128,-1,27
 719 12 719 12 641.5 -6.5 c 128,-1,28
 564 -25 564 -25 494 -25 c 0,0,1
500 129 m 0,29,30
 530 129 530 129 558 131 c 128,-1,31
 586 133 586 133 615.5 138.5 c 128,-1,32
 645 144 645 144 665 148 c 128,-1,33
 685 152 685 152 717.5 162 c 128,-1,34
 750 172 750 172 762.5 176 c 128,-1,35
 775 180 775 180 812 192.5 c 128,-1,36
 849 205 849 205 858 208 c 1,37,-1
 858 452 l 1,38,-1
 739 452 l 2,39,40
 695 452 695 452 663.5 451 c 128,-1,41
 632 450 632 450 587.5 446.5 c 128,-1,42
 543 443 543 443 511.5 436.5 c 128,-1,43
 480 430 480 430 446 417 c 128,-1,44
 412 404 412 404 391 386.5 c 128,-1,45
 370 369 370 369 356.5 341.5 c 128,-1,46
 343 314 343 314 343 280 c 0,47,48
 343 210 343 210 385 169.5 c 128,-1,49
 427 129 427 129 500 129 c 0,29,30
995 1536 m 1,50,51
 989 1425 989 1425 933 1357 c 128,-1,52
 877 1289 877 1289 772 1289 c 0,53,54
 725 1289 725 1289 680 1307 c 128,-1,55
 635 1325 635 1325 605.5 1347 c 128,-1,56
 576 1369 576 1369 531.5 1387 c 128,-1,57
 487 1405 487 1405 441 1405 c 0,58,59
 396 1405 396 1405 373.5 1377.5 c 128,-1,60
 351 1350 351 1350 349 1303 c 1,61,-1
 212 1303 l 1,62,63
 214 1417 214 1417 274 1482.5 c 128,-1,64
 334 1548 334 1548 446 1548 c 0,65,66
 494 1548 494 1548 538.5 1529.5 c 128,-1,67
 583 1511 583 1511 612.5 1489.5 c 128,-1,68
 642 1468 642 1468 685.5 1449.5 c 128,-1,69
 729 1431 729 1431 776 1431 c 0,70,71
 849 1431 849 1431 857 1536 c 1,72,-1
 995 1536 l 1,50,51
EndSplineSet
EndChar

StartChar: adieresis
Encoding: 228 228 229
Width: 1229
GlyphClass: 2
Flags: W
LayerCount: 2
Fore
SplineSet
494 -25 m 0,0,1
 338 -25 338 -25 236.5 55.5 c 128,-1,2
 135 136 135 136 135 280 c 0,3,4
 135 349 135 349 157 401 c 128,-1,5
 179 453 179 453 222.5 487 c 128,-1,6
 266 521 266 521 317.5 543 c 128,-1,7
 369 565 369 565 443.5 575.5 c 128,-1,8
 518 586 518 586 585 590 c 128,-1,9
 652 594 652 594 742 594 c 2,10,-1
 858 594 l 1,11,-1
 858 786 l 2,12,13
 858 969 858 969 659 969 c 0,14,15
 417 969 417 969 245 894 c 1,16,-1
 201 1053 l 1,17,18
 398 1130 398 1130 668 1130 c 0,19,20
 851 1130 851 1130 961 1052 c 128,-1,21
 1071 974 1071 974 1071 811 c 2,22,-1
 1071 0 l 1,23,-1
 915 0 l 1,24,-1
 891 84 l 1,25,26
 822 52 822 52 770.5 32 c 128,-1,27
 719 12 719 12 641.5 -6.5 c 128,-1,28
 564 -25 564 -25 494 -25 c 0,0,1
500 129 m 0,29,30
 530 129 530 129 558 131 c 128,-1,31
 586 133 586 133 615.5 138.5 c 128,-1,32
 645 144 645 144 665 148 c 128,-1,33
 685 152 685 152 717.5 162 c 128,-1,34
 750 172 750 172 762.5 176 c 128,-1,35
 775 180 775 180 812 192.5 c 128,-1,36
 849 205 849 205 858 208 c 1,37,-1
 858 452 l 1,38,-1
 739 452 l 2,39,40
 695 452 695 452 663.5 451 c 128,-1,41
 632 450 632 450 587.5 446.5 c 128,-1,42
 543 443 543 443 511.5 436.5 c 128,-1,43
 480 430 480 430 446 417 c 128,-1,44
 412 404 412 404 391 386.5 c 128,-1,45
 370 369 370 369 356.5 341.5 c 128,-1,46
 343 314 343 314 343 280 c 0,47,48
 343 210 343 210 385 169.5 c 128,-1,49
 427 129 427 129 500 129 c 0,29,30
289 1448 m 1,50,51
 375 1448 375 1448 473 1458 c 1,52,53
 473 1372 473 1372 484 1279 c 1,54,55
 394 1279 394 1279 300 1268 c 1,56,57
 300 1355 300 1355 289 1448 c 1,50,51
724 1279 m 1,58,59
 733 1383 733 1383 733 1458 c 1,60,61
 831 1448 831 1448 917 1448 c 1,62,63
 905 1362 905 1362 905 1268 c 1,64,65
 809 1279 809 1279 724 1279 c 1,58,59
EndSplineSet
EndChar

StartChar: aring
Encoding: 229 229 230
Width: 1229
GlyphClass: 2
Flags: W
LayerCount: 2
Fore
SplineSet
494 -25 m 0,0,1
 338 -25 338 -25 236.5 55.5 c 128,-1,2
 135 136 135 136 135 280 c 0,3,4
 135 349 135 349 157 401 c 128,-1,5
 179 453 179 453 222.5 487 c 128,-1,6
 266 521 266 521 317.5 543 c 128,-1,7
 369 565 369 565 443.5 575.5 c 128,-1,8
 518 586 518 586 585 590 c 128,-1,9
 652 594 652 594 742 594 c 2,10,-1
 858 594 l 1,11,-1
 858 786 l 2,12,13
 858 969 858 969 659 969 c 0,14,15
 417 969 417 969 245 894 c 1,16,-1
 201 1053 l 1,17,18
 398 1130 398 1130 668 1130 c 0,19,20
 851 1130 851 1130 961 1052 c 128,-1,21
 1071 974 1071 974 1071 811 c 2,22,-1
 1071 0 l 1,23,-1
 915 0 l 1,24,-1
 891 84 l 1,25,26
 822 52 822 52 770.5 32 c 128,-1,27
 719 12 719 12 641.5 -6.5 c 128,-1,28
 564 -25 564 -25 494 -25 c 0,0,1
500 129 m 0,29,30
 530 129 530 129 558 131 c 128,-1,31
 586 133 586 133 615.5 138.5 c 128,-1,32
 645 144 645 144 665 148 c 128,-1,33
 685 152 685 152 717.5 162 c 128,-1,34
 750 172 750 172 762.5 176 c 128,-1,35
 775 180 775 180 812 192.5 c 128,-1,36
 849 205 849 205 858 208 c 1,37,-1
 858 452 l 1,38,-1
 739 452 l 2,39,40
 695 452 695 452 663.5 451 c 128,-1,41
 632 450 632 450 587.5 446.5 c 128,-1,42
 543 443 543 443 511.5 436.5 c 128,-1,43
 480 430 480 430 446 417 c 128,-1,44
 412 404 412 404 391 386.5 c 128,-1,45
 370 369 370 369 356.5 341.5 c 128,-1,46
 343 314 343 314 343 280 c 0,47,48
 343 210 343 210 385 169.5 c 128,-1,49
 427 129 427 129 500 129 c 0,29,30
616 1568 m 0,50,51
 557 1568 557 1568 519 1538 c 128,-1,52
 481 1508 481 1508 481 1454 c 0,53,54
 481 1407 481 1407 511 1373.5 c 128,-1,55
 541 1340 541 1340 587 1340 c 0,56,57
 647 1340 647 1340 687 1370.5 c 128,-1,58
 727 1401 727 1401 727 1456 c 0,59,60
 727 1501 727 1501 694 1534.5 c 128,-1,61
 661 1568 661 1568 616 1568 c 0,50,51
836 1455 m 0,62,63
 836 1365 836 1365 768 1306 c 128,-1,64
 700 1247 700 1247 606 1247 c 0,65,66
 508 1247 508 1247 439.5 1305 c 128,-1,67
 371 1363 371 1363 371 1455 c 128,-1,68
 371 1547 371 1547 439 1604 c 128,-1,69
 507 1661 507 1661 605 1661 c 0,70,71
 701 1661 701 1661 768.5 1603.5 c 128,-1,72
 836 1546 836 1546 836 1455 c 0,62,63
EndSplineSet
EndChar

StartChar: ae
Encoding: 230 230 231
Width: 1229
GlyphClass: 2
Flags: W
LayerCount: 2
Fore
SplineSet
1148 98 m 1,0,1
 1033 -25 1033 -25 865 -25 c 0,2,3
 737 -25 737 -25 653 94 c 1,4,5
 589 57 589 57 549.5 36.5 c 128,-1,6
 510 16 510 16 445 -4.5 c 128,-1,7
 380 -25 380 -25 322 -25 c 0,8,9
 207 -25 207 -25 131 58.5 c 128,-1,10
 55 142 55 142 55 280 c 0,11,12
 55 339 55 339 68 386 c 128,-1,13
 81 433 81 433 103 465.5 c 128,-1,14
 125 498 125 498 160.5 522 c 128,-1,15
 196 546 196 546 233 559.5 c 128,-1,16
 270 573 270 573 320.5 581 c 128,-1,17
 371 589 371 589 417 591.5 c 128,-1,18
 463 594 463 594 522 594 c 2,19,-1
 537 594 l 1,20,-1
 537 786 l 2,21,22
 537 880 537 880 496 924.5 c 128,-1,23
 455 969 455 969 369 969 c 0,24,25
 233 969 233 969 145 894 c 1,26,-1
 101 1053 l 1,27,28
 214 1130 214 1130 378 1130 c 0,29,30
 574 1130 574 1130 644 988 c 1,31,32
 738 1130 738 1130 880 1130 c 0,33,34
 972 1130 972 1130 1039 1054.5 c 128,-1,35
 1106 979 1106 979 1138 856.5 c 128,-1,36
 1170 734 1170 734 1170 581 c 1,37,-1
 1169 520 l 1,38,-1
 703 520 l 1,39,40
 706 436 706 436 718 366.5 c 128,-1,41
 730 297 730 297 751 243 c 128,-1,42
 772 189 772 189 804.5 159 c 128,-1,43
 837 129 837 129 878 129 c 0,44,45
 984 129 984 129 1068 222 c 1,46,-1
 1148 98 l 1,0,1
350 129 m 0,47,48
 397 129 397 129 444.5 143 c 128,-1,49
 492 157 492 157 515.5 168.5 c 128,-1,50
 539 180 539 180 593 210 c 1,51,52
 556 311 556 311 543 452 c 1,53,-1
 499 452 l 2,54,55
 457 452 457 452 427.5 450.5 c 128,-1,56
 398 449 398 449 357.5 440 c 128,-1,57
 317 431 317 431 292.5 415.5 c 128,-1,58
 268 400 268 400 250 369.5 c 128,-1,59
 232 339 232 339 232 297 c 0,60,61
 232 129 232 129 350 129 c 0,47,48
1026 653 m 1,62,63
 1009 977 1009 977 880 977 c 0,64,65
 802 977 802 977 759 885 c 128,-1,66
 716 793 716 793 709 653 c 1,67,-1
 1026 653 l 1,62,63
EndSplineSet
EndChar

StartChar: ccedilla
Encoding: 231 231 232
Width: 1229
GlyphClass: 2
Flags: W
LayerCount: 2
Fore
SplineSet
384 557 m 0,0,1
 384 360 384 360 474 248 c 128,-1,2
 564 136 564 136 748 136 c 0,3,4
 922 136 922 136 1052 231 c 1,5,-1
 1121 85 l 1,6,7
 974 -25 974 -25 734 -25 c 0,8,9
 469 -25 469 -25 320.5 131 c 128,-1,10
 172 287 172 287 172 556 c 0,11,12
 172 818 172 818 323 974 c 128,-1,13
 474 1130 474 1130 734 1130 c 0,14,15
 969 1130 969 1130 1121 1020 c 1,16,-1
 1052 873 l 1,17,18
 920 969 920 969 745 969 c 0,19,20
 563 969 563 969 473.5 859.5 c 128,-1,21
 384 750 384 750 384 557 c 0,0,1
719 -261 m 128,-1,23
 719 -183 719 -183 597 -183 c 0,24,25
 590 -183 590 -183 522 -188 c 1,26,-1
 557 19 l 1,27,-1
 665 19 l 1,28,-1
 645 -98 l 1,29,-1
 654 -97 l 1,30,31
 753 -97 753 -97 814.5 -136 c 128,-1,32
 876 -175 876 -175 876 -260 c 0,33,34
 876 -428 876 -428 605 -428 c 0,35,36
 529 -428 529 -428 416 -405 c 1,37,-1
 425 -313 l 1,38,39
 536 -339 536 -339 592 -339 c 0,40,22
 719 -339 719 -339 719 -261 c 128,-1,23
EndSplineSet
EndChar

StartChar: egrave
Encoding: 232 232 233
Width: 1229
GlyphClass: 2
Flags: W
LayerCount: 2
Fore
SplineSet
910 653 m 1,0,1
 906 720 906 720 892 775 c 128,-1,2
 878 830 878 830 851 877 c 128,-1,3
 824 924 824 924 779 950.5 c 128,-1,4
 734 977 734 977 674 977 c 0,5,6
 582 977 582 977 516 930.5 c 128,-1,7
 450 884 450 884 417 814 c 128,-1,8
 384 744 384 744 373 653 c 1,9,-1
 910 653 l 1,0,1
1062 138 m 1,10,11
 980 57 980 57 885.5 16 c 128,-1,12
 791 -25 791 -25 659 -25 c 0,13,14
 545 -25 545 -25 453 20.5 c 128,-1,15
 361 66 361 66 303 145.5 c 128,-1,16
 245 225 245 225 214 329.5 c 128,-1,17
 183 434 183 434 183 555 c 0,18,19
 183 815 183 815 319.5 972.5 c 128,-1,20
 456 1130 456 1130 674 1130 c 0,21,22
 774 1130 774 1130 853 1086.5 c 128,-1,23
 932 1043 932 1043 982 967.5 c 128,-1,24
 1032 892 1032 892 1058 793.5 c 128,-1,25
 1084 695 1084 695 1084 581 c 1,26,-1
 1083 520 l 1,27,-1
 367 520 l 1,28,29
 372 407 372 407 405 321.5 c 128,-1,30
 438 236 438 236 506.5 182.5 c 128,-1,31
 575 129 575 129 672 129 c 0,32,33
 854 129 854 129 982 262 c 1,34,-1
 1062 138 l 1,10,11
590 1705 m 1,35,-1
 873 1268 l 1,36,-1
 734 1268 l 1,37,-1
 354 1705 l 1,38,-1
 590 1705 l 1,35,-1
EndSplineSet
EndChar

StartChar: eacute
Encoding: 233 233 234
Width: 1229
GlyphClass: 2
Flags: W
LayerCount: 2
Fore
SplineSet
910 653 m 1,0,1
 906 720 906 720 892 775 c 128,-1,2
 878 830 878 830 851 877 c 128,-1,3
 824 924 824 924 779 950.5 c 128,-1,4
 734 977 734 977 674 977 c 0,5,6
 582 977 582 977 516 930.5 c 128,-1,7
 450 884 450 884 417 814 c 128,-1,8
 384 744 384 744 373 653 c 1,9,-1
 910 653 l 1,0,1
1062 138 m 1,10,11
 980 57 980 57 885.5 16 c 128,-1,12
 791 -25 791 -25 659 -25 c 0,13,14
 545 -25 545 -25 453 20.5 c 128,-1,15
 361 66 361 66 303 145.5 c 128,-1,16
 245 225 245 225 214 329.5 c 128,-1,17
 183 434 183 434 183 555 c 0,18,19
 183 815 183 815 319.5 972.5 c 128,-1,20
 456 1130 456 1130 674 1130 c 0,21,22
 774 1130 774 1130 853 1086.5 c 128,-1,23
 932 1043 932 1043 982 967.5 c 128,-1,24
 1032 892 1032 892 1058 793.5 c 128,-1,25
 1084 695 1084 695 1084 581 c 1,26,-1
 1083 520 l 1,27,-1
 367 520 l 1,28,29
 372 407 372 407 405 321.5 c 128,-1,30
 438 236 438 236 506.5 182.5 c 128,-1,31
 575 129 575 129 672 129 c 0,32,33
 854 129 854 129 982 262 c 1,34,-1
 1062 138 l 1,10,11
367 1268 m 1,35,-1
 628 1705 l 1,36,-1
 860 1705 l 1,37,-1
 509 1268 l 1,38,-1
 367 1268 l 1,35,-1
EndSplineSet
EndChar

StartChar: ecircumflex
Encoding: 234 234 235
Width: 1229
GlyphClass: 2
Flags: W
LayerCount: 2
Fore
SplineSet
910 653 m 1,0,1
 906 720 906 720 892 775 c 128,-1,2
 878 830 878 830 851 877 c 128,-1,3
 824 924 824 924 779 950.5 c 128,-1,4
 734 977 734 977 674 977 c 0,5,6
 582 977 582 977 516 930.5 c 128,-1,7
 450 884 450 884 417 814 c 128,-1,8
 384 744 384 744 373 653 c 1,9,-1
 910 653 l 1,0,1
1062 138 m 1,10,11
 980 57 980 57 885.5 16 c 128,-1,12
 791 -25 791 -25 659 -25 c 0,13,14
 545 -25 545 -25 453 20.5 c 128,-1,15
 361 66 361 66 303 145.5 c 128,-1,16
 245 225 245 225 214 329.5 c 128,-1,17
 183 434 183 434 183 555 c 0,18,19
 183 815 183 815 319.5 972.5 c 128,-1,20
 456 1130 456 1130 674 1130 c 0,21,22
 774 1130 774 1130 853 1086.5 c 128,-1,23
 932 1043 932 1043 982 967.5 c 128,-1,24
 1032 892 1032 892 1058 793.5 c 128,-1,25
 1084 695 1084 695 1084 581 c 1,26,-1
 1083 520 l 1,27,-1
 367 520 l 1,28,29
 372 407 372 407 405 321.5 c 128,-1,30
 438 236 438 236 506.5 182.5 c 128,-1,31
 575 129 575 129 672 129 c 0,32,33
 854 129 854 129 982 262 c 1,34,-1
 1062 138 l 1,10,11
697 1615 m 1,35,-1
 956 1266 l 1,36,-1
 813 1266 l 1,37,-1
 609 1501 l 1,38,-1
 407 1266 l 1,39,-1
 271 1266 l 1,40,-1
 530 1615 l 1,41,-1
 697 1615 l 1,35,-1
EndSplineSet
EndChar

StartChar: edieresis
Encoding: 235 235 236
Width: 1229
GlyphClass: 2
Flags: W
LayerCount: 2
Fore
SplineSet
910 653 m 1,0,1
 906 720 906 720 892 775 c 128,-1,2
 878 830 878 830 851 877 c 128,-1,3
 824 924 824 924 779 950.5 c 128,-1,4
 734 977 734 977 674 977 c 0,5,6
 582 977 582 977 516 930.5 c 128,-1,7
 450 884 450 884 417 814 c 128,-1,8
 384 744 384 744 373 653 c 1,9,-1
 910 653 l 1,0,1
1062 138 m 1,10,11
 980 57 980 57 885.5 16 c 128,-1,12
 791 -25 791 -25 659 -25 c 0,13,14
 545 -25 545 -25 453 20.5 c 128,-1,15
 361 66 361 66 303 145.5 c 128,-1,16
 245 225 245 225 214 329.5 c 128,-1,17
 183 434 183 434 183 555 c 0,18,19
 183 815 183 815 319.5 972.5 c 128,-1,20
 456 1130 456 1130 674 1130 c 0,21,22
 774 1130 774 1130 853 1086.5 c 128,-1,23
 932 1043 932 1043 982 967.5 c 128,-1,24
 1032 892 1032 892 1058 793.5 c 128,-1,25
 1084 695 1084 695 1084 581 c 1,26,-1
 1083 520 l 1,27,-1
 367 520 l 1,28,29
 372 407 372 407 405 321.5 c 128,-1,30
 438 236 438 236 506.5 182.5 c 128,-1,31
 575 129 575 129 672 129 c 0,32,33
 854 129 854 129 982 262 c 1,34,-1
 1062 138 l 1,10,11
299 1448 m 1,35,36
 385 1448 385 1448 483 1458 c 1,37,38
 483 1372 483 1372 494 1279 c 1,39,40
 404 1279 404 1279 310 1268 c 1,41,42
 310 1355 310 1355 299 1448 c 1,35,36
734 1279 m 1,43,44
 743 1383 743 1383 743 1458 c 1,45,46
 841 1448 841 1448 927 1448 c 1,47,48
 915 1362 915 1362 915 1268 c 1,49,50
 819 1279 819 1279 734 1279 c 1,43,44
EndSplineSet
EndChar

StartChar: igrave
Encoding: 236 236 237
Width: 1229
GlyphClass: 2
Flags: W
LayerCount: 2
Fore
SplineSet
266 953 m 1,0,-1
 266 1097 l 1,1,-1
 788 1097 l 1,2,-1
 788 144 l 1,3,-1
 1185 144 l 1,4,-1
 1185 0 l 1,5,-1
 197 0 l 1,6,-1
 197 144 l 1,7,-1
 606 144 l 1,8,-1
 606 953 l 1,9,-1
 266 953 l 1,0,-1
668 1705 m 1,10,-1
 951 1268 l 1,11,-1
 812 1268 l 1,12,-1
 432 1705 l 1,13,-1
 668 1705 l 1,10,-1
EndSplineSet
EndChar

StartChar: iacute
Encoding: 237 237 238
Width: 1229
GlyphClass: 2
Flags: W
LayerCount: 2
Fore
SplineSet
266 953 m 1,0,-1
 266 1097 l 1,1,-1
 788 1097 l 1,2,-1
 788 144 l 1,3,-1
 1185 144 l 1,4,-1
 1185 0 l 1,5,-1
 197 0 l 1,6,-1
 197 144 l 1,7,-1
 606 144 l 1,8,-1
 606 953 l 1,9,-1
 266 953 l 1,0,-1
445 1268 m 1,10,-1
 706 1705 l 1,11,-1
 938 1705 l 1,12,-1
 587 1268 l 1,13,-1
 445 1268 l 1,10,-1
EndSplineSet
EndChar

StartChar: icircumflex
Encoding: 238 238 239
Width: 1229
GlyphClass: 2
Flags: W
LayerCount: 2
Fore
SplineSet
266 953 m 1,0,-1
 266 1097 l 1,1,-1
 788 1097 l 1,2,-1
 788 144 l 1,3,-1
 1185 144 l 1,4,-1
 1185 0 l 1,5,-1
 197 0 l 1,6,-1
 197 144 l 1,7,-1
 606 144 l 1,8,-1
 606 953 l 1,9,-1
 266 953 l 1,0,-1
775 1615 m 1,10,-1
 1034 1266 l 1,11,-1
 891 1266 l 1,12,-1
 687 1501 l 1,13,-1
 485 1266 l 1,14,-1
 349 1266 l 1,15,-1
 608 1615 l 1,16,-1
 775 1615 l 1,10,-1
EndSplineSet
EndChar

StartChar: idieresis
Encoding: 239 239 240
Width: 1229
GlyphClass: 2
Flags: W
LayerCount: 2
Fore
SplineSet
266 953 m 1,0,-1
 266 1097 l 1,1,-1
 788 1097 l 1,2,-1
 788 144 l 1,3,-1
 1185 144 l 1,4,-1
 1185 0 l 1,5,-1
 197 0 l 1,6,-1
 197 144 l 1,7,-1
 606 144 l 1,8,-1
 606 953 l 1,9,-1
 266 953 l 1,0,-1
377 1448 m 1,10,11
 463 1448 463 1448 561 1458 c 1,12,13
 561 1372 561 1372 572 1279 c 1,14,15
 482 1279 482 1279 388 1268 c 1,16,17
 388 1355 388 1355 377 1448 c 1,10,11
812 1279 m 1,18,19
 821 1383 821 1383 821 1458 c 1,20,21
 919 1448 919 1448 1005 1448 c 1,22,23
 993 1362 993 1362 993 1268 c 1,24,25
 897 1279 897 1279 812 1279 c 1,18,19
EndSplineSet
EndChar

StartChar: eth
Encoding: 240 240 241
Width: 1229
GlyphClass: 2
Flags: W
LayerCount: 2
Fore
SplineSet
1247 743 m 0,0,1
 1247 612 1247 612 1229 500.5 c 128,-1,2
 1211 389 1211 389 1169.5 290.5 c 128,-1,3
 1128 192 1128 192 1064 123.5 c 128,-1,4
 1000 55 1000 55 902.5 15 c 128,-1,5
 805 -25 805 -25 681 -25 c 0,6,7
 556 -25 556 -25 452.5 14.5 c 128,-1,8
 349 54 349 54 280 123 c 128,-1,9
 211 192 211 192 173 285 c 128,-1,10
 135 378 135 378 135 484 c 1,11,-1
 136 485 l 1,12,13
 136 710 136 710 274 842.5 c 128,-1,14
 412 975 412 975 641 975 c 0,15,16
 933 975 933 975 1054 786 c 1,17,18
 1054 977 1054 977 1014 1115 c 1,19,-1
 724 1115 l 1,20,-1
 724 1264 l 1,21,-1
 951 1264 l 1,22,23
 862 1425 862 1425 673 1527 c 1,24,-1
 760 1619 l 1,25,26
 885 1572 885 1572 980.5 1479.5 c 128,-1,27
 1076 1387 1076 1387 1137 1264 c 1,28,-1
 1355 1264 l 1,29,-1
 1355 1115 l 1,30,-1
 1193 1115 l 1,31,32
 1247 948 1247 948 1247 743 c 0,0,1
673 129 m 0,33,34
 767 129 767 129 838.5 163.5 c 128,-1,35
 910 198 910 198 953.5 260.5 c 128,-1,36
 997 323 997 323 1018.5 404 c 128,-1,37
 1040 485 1040 485 1040 583 c 0,38,39
 1040 655 1040 655 975.5 712 c 128,-1,40
 911 769 911 769 826.5 795.5 c 128,-1,41
 742 822 742 822 662 822 c 0,42,43
 505 822 505 822 418 730 c 128,-1,44
 331 638 331 638 331 480 c 0,45,46
 331 324 331 324 424.5 226.5 c 128,-1,47
 518 129 518 129 673 129 c 0,33,34
EndSplineSet
EndChar

StartChar: ntilde
Encoding: 241 241 242
Width: 1229
GlyphClass: 2
Flags: W
LayerCount: 2
Fore
SplineSet
681 1130 m 0,0,1
 1022 1130 1022 1130 1022 698 c 2,2,-1
 1022 0 l 1,3,-1
 840 0 l 1,4,-1
 840 640 l 2,5,6
 840 644 840 644 840 653 c 0,7,8
 840 692 840 692 840 711.5 c 128,-1,9
 840 731 840 731 838 766 c 128,-1,10
 836 801 836 801 832 819.5 c 128,-1,11
 828 838 828 838 820.5 866 c 128,-1,12
 813 894 813 894 802 909.5 c 128,-1,13
 791 925 791 925 774 943.5 c 128,-1,14
 757 962 757 962 735 971 c 128,-1,15
 713 980 713 980 683.5 986.5 c 128,-1,16
 654 993 654 993 617 993 c 0,17,18
 501 993 501 993 421.5 920.5 c 128,-1,19
 342 848 342 848 342 732 c 2,20,-1
 342 0 l 1,21,-1
 160 0 l 1,22,-1
 160 1097 l 1,23,-1
 327 1097 l 1,24,-1
 337 958 l 1,25,26
 398 1037 398 1037 478.5 1083.5 c 128,-1,27
 559 1130 559 1130 681 1130 c 0,0,1
983 1536 m 1,28,29
 977 1425 977 1425 921 1357 c 128,-1,30
 865 1289 865 1289 760 1289 c 0,31,32
 713 1289 713 1289 668 1307 c 128,-1,33
 623 1325 623 1325 593.5 1347 c 128,-1,34
 564 1369 564 1369 519.5 1387 c 128,-1,35
 475 1405 475 1405 429 1405 c 0,36,37
 384 1405 384 1405 361.5 1377.5 c 128,-1,38
 339 1350 339 1350 337 1303 c 1,39,-1
 200 1303 l 1,40,41
 202 1417 202 1417 262 1482.5 c 128,-1,42
 322 1548 322 1548 434 1548 c 0,43,44
 482 1548 482 1548 526.5 1529.5 c 128,-1,45
 571 1511 571 1511 600.5 1489.5 c 128,-1,46
 630 1468 630 1468 673.5 1449.5 c 128,-1,47
 717 1431 717 1431 764 1431 c 0,48,49
 837 1431 837 1431 845 1536 c 1,50,-1
 983 1536 l 1,28,29
EndSplineSet
EndChar

StartChar: ograve
Encoding: 242 242 243
Width: 1229
GlyphClass: 2
Flags: W
LayerCount: 2
Fore
SplineSet
615 1130 m 0,0,1
 736 1130 736 1130 831 1086.5 c 128,-1,2
 926 1043 926 1043 986.5 965.5 c 128,-1,3
 1047 888 1047 888 1078.5 784.5 c 128,-1,4
 1110 681 1110 681 1110 558 c 0,5,6
 1110 297 1110 297 970.5 136 c 128,-1,7
 831 -25 831 -25 607 -25 c 0,8,9
 489 -25 489 -25 395 20 c 128,-1,10
 301 65 301 65 241 143.5 c 128,-1,11
 181 222 181 222 149.5 326 c 128,-1,12
 118 430 118 430 118 551 c 0,13,14
 118 810 118 810 255.5 970 c 128,-1,15
 393 1130 393 1130 615 1130 c 0,0,1
301 550 m 0,16,17
 301 486 301 486 311.5 426.5 c 128,-1,18
 322 367 322 367 345.5 312.5 c 128,-1,19
 369 258 369 258 404.5 217.5 c 128,-1,20
 440 177 440 177 493.5 153 c 128,-1,21
 547 129 547 129 613 129 c 0,22,23
 681 129 681 129 735.5 153 c 128,-1,24
 790 177 790 177 825.5 217 c 128,-1,25
 861 257 861 257 884 312.5 c 128,-1,26
 907 368 907 368 917 427.5 c 128,-1,27
 927 487 927 487 927 553 c 0,28,29
 927 636 927 636 910.5 708.5 c 128,-1,30
 894 781 894 781 859 843 c 128,-1,31
 824 905 824 905 761 941 c 128,-1,32
 698 977 698 977 613 977 c 0,33,34
 531 977 531 977 468.5 940 c 128,-1,35
 406 903 406 903 371 840.5 c 128,-1,36
 336 778 336 778 318.5 704.5 c 128,-1,37
 301 631 301 631 301 550 c 0,16,17
591 1705 m 1,38,-1
 874 1268 l 1,39,-1
 735 1268 l 1,40,-1
 355 1705 l 1,41,-1
 591 1705 l 1,38,-1
EndSplineSet
EndChar

StartChar: oacute
Encoding: 243 243 244
Width: 1229
GlyphClass: 2
Flags: W
LayerCount: 2
Fore
SplineSet
615 1130 m 0,0,1
 736 1130 736 1130 831 1086.5 c 128,-1,2
 926 1043 926 1043 986.5 965.5 c 128,-1,3
 1047 888 1047 888 1078.5 784.5 c 128,-1,4
 1110 681 1110 681 1110 558 c 0,5,6
 1110 297 1110 297 970.5 136 c 128,-1,7
 831 -25 831 -25 607 -25 c 0,8,9
 489 -25 489 -25 395 20 c 128,-1,10
 301 65 301 65 241 143.5 c 128,-1,11
 181 222 181 222 149.5 326 c 128,-1,12
 118 430 118 430 118 551 c 0,13,14
 118 810 118 810 255.5 970 c 128,-1,15
 393 1130 393 1130 615 1130 c 0,0,1
301 550 m 0,16,17
 301 486 301 486 311.5 426.5 c 128,-1,18
 322 367 322 367 345.5 312.5 c 128,-1,19
 369 258 369 258 404.5 217.5 c 128,-1,20
 440 177 440 177 493.5 153 c 128,-1,21
 547 129 547 129 613 129 c 0,22,23
 681 129 681 129 735.5 153 c 128,-1,24
 790 177 790 177 825.5 217 c 128,-1,25
 861 257 861 257 884 312.5 c 128,-1,26
 907 368 907 368 917 427.5 c 128,-1,27
 927 487 927 487 927 553 c 0,28,29
 927 636 927 636 910.5 708.5 c 128,-1,30
 894 781 894 781 859 843 c 128,-1,31
 824 905 824 905 761 941 c 128,-1,32
 698 977 698 977 613 977 c 0,33,34
 531 977 531 977 468.5 940 c 128,-1,35
 406 903 406 903 371 840.5 c 128,-1,36
 336 778 336 778 318.5 704.5 c 128,-1,37
 301 631 301 631 301 550 c 0,16,17
368 1268 m 1,38,-1
 629 1705 l 1,39,-1
 861 1705 l 1,40,-1
 510 1268 l 1,41,-1
 368 1268 l 1,38,-1
EndSplineSet
EndChar

StartChar: ocircumflex
Encoding: 244 244 245
Width: 1229
GlyphClass: 2
Flags: W
LayerCount: 2
Fore
SplineSet
615 1130 m 0,0,1
 736 1130 736 1130 831 1086.5 c 128,-1,2
 926 1043 926 1043 986.5 965.5 c 128,-1,3
 1047 888 1047 888 1078.5 784.5 c 128,-1,4
 1110 681 1110 681 1110 558 c 0,5,6
 1110 297 1110 297 970.5 136 c 128,-1,7
 831 -25 831 -25 607 -25 c 0,8,9
 489 -25 489 -25 395 20 c 128,-1,10
 301 65 301 65 241 143.5 c 128,-1,11
 181 222 181 222 149.5 326 c 128,-1,12
 118 430 118 430 118 551 c 0,13,14
 118 810 118 810 255.5 970 c 128,-1,15
 393 1130 393 1130 615 1130 c 0,0,1
301 550 m 0,16,17
 301 486 301 486 311.5 426.5 c 128,-1,18
 322 367 322 367 345.5 312.5 c 128,-1,19
 369 258 369 258 404.5 217.5 c 128,-1,20
 440 177 440 177 493.5 153 c 128,-1,21
 547 129 547 129 613 129 c 0,22,23
 681 129 681 129 735.5 153 c 128,-1,24
 790 177 790 177 825.5 217 c 128,-1,25
 861 257 861 257 884 312.5 c 128,-1,26
 907 368 907 368 917 427.5 c 128,-1,27
 927 487 927 487 927 553 c 0,28,29
 927 636 927 636 910.5 708.5 c 128,-1,30
 894 781 894 781 859 843 c 128,-1,31
 824 905 824 905 761 941 c 128,-1,32
 698 977 698 977 613 977 c 0,33,34
 531 977 531 977 468.5 940 c 128,-1,35
 406 903 406 903 371 840.5 c 128,-1,36
 336 778 336 778 318.5 704.5 c 128,-1,37
 301 631 301 631 301 550 c 0,16,17
698 1615 m 1,38,-1
 957 1266 l 1,39,-1
 814 1266 l 1,40,-1
 610 1501 l 1,41,-1
 408 1266 l 1,42,-1
 272 1266 l 1,43,-1
 531 1615 l 1,44,-1
 698 1615 l 1,38,-1
EndSplineSet
EndChar

StartChar: otilde
Encoding: 245 245 246
Width: 1229
GlyphClass: 2
Flags: W
LayerCount: 2
Fore
SplineSet
615 1130 m 0,0,1
 736 1130 736 1130 831 1086.5 c 128,-1,2
 926 1043 926 1043 986.5 965.5 c 128,-1,3
 1047 888 1047 888 1078.5 784.5 c 128,-1,4
 1110 681 1110 681 1110 558 c 0,5,6
 1110 297 1110 297 970.5 136 c 128,-1,7
 831 -25 831 -25 607 -25 c 0,8,9
 489 -25 489 -25 395 20 c 128,-1,10
 301 65 301 65 241 143.5 c 128,-1,11
 181 222 181 222 149.5 326 c 128,-1,12
 118 430 118 430 118 551 c 0,13,14
 118 810 118 810 255.5 970 c 128,-1,15
 393 1130 393 1130 615 1130 c 0,0,1
301 550 m 0,16,17
 301 486 301 486 311.5 426.5 c 128,-1,18
 322 367 322 367 345.5 312.5 c 128,-1,19
 369 258 369 258 404.5 217.5 c 128,-1,20
 440 177 440 177 493.5 153 c 128,-1,21
 547 129 547 129 613 129 c 0,22,23
 681 129 681 129 735.5 153 c 128,-1,24
 790 177 790 177 825.5 217 c 128,-1,25
 861 257 861 257 884 312.5 c 128,-1,26
 907 368 907 368 917 427.5 c 128,-1,27
 927 487 927 487 927 553 c 0,28,29
 927 636 927 636 910.5 708.5 c 128,-1,30
 894 781 894 781 859 843 c 128,-1,31
 824 905 824 905 761 941 c 128,-1,32
 698 977 698 977 613 977 c 0,33,34
 531 977 531 977 468.5 940 c 128,-1,35
 406 903 406 903 371 840.5 c 128,-1,36
 336 778 336 778 318.5 704.5 c 128,-1,37
 301 631 301 631 301 550 c 0,16,17
1006 1536 m 1,38,39
 1000 1425 1000 1425 944 1357 c 128,-1,40
 888 1289 888 1289 783 1289 c 0,41,42
 736 1289 736 1289 691 1307 c 128,-1,43
 646 1325 646 1325 616 1347 c 128,-1,44
 586 1369 586 1369 542 1387 c 128,-1,45
 498 1405 498 1405 452 1405 c 0,46,47
 407 1405 407 1405 384.5 1377.5 c 128,-1,48
 362 1350 362 1350 360 1303 c 1,49,-1
 223 1303 l 1,50,51
 225 1417 225 1417 285 1482.5 c 128,-1,52
 345 1548 345 1548 457 1548 c 0,53,54
 505 1548 505 1548 549.5 1529.5 c 128,-1,55
 594 1511 594 1511 623.5 1489.5 c 128,-1,56
 653 1468 653 1468 696.5 1449.5 c 128,-1,57
 740 1431 740 1431 787 1431 c 0,58,59
 860 1431 860 1431 868 1536 c 1,60,-1
 1006 1536 l 1,38,39
EndSplineSet
EndChar

StartChar: odieresis
Encoding: 246 246 247
Width: 1229
GlyphClass: 2
Flags: W
LayerCount: 2
Fore
SplineSet
615 1130 m 0,0,1
 736 1130 736 1130 831 1086.5 c 128,-1,2
 926 1043 926 1043 986.5 965.5 c 128,-1,3
 1047 888 1047 888 1078.5 784.5 c 128,-1,4
 1110 681 1110 681 1110 558 c 0,5,6
 1110 297 1110 297 970.5 136 c 128,-1,7
 831 -25 831 -25 607 -25 c 0,8,9
 489 -25 489 -25 395 20 c 128,-1,10
 301 65 301 65 241 143.5 c 128,-1,11
 181 222 181 222 149.5 326 c 128,-1,12
 118 430 118 430 118 551 c 0,13,14
 118 810 118 810 255.5 970 c 128,-1,15
 393 1130 393 1130 615 1130 c 0,0,1
301 550 m 0,16,17
 301 486 301 486 311.5 426.5 c 128,-1,18
 322 367 322 367 345.5 312.5 c 128,-1,19
 369 258 369 258 404.5 217.5 c 128,-1,20
 440 177 440 177 493.5 153 c 128,-1,21
 547 129 547 129 613 129 c 0,22,23
 681 129 681 129 735.5 153 c 128,-1,24
 790 177 790 177 825.5 217 c 128,-1,25
 861 257 861 257 884 312.5 c 128,-1,26
 907 368 907 368 917 427.5 c 128,-1,27
 927 487 927 487 927 553 c 0,28,29
 927 636 927 636 910.5 708.5 c 128,-1,30
 894 781 894 781 859 843 c 128,-1,31
 824 905 824 905 761 941 c 128,-1,32
 698 977 698 977 613 977 c 0,33,34
 531 977 531 977 468.5 940 c 128,-1,35
 406 903 406 903 371 840.5 c 128,-1,36
 336 778 336 778 318.5 704.5 c 128,-1,37
 301 631 301 631 301 550 c 0,16,17
300 1448 m 1,38,39
 386 1448 386 1448 484 1458 c 1,40,41
 484 1372 484 1372 495 1279 c 1,42,43
 405 1279 405 1279 311 1268 c 1,44,45
 311 1355 311 1355 300 1448 c 1,38,39
735 1279 m 1,46,47
 744 1383 744 1383 744 1458 c 1,48,49
 842 1448 842 1448 928 1448 c 1,50,51
 916 1362 916 1362 916 1268 c 1,52,53
 820 1279 820 1279 735 1279 c 1,46,47
EndSplineSet
EndChar

StartChar: divide
Encoding: 247 247 248
Width: 1229
GlyphClass: 2
Flags: W
LayerCount: 2
Fore
SplineSet
152 677 m 1,0,-1
 1311 677 l 1,1,-1
 1311 526 l 1,2,-1
 152 526 l 1,3,-1
 152 677 l 1,0,-1
619 22 m 1,4,-1
 619 251 l 1,5,-1
 858 251 l 1,6,-1
 858 22 l 1,7,-1
 619 22 l 1,4,-1
619 948 m 1,8,-1
 619 1175 l 1,9,-1
 858 1175 l 1,10,-1
 858 948 l 1,11,-1
 619 948 l 1,8,-1
EndSplineSet
EndChar

StartChar: oslash
Encoding: 248 248 249
Width: 1229
GlyphClass: 2
Flags: W
LayerCount: 2
Fore
SplineSet
322 -283 m 1,0,-1
 210 -242 l 1,1,-1
 920 1386 l 1,2,-1
 1032 1351 l 1,3,-1
 322 -283 l 1,0,-1
615 1130 m 0,4,5
 736 1130 736 1130 831 1086.5 c 128,-1,6
 926 1043 926 1043 986.5 965.5 c 128,-1,7
 1047 888 1047 888 1078.5 784.5 c 128,-1,8
 1110 681 1110 681 1110 558 c 0,9,10
 1110 297 1110 297 970.5 136 c 128,-1,11
 831 -25 831 -25 607 -25 c 0,12,13
 489 -25 489 -25 395 20 c 128,-1,14
 301 65 301 65 241 143.5 c 128,-1,15
 181 222 181 222 149.5 326 c 128,-1,16
 118 430 118 430 118 551 c 0,17,18
 118 810 118 810 255.5 970 c 128,-1,19
 393 1130 393 1130 615 1130 c 0,4,5
301 550 m 0,20,21
 301 486 301 486 311.5 426.5 c 128,-1,22
 322 367 322 367 345.5 312.5 c 128,-1,23
 369 258 369 258 404.5 217.5 c 128,-1,24
 440 177 440 177 493.5 153 c 128,-1,25
 547 129 547 129 613 129 c 0,26,27
 681 129 681 129 735.5 153 c 128,-1,28
 790 177 790 177 825.5 217 c 128,-1,29
 861 257 861 257 884 312.5 c 128,-1,30
 907 368 907 368 917 427.5 c 128,-1,31
 927 487 927 487 927 553 c 0,32,33
 927 636 927 636 910.5 708.5 c 128,-1,34
 894 781 894 781 859 843 c 128,-1,35
 824 905 824 905 761 941 c 128,-1,36
 698 977 698 977 613 977 c 0,37,38
 531 977 531 977 468.5 940 c 128,-1,39
 406 903 406 903 371 840.5 c 128,-1,40
 336 778 336 778 318.5 704.5 c 128,-1,41
 301 631 301 631 301 550 c 0,20,21
EndSplineSet
EndChar

StartChar: ugrave
Encoding: 249 249 250
Width: 1229
GlyphClass: 2
Flags: W
LayerCount: 2
Fore
SplineSet
614 -25 m 128,-1,1
 415 -25 415 -25 302.5 89.5 c 128,-1,2
 190 204 190 204 190 404 c 2,3,-1
 190 1097 l 1,4,-1
 372 1097 l 1,5,-1
 372 388 l 2,6,7
 372 274 372 274 433 205 c 128,-1,8
 494 136 494 136 614 136 c 128,-1,9
 734 136 734 136 795 205 c 128,-1,10
 856 274 856 274 856 388 c 2,11,-1
 856 1097 l 1,12,-1
 1038 1097 l 1,13,-1
 1038 404 l 2,14,15
 1038 204 1038 204 925.5 89.5 c 128,-1,0
 813 -25 813 -25 614 -25 c 128,-1,1
591 1705 m 1,16,-1
 874 1268 l 1,17,-1
 735 1268 l 1,18,-1
 355 1705 l 1,19,-1
 591 1705 l 1,16,-1
EndSplineSet
EndChar

StartChar: uacute
Encoding: 250 250 251
Width: 1229
GlyphClass: 2
Flags: W
LayerCount: 2
Fore
SplineSet
614 -25 m 128,-1,1
 415 -25 415 -25 302.5 89.5 c 128,-1,2
 190 204 190 204 190 404 c 2,3,-1
 190 1097 l 1,4,-1
 372 1097 l 1,5,-1
 372 388 l 2,6,7
 372 274 372 274 433 205 c 128,-1,8
 494 136 494 136 614 136 c 128,-1,9
 734 136 734 136 795 205 c 128,-1,10
 856 274 856 274 856 388 c 2,11,-1
 856 1097 l 1,12,-1
 1038 1097 l 1,13,-1
 1038 404 l 2,14,15
 1038 204 1038 204 925.5 89.5 c 128,-1,0
 813 -25 813 -25 614 -25 c 128,-1,1
368 1268 m 1,16,-1
 629 1705 l 1,17,-1
 861 1705 l 1,18,-1
 510 1268 l 1,19,-1
 368 1268 l 1,16,-1
EndSplineSet
EndChar

StartChar: ucircumflex
Encoding: 251 251 252
Width: 1229
GlyphClass: 2
Flags: W
LayerCount: 2
Fore
SplineSet
614 -25 m 128,-1,1
 415 -25 415 -25 302.5 89.5 c 128,-1,2
 190 204 190 204 190 404 c 2,3,-1
 190 1097 l 1,4,-1
 372 1097 l 1,5,-1
 372 388 l 2,6,7
 372 274 372 274 433 205 c 128,-1,8
 494 136 494 136 614 136 c 128,-1,9
 734 136 734 136 795 205 c 128,-1,10
 856 274 856 274 856 388 c 2,11,-1
 856 1097 l 1,12,-1
 1038 1097 l 1,13,-1
 1038 404 l 2,14,15
 1038 204 1038 204 925.5 89.5 c 128,-1,0
 813 -25 813 -25 614 -25 c 128,-1,1
698 1615 m 1,16,-1
 957 1266 l 1,17,-1
 814 1266 l 1,18,-1
 610 1501 l 1,19,-1
 408 1266 l 1,20,-1
 272 1266 l 1,21,-1
 531 1615 l 1,22,-1
 698 1615 l 1,16,-1
EndSplineSet
EndChar

StartChar: udieresis
Encoding: 252 252 253
Width: 1229
GlyphClass: 2
Flags: W
LayerCount: 2
Fore
SplineSet
614 -25 m 128,-1,1
 415 -25 415 -25 302.5 89.5 c 128,-1,2
 190 204 190 204 190 404 c 2,3,-1
 190 1097 l 1,4,-1
 372 1097 l 1,5,-1
 372 388 l 2,6,7
 372 274 372 274 433 205 c 128,-1,8
 494 136 494 136 614 136 c 128,-1,9
 734 136 734 136 795 205 c 128,-1,10
 856 274 856 274 856 388 c 2,11,-1
 856 1097 l 1,12,-1
 1038 1097 l 1,13,-1
 1038 404 l 2,14,15
 1038 204 1038 204 925.5 89.5 c 128,-1,0
 813 -25 813 -25 614 -25 c 128,-1,1
300 1448 m 1,16,17
 386 1448 386 1448 484 1458 c 1,18,19
 484 1372 484 1372 495 1279 c 1,20,21
 405 1279 405 1279 311 1268 c 1,22,23
 311 1355 311 1355 300 1448 c 1,16,17
735 1279 m 1,24,25
 744 1383 744 1383 744 1458 c 1,26,27
 842 1448 842 1448 928 1448 c 1,28,29
 916 1362 916 1362 916 1268 c 1,30,31
 820 1279 820 1279 735 1279 c 1,24,25
EndSplineSet
EndChar

StartChar: yacute
Encoding: 253 253 254
Width: 1229
GlyphClass: 2
Flags: W
LayerCount: 2
Fore
SplineSet
652 205 m 1,0,-1
 983 1097 l 1,1,-1
 1184 1097 l 1,2,3
 843 254 843 254 753 16 c 1,4,-1
 753 17 l 1,5,6
 750 11 750 11 730 -58 c 0,7,8
 704 -151 704 -151 652 -217.5 c 128,-1,9
 600 -284 600 -284 524 -325 c 128,-1,10
 448 -366 448 -366 361 -388.5 c 128,-1,11
 274 -411 274 -411 160 -423 c 1,12,-1
 160 -267 l 1,13,14
 233 -259 233 -259 281.5 -250.5 c 128,-1,15
 330 -242 330 -242 383.5 -222 c 128,-1,16
 437 -202 437 -202 469 -172 c 128,-1,17
 501 -142 501 -142 523.5 -92.5 c 128,-1,18
 546 -43 546 -43 549 24 c 1,19,20
 410 343 410 343 296.5 611 c 128,-1,21
 183 879 183 879 138 988 c 2,22,-1
 94 1097 l 1,23,-1
 312 1097 l 1,24,-1
 652 205 l 1,0,-1
396 1268 m 1,25,-1
 657 1705 l 1,26,-1
 889 1705 l 1,27,-1
 538 1268 l 1,28,-1
 396 1268 l 1,25,-1
EndSplineSet
EndChar

StartChar: thorn
Encoding: 254 254 255
Width: 1229
GlyphClass: 2
Flags: W
LayerCount: 2
Fore
SplineSet
342 957 m 1,0,1
 483 1141 483 1141 723 1141 c 0,2,3
 972 1141 972 1141 1109 985.5 c 128,-1,4
 1246 830 1246 830 1246 572 c 1,5,-1
 1245 572 l 1,6,7
 1245 306 1245 306 1100 140.5 c 128,-1,8
 955 -25 955 -25 728 -25 c 0,9,10
 484 -25 484 -25 341 146 c 1,11,-1
 341 -464 l 1,12,-1
 158 -464 l 1,13,-1
 158 1580 l 1,14,-1
 342 1580 l 1,15,-1
 342 957 l 1,0,1
1048 565 m 0,16,17
 1048 662 1048 662 1029 738.5 c 128,-1,18
 1010 815 1010 815 969.5 874 c 128,-1,19
 929 933 929 933 860.5 964.5 c 128,-1,20
 792 996 792 996 699 996 c 0,21,22
 602 996 602 996 531.5 961.5 c 128,-1,23
 461 927 461 927 420 863.5 c 128,-1,24
 379 800 379 800 359.5 719 c 128,-1,25
 340 638 340 638 340 536 c 0,26,27
 340 350 340 350 431 234 c 128,-1,28
 522 118 522 118 695 118 c 0,29,30
 785 118 785 118 853.5 153 c 128,-1,31
 922 188 922 188 964 250 c 128,-1,32
 1006 312 1006 312 1027 391.5 c 128,-1,33
 1048 471 1048 471 1048 565 c 0,16,17
EndSplineSet
EndChar

StartChar: ydieresis
Encoding: 255 255 256
Width: 1229
GlyphClass: 2
Flags: W
LayerCount: 2
Fore
SplineSet
652 205 m 1,0,-1
 983 1097 l 1,1,-1
 1184 1097 l 1,2,3
 843 254 843 254 753 16 c 1,4,-1
 753 17 l 1,5,6
 750 11 750 11 730 -58 c 0,7,8
 704 -151 704 -151 652 -217.5 c 128,-1,9
 600 -284 600 -284 524 -325 c 128,-1,10
 448 -366 448 -366 361 -388.5 c 128,-1,11
 274 -411 274 -411 160 -423 c 1,12,-1
 160 -267 l 1,13,14
 233 -259 233 -259 281.5 -250.5 c 128,-1,15
 330 -242 330 -242 383.5 -222 c 128,-1,16
 437 -202 437 -202 469 -172 c 128,-1,17
 501 -142 501 -142 523.5 -92.5 c 128,-1,18
 546 -43 546 -43 549 24 c 1,19,20
 410 343 410 343 296.5 611 c 128,-1,21
 183 879 183 879 138 988 c 2,22,-1
 94 1097 l 1,23,-1
 312 1097 l 1,24,-1
 652 205 l 1,0,-1
328 1448 m 1,25,26
 414 1448 414 1448 512 1458 c 1,27,28
 512 1372 512 1372 523 1279 c 1,29,30
 433 1279 433 1279 339 1268 c 1,31,32
 339 1355 339 1355 328 1448 c 1,25,26
763 1279 m 1,33,34
 772 1383 772 1383 772 1458 c 1,35,36
 870 1448 870 1448 956 1448 c 1,37,38
 944 1362 944 1362 944 1268 c 1,39,40
 848 1279 848 1279 763 1279 c 1,33,34
EndSplineSet
EndChar

StartChar: Amacron
Encoding: 256 256 257
Width: 1229
GlyphClass: 2
Flags: W
LayerCount: 2
Fore
SplineSet
728 1491 m 1,0,-1
 1189 0 l 1,1,-1
 984 0 l 1,2,-1
 833 473 l 1,3,-1
 394 473 l 1,4,-1
 244 0 l 1,5,-1
 40 0 l 1,6,-1
 500 1491 l 1,7,-1
 728 1491 l 1,0,-1
433 636 m 1,8,-1
 795 636 l 1,9,-1
 617 1226 l 1,10,-1
 433 636 l 1,8,-1
141 1893 m 1,11,-1
 141 2033 l 1,12,-1
 1088 2033 l 1,13,-1
 1088 1893 l 1,14,-1
 141 1893 l 1,11,-1
EndSplineSet
EndChar

StartChar: amacron
Encoding: 257 257 258
Width: 1229
GlyphClass: 2
Flags: W
LayerCount: 2
Fore
SplineSet
494 -25 m 0,0,1
 338 -25 338 -25 236.5 55.5 c 128,-1,2
 135 136 135 136 135 280 c 0,3,4
 135 349 135 349 157 401 c 128,-1,5
 179 453 179 453 222.5 487 c 128,-1,6
 266 521 266 521 317.5 543 c 128,-1,7
 369 565 369 565 443.5 575.5 c 128,-1,8
 518 586 518 586 585 590 c 128,-1,9
 652 594 652 594 742 594 c 2,10,-1
 858 594 l 1,11,-1
 858 786 l 2,12,13
 858 969 858 969 659 969 c 0,14,15
 417 969 417 969 245 894 c 1,16,-1
 201 1053 l 1,17,18
 398 1130 398 1130 668 1130 c 0,19,20
 851 1130 851 1130 961 1052 c 128,-1,21
 1071 974 1071 974 1071 811 c 2,22,-1
 1071 0 l 1,23,-1
 915 0 l 1,24,-1
 891 84 l 1,25,26
 822 52 822 52 770.5 32 c 128,-1,27
 719 12 719 12 641.5 -6.5 c 128,-1,28
 564 -25 564 -25 494 -25 c 0,0,1
500 129 m 0,29,30
 530 129 530 129 558 131 c 128,-1,31
 586 133 586 133 615.5 138.5 c 128,-1,32
 645 144 645 144 665 148 c 128,-1,33
 685 152 685 152 717.5 162 c 128,-1,34
 750 172 750 172 762.5 176 c 128,-1,35
 775 180 775 180 812 192.5 c 128,-1,36
 849 205 849 205 858 208 c 1,37,-1
 858 452 l 1,38,-1
 739 452 l 2,39,40
 695 452 695 452 663.5 451 c 128,-1,41
 632 450 632 450 587.5 446.5 c 128,-1,42
 543 443 543 443 511.5 436.5 c 128,-1,43
 480 430 480 430 446 417 c 128,-1,44
 412 404 412 404 391 386.5 c 128,-1,45
 370 369 370 369 356.5 341.5 c 128,-1,46
 343 314 343 314 343 280 c 0,47,48
 343 210 343 210 385 169.5 c 128,-1,49
 427 129 427 129 500 129 c 0,29,30
130 1499 m 1,50,-1
 130 1639 l 1,51,-1
 1077 1639 l 1,52,-1
 1077 1499 l 1,53,-1
 130 1499 l 1,50,-1
EndSplineSet
EndChar

StartChar: Abreve
Encoding: 258 258 259
Width: 1229
GlyphClass: 2
Flags: W
LayerCount: 2
Fore
SplineSet
728 1491 m 1,0,-1
 1189 0 l 1,1,-1
 984 0 l 1,2,-1
 833 473 l 1,3,-1
 394 473 l 1,4,-1
 244 0 l 1,5,-1
 40 0 l 1,6,-1
 500 1491 l 1,7,-1
 728 1491 l 1,0,-1
433 636 m 1,8,-1
 795 636 l 1,9,-1
 617 1226 l 1,10,-1
 433 636 l 1,8,-1
399 1973 m 1,11,12
 425 1832 425 1832 608 1832 c 0,13,14
 695 1832 695 1832 754 1869 c 128,-1,15
 813 1906 813 1906 831 1973 c 1,16,-1
 928 1973 l 1,17,18
 919 1847 919 1847 837.5 1782 c 128,-1,19
 756 1717 756 1717 617 1717 c 0,20,21
 325 1717 325 1717 301 1973 c 1,22,-1
 399 1973 l 1,11,12
EndSplineSet
EndChar

StartChar: abreve
Encoding: 259 259 260
Width: 1229
GlyphClass: 2
Flags: W
LayerCount: 2
Fore
SplineSet
494 -25 m 0,0,1
 338 -25 338 -25 236.5 55.5 c 128,-1,2
 135 136 135 136 135 280 c 0,3,4
 135 349 135 349 157 401 c 128,-1,5
 179 453 179 453 222.5 487 c 128,-1,6
 266 521 266 521 317.5 543 c 128,-1,7
 369 565 369 565 443.5 575.5 c 128,-1,8
 518 586 518 586 585 590 c 128,-1,9
 652 594 652 594 742 594 c 2,10,-1
 858 594 l 1,11,-1
 858 786 l 2,12,13
 858 969 858 969 659 969 c 0,14,15
 417 969 417 969 245 894 c 1,16,-1
 201 1053 l 1,17,18
 398 1130 398 1130 668 1130 c 0,19,20
 851 1130 851 1130 961 1052 c 128,-1,21
 1071 974 1071 974 1071 811 c 2,22,-1
 1071 0 l 1,23,-1
 915 0 l 1,24,-1
 891 84 l 1,25,26
 822 52 822 52 770.5 32 c 128,-1,27
 719 12 719 12 641.5 -6.5 c 128,-1,28
 564 -25 564 -25 494 -25 c 0,0,1
500 129 m 0,29,30
 530 129 530 129 558 131 c 128,-1,31
 586 133 586 133 615.5 138.5 c 128,-1,32
 645 144 645 144 665 148 c 128,-1,33
 685 152 685 152 717.5 162 c 128,-1,34
 750 172 750 172 762.5 176 c 128,-1,35
 775 180 775 180 812 192.5 c 128,-1,36
 849 205 849 205 858 208 c 1,37,-1
 858 452 l 1,38,-1
 739 452 l 2,39,40
 695 452 695 452 663.5 451 c 128,-1,41
 632 450 632 450 587.5 446.5 c 128,-1,42
 543 443 543 443 511.5 436.5 c 128,-1,43
 480 430 480 430 446 417 c 128,-1,44
 412 404 412 404 391 386.5 c 128,-1,45
 370 369 370 369 356.5 341.5 c 128,-1,46
 343 314 343 314 343 280 c 0,47,48
 343 210 343 210 385 169.5 c 128,-1,49
 427 129 427 129 500 129 c 0,29,30
388 1579 m 1,50,51
 414 1438 414 1438 597 1438 c 0,52,53
 684 1438 684 1438 743 1475 c 128,-1,54
 802 1512 802 1512 820 1579 c 1,55,-1
 917 1579 l 1,56,57
 908 1453 908 1453 826.5 1388 c 128,-1,58
 745 1323 745 1323 606 1323 c 0,59,60
 314 1323 314 1323 290 1579 c 1,61,-1
 388 1579 l 1,50,51
EndSplineSet
EndChar

StartChar: Aogonek
Encoding: 260 260 261
Width: 1229
GlyphClass: 2
Flags: W
LayerCount: 2
Fore
SplineSet
728 1491 m 1,0,-1
 1189 0 l 1,1,-1
 984 0 l 1,2,-1
 833 473 l 1,3,-1
 394 473 l 1,4,-1
 244 0 l 1,5,-1
 40 0 l 1,6,-1
 500 1491 l 1,7,-1
 728 1491 l 1,0,-1
433 636 m 1,8,-1
 795 636 l 1,9,-1
 617 1226 l 1,10,-1
 433 636 l 1,8,-1
830 -244 m 0,11,12
 830 -204 830 -204 846.5 -167.5 c 128,-1,13
 863 -131 863 -131 885 -106.5 c 128,-1,14
 907 -82 907 -82 943.5 -57 c 128,-1,15
 980 -32 980 -32 1005.5 -18.5 c 128,-1,16
 1031 -5 1031 -5 1069 13 c 1,17,-1
 1211 0 l 1,18,19
 1205 -3 1205 -3 1180.5 -17 c 128,-1,20
 1156 -31 1156 -31 1146.5 -36.5 c 128,-1,21
 1137 -42 1137 -42 1114 -56 c 128,-1,22
 1091 -70 1091 -70 1080 -79 c 128,-1,23
 1069 -88 1069 -88 1051 -102 c 128,-1,24
 1033 -116 1033 -116 1023.5 -127.5 c 128,-1,25
 1014 -139 1014 -139 1004 -153.5 c 128,-1,26
 994 -168 994 -168 989.5 -182.5 c 128,-1,27
 985 -197 985 -197 985 -212 c 0,28,29
 985 -260 985 -260 1022 -283 c 128,-1,30
 1059 -306 1059 -306 1115 -306 c 0,31,32
 1175 -306 1175 -306 1266 -271 c 1,33,-1
 1266 -392 l 1,34,35
 1188 -424 1188 -424 1103 -424 c 0,36,37
 1026 -424 1026 -424 968.5 -409.5 c 128,-1,38
 911 -395 911 -395 870.5 -353 c 128,-1,39
 830 -311 830 -311 830 -244 c 0,11,12
EndSplineSet
EndChar

StartChar: aogonek
Encoding: 261 261 262
Width: 1229
GlyphClass: 2
Flags: W
LayerCount: 2
Fore
SplineSet
494 -25 m 0,0,1
 338 -25 338 -25 236.5 55.5 c 128,-1,2
 135 136 135 136 135 280 c 0,3,4
 135 349 135 349 157 401 c 128,-1,5
 179 453 179 453 222.5 487 c 128,-1,6
 266 521 266 521 317.5 543 c 128,-1,7
 369 565 369 565 443.5 575.5 c 128,-1,8
 518 586 518 586 585 590 c 128,-1,9
 652 594 652 594 742 594 c 2,10,-1
 858 594 l 1,11,-1
 858 786 l 2,12,13
 858 969 858 969 659 969 c 0,14,15
 417 969 417 969 245 894 c 1,16,-1
 201 1053 l 1,17,18
 398 1130 398 1130 668 1130 c 0,19,20
 851 1130 851 1130 961 1052 c 128,-1,21
 1071 974 1071 974 1071 811 c 2,22,-1
 1071 0 l 1,23,-1
 915 0 l 1,24,-1
 891 84 l 1,25,26
 822 52 822 52 770.5 32 c 128,-1,27
 719 12 719 12 641.5 -6.5 c 128,-1,28
 564 -25 564 -25 494 -25 c 0,0,1
500 129 m 0,29,30
 530 129 530 129 558 131 c 128,-1,31
 586 133 586 133 615.5 138.5 c 128,-1,32
 645 144 645 144 665 148 c 128,-1,33
 685 152 685 152 717.5 162 c 128,-1,34
 750 172 750 172 762.5 176 c 128,-1,35
 775 180 775 180 812 192.5 c 128,-1,36
 849 205 849 205 858 208 c 1,37,-1
 858 452 l 1,38,-1
 739 452 l 2,39,40
 695 452 695 452 663.5 451 c 128,-1,41
 632 450 632 450 587.5 446.5 c 128,-1,42
 543 443 543 443 511.5 436.5 c 128,-1,43
 480 430 480 430 446 417 c 128,-1,44
 412 404 412 404 391 386.5 c 128,-1,45
 370 369 370 369 356.5 341.5 c 128,-1,46
 343 314 343 314 343 280 c 0,47,48
 343 210 343 210 385 169.5 c 128,-1,49
 427 129 427 129 500 129 c 0,29,30
740 -244 m 0,50,51
 740 -204 740 -204 756.5 -167.5 c 128,-1,52
 773 -131 773 -131 795 -106.5 c 128,-1,53
 817 -82 817 -82 853.5 -57 c 128,-1,54
 890 -32 890 -32 915.5 -18.5 c 128,-1,55
 941 -5 941 -5 979 13 c 1,56,-1
 1121 0 l 1,57,58
 1115 -3 1115 -3 1090.5 -17 c 128,-1,59
 1066 -31 1066 -31 1056.5 -36.5 c 128,-1,60
 1047 -42 1047 -42 1024 -56 c 128,-1,61
 1001 -70 1001 -70 990 -79 c 128,-1,62
 979 -88 979 -88 961 -102 c 128,-1,63
 943 -116 943 -116 933.5 -127.5 c 128,-1,64
 924 -139 924 -139 914 -153.5 c 128,-1,65
 904 -168 904 -168 899.5 -182.5 c 128,-1,66
 895 -197 895 -197 895 -212 c 0,67,68
 895 -260 895 -260 932 -283 c 128,-1,69
 969 -306 969 -306 1025 -306 c 0,70,71
 1085 -306 1085 -306 1176 -271 c 1,72,-1
 1176 -392 l 1,73,74
 1098 -424 1098 -424 1013 -424 c 0,75,76
 936 -424 936 -424 878.5 -409.5 c 128,-1,77
 821 -395 821 -395 780.5 -353 c 128,-1,78
 740 -311 740 -311 740 -244 c 0,50,51
EndSplineSet
EndChar

StartChar: Cacute
Encoding: 262 262 263
Width: 1229
GlyphClass: 2
Flags: W
LayerCount: 2
Fore
SplineSet
1159 1389 m 1,0,-1
 1089 1249 l 1,1,2
 942 1356 942 1356 758 1356 c 0,3,4
 667 1356 667 1356 593.5 1324 c 128,-1,5
 520 1292 520 1292 470.5 1236 c 128,-1,6
 421 1180 421 1180 388 1102.5 c 128,-1,7
 355 1025 355 1025 340 936.5 c 128,-1,8
 325 848 325 848 325 748 c 0,9,10
 325 618 325 618 352 508 c 128,-1,11
 379 398 379 398 431 314 c 128,-1,12
 483 230 483 230 567 183 c 128,-1,13
 651 136 651 136 758 136 c 0,14,15
 950 136 950 136 1091 244 c 1,16,-1
 1160 103 l 1,17,18
 1004 -25 1004 -25 739 -25 c 0,19,20
 546 -25 546 -25 406 79.5 c 128,-1,21
 266 184 266 184 197.5 357 c 128,-1,22
 129 530 129 530 129 750 c 0,23,24
 129 975 129 975 204 1149 c 128,-1,25
 279 1323 279 1323 418 1419.5 c 128,-1,26
 557 1516 557 1516 739 1516 c 0,27,28
 1003 1516 1003 1516 1159 1389 c 1,0,-1
398 1662 m 1,29,-1
 659 2099 l 1,30,-1
 891 2099 l 1,31,-1
 540 1662 l 1,32,-1
 398 1662 l 1,29,-1
EndSplineSet
EndChar

StartChar: cacute
Encoding: 263 263 264
Width: 1229
GlyphClass: 2
Flags: W
LayerCount: 2
Fore
SplineSet
384 557 m 0,0,1
 384 360 384 360 474 248 c 128,-1,2
 564 136 564 136 748 136 c 0,3,4
 922 136 922 136 1052 231 c 1,5,-1
 1121 85 l 1,6,7
 974 -25 974 -25 734 -25 c 0,8,9
 469 -25 469 -25 320.5 131 c 128,-1,10
 172 287 172 287 172 556 c 0,11,12
 172 818 172 818 323 974 c 128,-1,13
 474 1130 474 1130 734 1130 c 0,14,15
 969 1130 969 1130 1121 1020 c 1,16,-1
 1052 873 l 1,17,18
 920 969 920 969 745 969 c 0,19,20
 563 969 563 969 473.5 859.5 c 128,-1,21
 384 750 384 750 384 557 c 0,0,1
400 1268 m 1,22,-1
 661 1705 l 1,23,-1
 893 1705 l 1,24,-1
 542 1268 l 1,25,-1
 400 1268 l 1,22,-1
EndSplineSet
EndChar

StartChar: Ccaron
Encoding: 268 268 265
Width: 1229
GlyphClass: 2
Flags: W
LayerCount: 2
Fore
SplineSet
1159 1389 m 1,0,-1
 1089 1249 l 1,1,2
 942 1356 942 1356 758 1356 c 0,3,4
 667 1356 667 1356 593.5 1324 c 128,-1,5
 520 1292 520 1292 470.5 1236 c 128,-1,6
 421 1180 421 1180 388 1102.5 c 128,-1,7
 355 1025 355 1025 340 936.5 c 128,-1,8
 325 848 325 848 325 748 c 0,9,10
 325 618 325 618 352 508 c 128,-1,11
 379 398 379 398 431 314 c 128,-1,12
 483 230 483 230 567 183 c 128,-1,13
 651 136 651 136 758 136 c 0,14,15
 950 136 950 136 1091 244 c 1,16,-1
 1160 103 l 1,17,18
 1004 -25 1004 -25 739 -25 c 0,19,20
 546 -25 546 -25 406 79.5 c 128,-1,21
 266 184 266 184 197.5 357 c 128,-1,22
 129 530 129 530 129 750 c 0,23,24
 129 975 129 975 204 1149 c 128,-1,25
 279 1323 279 1323 418 1419.5 c 128,-1,26
 557 1516 557 1516 739 1516 c 0,27,28
 1003 1516 1003 1516 1159 1389 c 1,0,-1
450 2008 m 1,29,-1
 638 1773 l 1,30,-1
 828 2008 l 1,31,-1
 999 2008 l 1,32,-1
 726 1660 l 1,33,-1
 561 1660 l 1,34,-1
 289 2008 l 1,35,-1
 450 2008 l 1,29,-1
EndSplineSet
EndChar

StartChar: ccaron
Encoding: 269 269 266
Width: 1229
GlyphClass: 2
Flags: W
LayerCount: 2
Fore
SplineSet
384 557 m 0,0,1
 384 360 384 360 474 248 c 128,-1,2
 564 136 564 136 748 136 c 0,3,4
 922 136 922 136 1052 231 c 1,5,-1
 1121 85 l 1,6,7
 974 -25 974 -25 734 -25 c 0,8,9
 469 -25 469 -25 320.5 131 c 128,-1,10
 172 287 172 287 172 556 c 0,11,12
 172 818 172 818 323 974 c 128,-1,13
 474 1130 474 1130 734 1130 c 0,14,15
 969 1130 969 1130 1121 1020 c 1,16,-1
 1052 873 l 1,17,18
 920 969 920 969 745 969 c 0,19,20
 563 969 563 969 473.5 859.5 c 128,-1,21
 384 750 384 750 384 557 c 0,0,1
452 1614 m 1,22,-1
 640 1379 l 1,23,-1
 830 1614 l 1,24,-1
 1001 1614 l 1,25,-1
 728 1266 l 1,26,-1
 563 1266 l 1,27,-1
 291 1614 l 1,28,-1
 452 1614 l 1,22,-1
EndSplineSet
EndChar

StartChar: Emacron
Encoding: 274 274 267
Width: 1229
GlyphClass: 2
Flags: W
LayerCount: 2
Fore
SplineSet
404 684 m 1,0,-1
 404 163 l 1,1,-1
 1141 163 l 1,2,-1
 1126 0 l 1,3,-1
 217 0 l 1,4,-1
 217 1491 l 1,5,-1
 1108 1491 l 1,6,-1
 1092 1328 l 1,7,-1
 404 1328 l 1,8,-1
 404 843 l 1,9,-1
 1059 843 l 1,10,-1
 1059 684 l 1,11,-1
 404 684 l 1,0,-1
206 1893 m 1,12,-1
 206 2033 l 1,13,-1
 1153 2033 l 1,14,-1
 1153 1893 l 1,15,-1
 206 1893 l 1,12,-1
EndSplineSet
EndChar

StartChar: emacron
Encoding: 275 275 268
Width: 1229
GlyphClass: 2
Flags: W
LayerCount: 2
Fore
SplineSet
910 653 m 1,0,1
 906 720 906 720 892 775 c 128,-1,2
 878 830 878 830 851 877 c 128,-1,3
 824 924 824 924 779 950.5 c 128,-1,4
 734 977 734 977 674 977 c 0,5,6
 582 977 582 977 516 930.5 c 128,-1,7
 450 884 450 884 417 814 c 128,-1,8
 384 744 384 744 373 653 c 1,9,-1
 910 653 l 1,0,1
1062 138 m 1,10,11
 980 57 980 57 885.5 16 c 128,-1,12
 791 -25 791 -25 659 -25 c 0,13,14
 545 -25 545 -25 453 20.5 c 128,-1,15
 361 66 361 66 303 145.5 c 128,-1,16
 245 225 245 225 214 329.5 c 128,-1,17
 183 434 183 434 183 555 c 0,18,19
 183 815 183 815 319.5 972.5 c 128,-1,20
 456 1130 456 1130 674 1130 c 0,21,22
 774 1130 774 1130 853 1086.5 c 128,-1,23
 932 1043 932 1043 982 967.5 c 128,-1,24
 1032 892 1032 892 1058 793.5 c 128,-1,25
 1084 695 1084 695 1084 581 c 1,26,-1
 1083 520 l 1,27,-1
 367 520 l 1,28,29
 372 407 372 407 405 321.5 c 128,-1,30
 438 236 438 236 506.5 182.5 c 128,-1,31
 575 129 575 129 672 129 c 0,32,33
 854 129 854 129 982 262 c 1,34,-1
 1062 138 l 1,10,11
140 1499 m 1,35,-1
 140 1639 l 1,36,-1
 1087 1639 l 1,37,-1
 1087 1499 l 1,38,-1
 140 1499 l 1,35,-1
EndSplineSet
EndChar

StartChar: Eogonek
Encoding: 280 280 269
Width: 1229
GlyphClass: 2
Flags: W
LayerCount: 2
Fore
SplineSet
404 684 m 1,0,-1
 404 163 l 1,1,-1
 1141 163 l 1,2,-1
 1126 0 l 1,3,-1
 217 0 l 1,4,-1
 217 1491 l 1,5,-1
 1108 1491 l 1,6,-1
 1092 1328 l 1,7,-1
 404 1328 l 1,8,-1
 404 843 l 1,9,-1
 1059 843 l 1,10,-1
 1059 684 l 1,11,-1
 404 684 l 1,0,-1
461 -244 m 0,12,13
 461 -204 461 -204 477.5 -167.5 c 128,-1,14
 494 -131 494 -131 516 -106.5 c 128,-1,15
 538 -82 538 -82 574.5 -57 c 128,-1,16
 611 -32 611 -32 636.5 -18.5 c 128,-1,17
 662 -5 662 -5 700 13 c 1,18,-1
 842 0 l 1,19,20
 836 -3 836 -3 811.5 -17 c 128,-1,21
 787 -31 787 -31 777.5 -36.5 c 128,-1,22
 768 -42 768 -42 745 -56 c 128,-1,23
 722 -70 722 -70 711 -79 c 128,-1,24
 700 -88 700 -88 682 -102 c 128,-1,25
 664 -116 664 -116 654.5 -127.5 c 128,-1,26
 645 -139 645 -139 635 -153.5 c 128,-1,27
 625 -168 625 -168 620.5 -182.5 c 128,-1,28
 616 -197 616 -197 616 -212 c 0,29,30
 616 -260 616 -260 653 -283 c 128,-1,31
 690 -306 690 -306 746 -306 c 0,32,33
 806 -306 806 -306 897 -271 c 1,34,-1
 897 -392 l 1,35,36
 819 -424 819 -424 734 -424 c 0,37,38
 657 -424 657 -424 599.5 -409.5 c 128,-1,39
 542 -395 542 -395 501.5 -353 c 128,-1,40
 461 -311 461 -311 461 -244 c 0,12,13
EndSplineSet
EndChar

StartChar: eogonek
Encoding: 281 281 270
Width: 1229
GlyphClass: 2
Flags: W
LayerCount: 2
Fore
SplineSet
910 653 m 1,0,1
 906 720 906 720 892 775 c 128,-1,2
 878 830 878 830 851 877 c 128,-1,3
 824 924 824 924 779 950.5 c 128,-1,4
 734 977 734 977 674 977 c 0,5,6
 582 977 582 977 516 930.5 c 128,-1,7
 450 884 450 884 417 814 c 128,-1,8
 384 744 384 744 373 653 c 1,9,-1
 910 653 l 1,0,1
1062 138 m 1,10,11
 980 57 980 57 885.5 16 c 128,-1,12
 791 -25 791 -25 659 -25 c 0,13,14
 545 -25 545 -25 453 20.5 c 128,-1,15
 361 66 361 66 303 145.5 c 128,-1,16
 245 225 245 225 214 329.5 c 128,-1,17
 183 434 183 434 183 555 c 0,18,19
 183 815 183 815 319.5 972.5 c 128,-1,20
 456 1130 456 1130 674 1130 c 0,21,22
 774 1130 774 1130 853 1086.5 c 128,-1,23
 932 1043 932 1043 982 967.5 c 128,-1,24
 1032 892 1032 892 1058 793.5 c 128,-1,25
 1084 695 1084 695 1084 581 c 1,26,-1
 1083 520 l 1,27,-1
 367 520 l 1,28,29
 372 407 372 407 405 321.5 c 128,-1,30
 438 236 438 236 506.5 182.5 c 128,-1,31
 575 129 575 129 672 129 c 0,32,33
 854 129 854 129 982 262 c 1,34,-1
 1062 138 l 1,10,11
395 -244 m 0,35,36
 395 -204 395 -204 411.5 -167.5 c 128,-1,37
 428 -131 428 -131 450 -106.5 c 128,-1,38
 472 -82 472 -82 508.5 -57 c 128,-1,39
 545 -32 545 -32 570.5 -18.5 c 128,-1,40
 596 -5 596 -5 634 13 c 1,41,-1
 776 0 l 1,42,43
 770 -3 770 -3 745.5 -17 c 128,-1,44
 721 -31 721 -31 711.5 -36.5 c 128,-1,45
 702 -42 702 -42 679 -56 c 128,-1,46
 656 -70 656 -70 645 -79 c 128,-1,47
 634 -88 634 -88 616 -102 c 128,-1,48
 598 -116 598 -116 588.5 -127.5 c 128,-1,49
 579 -139 579 -139 569 -153.5 c 128,-1,50
 559 -168 559 -168 554.5 -182.5 c 128,-1,51
 550 -197 550 -197 550 -212 c 0,52,53
 550 -260 550 -260 587 -283 c 128,-1,54
 624 -306 624 -306 680 -306 c 0,55,56
 740 -306 740 -306 831 -271 c 1,57,-1
 831 -392 l 1,58,59
 753 -424 753 -424 668 -424 c 0,60,61
 591 -424 591 -424 533.5 -409.5 c 128,-1,62
 476 -395 476 -395 435.5 -353 c 128,-1,63
 395 -311 395 -311 395 -244 c 0,35,36
EndSplineSet
EndChar

StartChar: gcommaaccent
Encoding: 291 291 272
Width: 1229
GlyphClass: 2
Flags: W
LayerCount: 2
Fore
SplineSet
592 969 m 0,0,1
 294 969 294 969 294 550 c 0,2,3
 294 475 294 475 310 408.5 c 128,-1,4
 326 342 326 342 359 285.5 c 128,-1,5
 392 229 392 229 450 195.5 c 128,-1,6
 508 162 508 162 584 162 c 0,7,8
 668 162 668 162 730 195.5 c 128,-1,9
 792 229 792 229 826 287 c 128,-1,10
 860 345 860 345 875.5 411.5 c 128,-1,11
 891 478 891 478 891 556 c 0,12,13
 891 969 891 969 592 969 c 0,0,1
891 210 m 1,14,15
 858 125 858 125 768 62.5 c 128,-1,16
 678 0 678 0 568 0 c 0,17,18
 456 0 456 0 367.5 44 c 128,-1,19
 279 88 279 88 224 164.5 c 128,-1,20
 169 241 169 241 140 341 c 128,-1,21
 111 441 111 441 111 556 c 0,22,23
 111 722 111 722 160 849 c 128,-1,24
 209 976 209 976 314.5 1053 c 128,-1,25
 420 1130 420 1130 572 1130 c 0,26,27
 780 1130 780 1130 891 948 c 1,28,-1
 897 1097 l 1,29,-1
 1082 1097 l 1,30,31
 1073 852 1073 852 1073 446 c 2,32,-1
 1073 152 l 2,33,34
 1073 12 1073 12 1043 -89.5 c 128,-1,35
 1013 -191 1013 -191 955.5 -259 c 128,-1,36
 898 -327 898 -327 803.5 -367.5 c 128,-1,37
 709 -408 709 -408 591 -424.5 c 128,-1,38
 473 -441 473 -441 310 -441 c 1,39,-1
 310 -274 l 1,40,41
 312 -274 312 -274 314 -274 c 0,42,43
 394 -274 394 -274 433.5 -273.5 c 128,-1,44
 473 -273 473 -273 538.5 -268.5 c 128,-1,45
 604 -264 604 -264 638.5 -255.5 c 128,-1,46
 673 -247 673 -247 719.5 -230 c 128,-1,47
 766 -213 766 -213 791.5 -188 c 128,-1,48
 817 -163 817 -163 840 -125.5 c 128,-1,49
 863 -88 863 -88 875 -38 c 0,50,51
 891 30 891 30 891 137 c 2,52,-1
 891 210 l 1,14,15
429 1249 m 1,53,-1
 610 1752 l 1,54,-1
 756 1752 l 1,55,-1
 637 1249 l 1,56,-1
 429 1249 l 1,53,-1
EndSplineSet
EndChar

StartChar: hbar
Encoding: 295 295 273
Width: 1229
GlyphClass: 2
Flags: W
LayerCount: 2
Fore
SplineSet
986 645 m 2,0,1
 986 719 986 719 975.5 774.5 c 128,-1,2
 965 830 965 830 939.5 876 c 128,-1,3
 914 922 914 922 867.5 946 c 128,-1,4
 821 970 821 970 753 970 c 0,5,6
 674 970 674 970 590 929.5 c 128,-1,7
 506 889 506 889 453 831.5 c 128,-1,8
 400 774 400 774 400 725 c 2,9,-1
 400 0 l 1,10,-1
 187 0 l 1,11,-1
 187 1284 l 1,12,-1
 4 1284 l 1,13,-1
 4 1430 l 1,14,-1
 187 1430 l 1,15,-1
 187 1614 l 1,16,-1
 400 1614 l 1,17,-1
 400 1430 l 1,18,-1
 638 1430 l 1,19,-1
 638 1284 l 1,20,-1
 400 1284 l 1,21,-1
 400 951 l 1,22,23
 535 1134 535 1134 789 1134 c 0,24,25
 998 1134 998 1134 1097.5 1010 c 128,-1,26
 1197 886 1197 886 1197 662 c 2,27,-1
 1197 0 l 1,28,-1
 986 0 l 1,29,-1
 986 645 l 2,0,1
EndSplineSet
EndChar

StartChar: Itilde
Encoding: 296 296 274
Width: 1229
GlyphClass: 2
Flags: W
LayerCount: 2
Fore
SplineSet
194 1328 m 1,0,-1
 194 1491 l 1,1,-1
 1035 1491 l 1,2,-1
 1035 1328 l 1,3,-1
 704 1328 l 1,4,-1
 704 163 l 1,5,-1
 1035 163 l 1,6,-1
 1035 0 l 1,7,-1
 194 0 l 1,8,-1
 194 163 l 1,9,-1
 517 163 l 1,10,-1
 517 1328 l 1,11,-1
 194 1328 l 1,0,-1
1006 1930 m 1,12,13
 1000 1819 1000 1819 944 1751 c 128,-1,14
 888 1683 888 1683 783 1683 c 0,15,16
 736 1683 736 1683 691 1701 c 128,-1,17
 646 1719 646 1719 616 1741 c 128,-1,18
 586 1763 586 1763 542 1781 c 128,-1,19
 498 1799 498 1799 452 1799 c 0,20,21
 407 1799 407 1799 384.5 1771.5 c 128,-1,22
 362 1744 362 1744 360 1697 c 1,23,-1
 223 1697 l 1,24,25
 225 1811 225 1811 285 1876.5 c 128,-1,26
 345 1942 345 1942 457 1942 c 0,27,28
 505 1942 505 1942 549.5 1923.5 c 128,-1,29
 594 1905 594 1905 623.5 1883.5 c 128,-1,30
 653 1862 653 1862 696.5 1843.5 c 128,-1,31
 740 1825 740 1825 787 1825 c 0,32,33
 860 1825 860 1825 868 1930 c 1,34,-1
 1006 1930 l 1,12,13
EndSplineSet
EndChar

StartChar: itilde
Encoding: 297 297 275
Width: 1229
GlyphClass: 2
Flags: W
LayerCount: 2
Fore
SplineSet
266 953 m 1,0,-1
 266 1097 l 1,1,-1
 788 1097 l 1,2,-1
 788 144 l 1,3,-1
 1185 144 l 1,4,-1
 1185 0 l 1,5,-1
 197 0 l 1,6,-1
 197 144 l 1,7,-1
 606 144 l 1,8,-1
 606 953 l 1,9,-1
 266 953 l 1,0,-1
1083 1536 m 1,10,11
 1077 1425 1077 1425 1021 1357 c 128,-1,12
 965 1289 965 1289 860 1289 c 0,13,14
 813 1289 813 1289 768 1307 c 128,-1,15
 723 1325 723 1325 693.5 1347 c 128,-1,16
 664 1369 664 1369 619.5 1387 c 128,-1,17
 575 1405 575 1405 529 1405 c 0,18,19
 484 1405 484 1405 461.5 1377.5 c 128,-1,20
 439 1350 439 1350 437 1303 c 1,21,-1
 300 1303 l 1,22,23
 302 1417 302 1417 362 1482.5 c 128,-1,24
 422 1548 422 1548 534 1548 c 0,25,26
 582 1548 582 1548 626.5 1529.5 c 128,-1,27
 671 1511 671 1511 700.5 1489.5 c 128,-1,28
 730 1468 730 1468 773.5 1449.5 c 128,-1,29
 817 1431 817 1431 864 1431 c 0,30,31
 937 1431 937 1431 945 1536 c 1,32,-1
 1083 1536 l 1,10,11
EndSplineSet
EndChar

StartChar: Imacron
Encoding: 298 298 276
Width: 1229
GlyphClass: 2
Flags: W
LayerCount: 2
Fore
SplineSet
194 1328 m 1,0,-1
 194 1491 l 1,1,-1
 1035 1491 l 1,2,-1
 1035 1328 l 1,3,-1
 704 1328 l 1,4,-1
 704 163 l 1,5,-1
 1035 163 l 1,6,-1
 1035 0 l 1,7,-1
 194 0 l 1,8,-1
 194 163 l 1,9,-1
 517 163 l 1,10,-1
 517 1328 l 1,11,-1
 194 1328 l 1,0,-1
141 1893 m 1,12,-1
 141 2033 l 1,13,-1
 1088 2033 l 1,14,-1
 1088 1893 l 1,15,-1
 141 1893 l 1,12,-1
EndSplineSet
EndChar

StartChar: imacron
Encoding: 299 299 277
Width: 1229
GlyphClass: 2
Flags: W
LayerCount: 2
Fore
SplineSet
266 953 m 1,0,-1
 266 1097 l 1,1,-1
 788 1097 l 1,2,-1
 788 144 l 1,3,-1
 1185 144 l 1,4,-1
 1185 0 l 1,5,-1
 197 0 l 1,6,-1
 197 144 l 1,7,-1
 606 144 l 1,8,-1
 606 953 l 1,9,-1
 266 953 l 1,0,-1
218 1499 m 1,10,-1
 218 1639 l 1,11,-1
 1165 1639 l 1,12,-1
 1165 1499 l 1,13,-1
 218 1499 l 1,10,-1
EndSplineSet
EndChar

StartChar: Iogonek
Encoding: 302 302 278
Width: 1229
GlyphClass: 2
Flags: W
LayerCount: 2
Fore
SplineSet
194 1328 m 1,0,-1
 194 1491 l 1,1,-1
 1035 1491 l 1,2,-1
 1035 1328 l 1,3,-1
 704 1328 l 1,4,-1
 704 163 l 1,5,-1
 1035 163 l 1,6,-1
 1035 0 l 1,7,-1
 194 0 l 1,8,-1
 194 163 l 1,9,-1
 517 163 l 1,10,-1
 517 1328 l 1,11,-1
 194 1328 l 1,0,-1
396 -244 m 0,12,13
 396 -204 396 -204 412.5 -167.5 c 128,-1,14
 429 -131 429 -131 451 -106.5 c 128,-1,15
 473 -82 473 -82 509.5 -57 c 128,-1,16
 546 -32 546 -32 571.5 -18.5 c 128,-1,17
 597 -5 597 -5 635 13 c 1,18,-1
 777 0 l 1,19,20
 771 -3 771 -3 746.5 -17 c 128,-1,21
 722 -31 722 -31 712.5 -36.5 c 128,-1,22
 703 -42 703 -42 680 -56 c 128,-1,23
 657 -70 657 -70 646 -79 c 128,-1,24
 635 -88 635 -88 617 -102 c 128,-1,25
 599 -116 599 -116 589.5 -127.5 c 128,-1,26
 580 -139 580 -139 570 -153.5 c 128,-1,27
 560 -168 560 -168 555.5 -182.5 c 128,-1,28
 551 -197 551 -197 551 -212 c 0,29,30
 551 -260 551 -260 588 -283 c 128,-1,31
 625 -306 625 -306 681 -306 c 0,32,33
 741 -306 741 -306 832 -271 c 1,34,-1
 832 -392 l 1,35,36
 754 -424 754 -424 669 -424 c 0,37,38
 592 -424 592 -424 534.5 -409.5 c 128,-1,39
 477 -395 477 -395 436.5 -353 c 128,-1,40
 396 -311 396 -311 396 -244 c 0,12,13
EndSplineSet
EndChar

StartChar: iogonek
Encoding: 303 303 279
Width: 1229
GlyphClass: 2
Flags: W
LayerCount: 2
Fore
SplineSet
266 953 m 1,0,-1
 266 1097 l 1,1,-1
 788 1097 l 1,2,-1
 788 144 l 1,3,-1
 1185 144 l 1,4,-1
 1185 0 l 1,5,-1
 197 0 l 1,6,-1
 197 144 l 1,7,-1
 606 144 l 1,8,-1
 606 953 l 1,9,-1
 266 953 l 1,0,-1
606 1369 m 1,10,-1
 606 1568 l 1,11,-1
 788 1568 l 1,12,-1
 788 1369 l 1,13,-1
 606 1369 l 1,10,-1
473 -244 m 0,14,15
 473 -204 473 -204 489.5 -167.5 c 128,-1,16
 506 -131 506 -131 528 -106.5 c 128,-1,17
 550 -82 550 -82 586.5 -57 c 128,-1,18
 623 -32 623 -32 648.5 -18.5 c 128,-1,19
 674 -5 674 -5 712 13 c 1,20,-1
 854 0 l 1,21,22
 848 -3 848 -3 823.5 -17 c 128,-1,23
 799 -31 799 -31 789.5 -36.5 c 128,-1,24
 780 -42 780 -42 757 -56 c 128,-1,25
 734 -70 734 -70 723 -79 c 128,-1,26
 712 -88 712 -88 694 -102 c 128,-1,27
 676 -116 676 -116 666.5 -127.5 c 128,-1,28
 657 -139 657 -139 647 -153.5 c 128,-1,29
 637 -168 637 -168 632.5 -182.5 c 128,-1,30
 628 -197 628 -197 628 -212 c 0,31,32
 628 -260 628 -260 665 -283 c 128,-1,33
 702 -306 702 -306 758 -306 c 0,34,35
 818 -306 818 -306 909 -271 c 1,36,-1
 909 -392 l 1,37,38
 831 -424 831 -424 746 -424 c 0,39,40
 669 -424 669 -424 611.5 -409.5 c 128,-1,41
 554 -395 554 -395 513.5 -353 c 128,-1,42
 473 -311 473 -311 473 -244 c 0,14,15
EndSplineSet
EndChar

StartChar: dotlessi
Encoding: 305 305 280
Width: 1229
GlyphClass: 2
Flags: W
LayerCount: 2
Fore
SplineSet
266 953 m 1,0,-1
 266 1097 l 1,1,-1
 788 1097 l 1,2,-1
 788 144 l 1,3,-1
 1185 144 l 1,4,-1
 1185 0 l 1,5,-1
 197 0 l 1,6,-1
 197 144 l 1,7,-1
 606 144 l 1,8,-1
 606 953 l 1,9,-1
 266 953 l 1,0,-1
EndSplineSet
EndChar

StartChar: IJ
Encoding: 306 306 281
Width: 1229
GlyphClass: 2
Flags: W
LayerCount: 2
Fore
SplineSet
194 1328 m 1,0,-1
 194 1491 l 1,1,-1
 1035 1491 l 1,2,-1
 1035 1328 l 1,3,-1
 704 1328 l 1,4,-1
 704 163 l 1,5,-1
 1035 163 l 1,6,-1
 1035 0 l 1,7,-1
 194 0 l 1,8,-1
 194 163 l 1,9,-1
 517 163 l 1,10,-1
 517 1328 l 1,11,-1
 194 1328 l 1,0,-1
1366 134 m 1,12,-1
 1579 134 l 2,13,14
 1707 134 1707 134 1755 193 c 128,-1,15
 1803 252 1803 252 1803 391 c 2,16,-1
 1803 1328 l 1,17,-1
 1458 1328 l 1,18,-1
 1458 1491 l 1,19,-1
 2289 1491 l 1,20,-1
 2289 1328 l 1,21,-1
 1990 1328 l 1,22,-1
 1990 443 l 2,23,24
 1990 318 1990 318 1971.5 233 c 128,-1,25
 1953 148 1953 148 1908.5 88.5 c 128,-1,26
 1864 29 1864 29 1788.5 1.5 c 128,-1,27
 1713 -26 1713 -26 1600 -26 c 2,28,-1
 1366 -26 l 1,29,-1
 1366 134 l 1,12,-1
EndSplineSet
EndChar

StartChar: ij
Encoding: 307 307 282
Width: 1229
GlyphClass: 2
Flags: W
LayerCount: 2
Fore
SplineSet
266 953 m 1,0,-1
 266 1097 l 1,1,-1
 788 1097 l 1,2,-1
 788 144 l 1,3,-1
 1185 144 l 1,4,-1
 1185 0 l 1,5,-1
 197 0 l 1,6,-1
 197 144 l 1,7,-1
 606 144 l 1,8,-1
 606 953 l 1,9,-1
 266 953 l 1,0,-1
606 1369 m 1,10,-1
 606 1568 l 1,11,-1
 788 1568 l 1,12,-1
 788 1369 l 1,13,-1
 606 1369 l 1,10,-1
1639 -155 m 2,14,15
 1689 -155 1689 -155 1719.5 -151.5 c 128,-1,16
 1750 -148 1750 -148 1776 -136 c 128,-1,17
 1802 -124 1802 -124 1814.5 -107 c 128,-1,18
 1827 -90 1827 -90 1836 -55.5 c 128,-1,19
 1845 -21 1845 -21 1847.5 20 c 128,-1,20
 1850 61 1850 61 1850 127 c 2,21,-1
 1850 953 l 1,22,-1
 1365 953 l 1,23,-1
 1365 1097 l 1,24,-1
 2032 1097 l 1,25,-1
 2032 183 l 2,26,27
 2032 101 2032 101 2030 51.5 c 128,-1,28
 2028 2 2028 2 2020 -57 c 128,-1,29
 2012 -116 2012 -116 1996 -150 c 128,-1,30
 1980 -184 1980 -184 1952 -219.5 c 128,-1,31
 1924 -255 1924 -255 1882 -272.5 c 128,-1,32
 1840 -290 1840 -290 1780 -301.5 c 128,-1,33
 1720 -313 1720 -313 1640 -313 c 2,34,-1
 1364 -313 l 1,35,-1
 1364 -155 l 1,36,-1
 1639 -155 l 2,14,15
1852 1370 m 1,37,-1
 1852 1569 l 1,38,-1
 2032 1569 l 1,39,-1
 2032 1370 l 1,40,-1
 1852 1370 l 1,37,-1
EndSplineSet
EndChar

StartChar: Jcircumflex
Encoding: 308 308 283
Width: 1229
GlyphClass: 2
Flags: W
LayerCount: 2
Fore
SplineSet
137 134 m 1,0,-1
 350 134 l 2,1,2
 478 134 478 134 526 193 c 128,-1,3
 574 252 574 252 574 391 c 2,4,-1
 574 1328 l 1,5,-1
 229 1328 l 1,6,-1
 229 1491 l 1,7,-1
 1060 1491 l 1,8,-1
 1060 1328 l 1,9,-1
 761 1328 l 1,10,-1
 761 443 l 2,11,12
 761 318 761 318 742.5 233 c 128,-1,13
 724 148 724 148 679.5 88.5 c 128,-1,14
 635 29 635 29 559.5 1.5 c 128,-1,15
 484 -26 484 -26 371 -26 c 2,16,-1
 137 -26 l 1,17,-1
 137 134 l 1,0,-1
682 2009 m 1,18,-1
 941 1660 l 1,19,-1
 798 1660 l 1,20,-1
 594 1895 l 1,21,-1
 392 1660 l 1,22,-1
 256 1660 l 1,23,-1
 515 2009 l 1,24,-1
 682 2009 l 1,18,-1
EndSplineSet
EndChar

StartChar: jcircumflex
Encoding: 309 309 284
Width: 1229
GlyphClass: 2
Flags: W
LayerCount: 2
Fore
SplineSet
410 -155 m 2,0,1
 460 -155 460 -155 490.5 -151.5 c 128,-1,2
 521 -148 521 -148 547 -136 c 128,-1,3
 573 -124 573 -124 585.5 -107 c 128,-1,4
 598 -90 598 -90 607 -55.5 c 128,-1,5
 616 -21 616 -21 618.5 20 c 128,-1,6
 621 61 621 61 621 127 c 2,7,-1
 621 953 l 1,8,-1
 136 953 l 1,9,-1
 136 1097 l 1,10,-1
 803 1097 l 1,11,-1
 803 183 l 2,12,13
 803 101 803 101 801 51.5 c 128,-1,14
 799 2 799 2 791 -57 c 128,-1,15
 783 -116 783 -116 767 -150 c 128,-1,16
 751 -184 751 -184 723 -219.5 c 128,-1,17
 695 -255 695 -255 653 -272.5 c 128,-1,18
 611 -290 611 -290 551 -301.5 c 128,-1,19
 491 -313 491 -313 411 -313 c 2,20,-1
 135 -313 l 1,21,-1
 135 -155 l 1,22,-1
 410 -155 l 2,0,1
553 1615 m 1,23,-1
 812 1266 l 1,24,-1
 669 1266 l 1,25,-1
 465 1501 l 1,26,-1
 263 1266 l 1,27,-1
 127 1266 l 1,28,-1
 386 1615 l 1,29,-1
 553 1615 l 1,23,-1
EndSplineSet
EndChar

StartChar: kcommaaccent
Encoding: 311 311 285
Width: 1229
GlyphClass: 2
Flags: W
LayerCount: 2
Fore
SplineSet
397 648 m 1,0,-1
 886 1097 l 1,1,-1
 1126 1097 l 1,2,-1
 639 641 l 1,3,-1
 1135 0 l 1,4,-1
 907 0 l 1,5,-1
 509 546 l 1,6,-1
 397 451 l 1,7,-1
 397 0 l 1,8,-1
 215 0 l 1,9,-1
 215 1585 l 1,10,-1
 397 1585 l 1,11,-1
 397 648 l 1,0,-1
839 -152 m 1,12,-1
 658 -655 l 1,13,-1
 512 -655 l 1,14,-1
 631 -152 l 1,15,-1
 839 -152 l 1,12,-1
EndSplineSet
EndChar

StartChar: kgreenlandic
Encoding: 312 312 286
Width: 1229
GlyphClass: 2
Flags: W
LayerCount: 2
Fore
SplineSet
398 604 m 1,0,-1
 914 1113 l 1,1,-1
 1164 1113 l 1,2,-1
 576 555 l 1,3,-1
 1204 0 l 1,4,-1
 962 0 l 1,5,-1
 397 511 l 1,6,-1
 397 0 l 1,7,-1
 215 0 l 1,8,-1
 215 1114 l 1,9,-1
 398 1114 l 1,10,-1
 398 604 l 1,0,-1
EndSplineSet
EndChar

StartChar: ldot
Encoding: 320 320 288
Width: 1229
GlyphClass: 2
Flags: W
LayerCount: 2
Fore
SplineSet
195 1433 m 1,0,-1
 195 1585 l 1,1,-1
 788 1585 l 1,2,-1
 788 144 l 1,3,-1
 1259 144 l 1,4,-1
 1259 0 l 1,5,-1
 125 0 l 1,6,-1
 125 144 l 1,7,-1
 606 144 l 1,8,-1
 606 1433 l 1,9,-1
 195 1433 l 1,0,-1
1716 557 m 1,10,-1
 1716 785 l 1,11,-1
 1957 785 l 1,12,-1
 1957 557 l 1,13,-1
 1716 557 l 1,10,-1
EndSplineSet
EndChar

StartChar: Lslash
Encoding: 321 321 289
Width: 1229
GlyphClass: 2
Flags: W
LayerCount: 2
Fore
SplineSet
11 531 m 1,0,-1
 11 680 l 1,1,-1
 830 1080 l 1,2,-1
 830 931 l 1,3,-1
 11 531 l 1,0,-1
420 163 m 1,4,-1
 1129 163 l 1,5,-1
 1129 0 l 1,6,-1
 233 0 l 1,7,-1
 233 1491 l 1,8,-1
 420 1491 l 1,9,-1
 420 163 l 1,4,-1
EndSplineSet
EndChar

StartChar: lslash
Encoding: 322 322 290
Width: 1229
GlyphClass: 2
Flags: W
LayerCount: 2
Fore
SplineSet
305 531 m 1,0,-1
 305 680 l 1,1,-1
 1124 1080 l 1,2,-1
 1124 931 l 1,3,-1
 305 531 l 1,0,-1
195 1433 m 1,4,-1
 195 1585 l 1,5,-1
 788 1585 l 1,6,-1
 788 144 l 1,7,-1
 1259 144 l 1,8,-1
 1259 0 l 1,9,-1
 125 0 l 1,10,-1
 125 144 l 1,11,-1
 606 144 l 1,12,-1
 606 1433 l 1,13,-1
 195 1433 l 1,4,-1
EndSplineSet
EndChar

StartChar: Nacute
Encoding: 323 323 291
Width: 1229
GlyphClass: 2
Flags: W
LayerCount: 2
Fore
SplineSet
1078 0 m 1,0,-1
 858 0 l 1,1,-1
 324 1166 l 1,2,-1
 324 0 l 1,3,-1
 150 0 l 1,4,-1
 150 1491 l 1,5,-1
 365 1491 l 1,6,-1
 907 299 l 1,7,-1
 907 1491 l 1,8,-1
 1078 1491 l 1,9,-1
 1078 0 l 1,0,-1
368 1662 m 1,10,-1
 629 2099 l 1,11,-1
 861 2099 l 1,12,-1
 510 1662 l 1,13,-1
 368 1662 l 1,10,-1
EndSplineSet
EndChar

StartChar: nacute
Encoding: 324 324 292
Width: 1229
GlyphClass: 2
Flags: W
LayerCount: 2
Fore
SplineSet
681 1130 m 0,0,1
 1022 1130 1022 1130 1022 698 c 2,2,-1
 1022 0 l 1,3,-1
 840 0 l 1,4,-1
 840 640 l 2,5,6
 840 644 840 644 840 653 c 0,7,8
 840 692 840 692 840 711.5 c 128,-1,9
 840 731 840 731 838 766 c 128,-1,10
 836 801 836 801 832 819.5 c 128,-1,11
 828 838 828 838 820.5 866 c 128,-1,12
 813 894 813 894 802 909.5 c 128,-1,13
 791 925 791 925 774 943.5 c 128,-1,14
 757 962 757 962 735 971 c 128,-1,15
 713 980 713 980 683.5 986.5 c 128,-1,16
 654 993 654 993 617 993 c 0,17,18
 501 993 501 993 421.5 920.5 c 128,-1,19
 342 848 342 848 342 732 c 2,20,-1
 342 0 l 1,21,-1
 160 0 l 1,22,-1
 160 1097 l 1,23,-1
 327 1097 l 1,24,-1
 337 958 l 1,25,26
 398 1037 398 1037 478.5 1083.5 c 128,-1,27
 559 1130 559 1130 681 1130 c 0,0,1
345 1268 m 1,28,-1
 606 1705 l 1,29,-1
 838 1705 l 1,30,-1
 487 1268 l 1,31,-1
 345 1268 l 1,28,-1
EndSplineSet
EndChar

